<svg height="48" viewBox="0 0 48 48" width="48" xmlns="http://www.w3.org/2000/svg"><path d="m41 16h-38v23a1 1 0 0 0 1 1h16.28a15.88 15.88 0 0 0 .883 3h-17.163a4 4 0 0 1 -4-4v-33a4 4 0 0 1 4-4h36a4 4 0 0 1 4 4v16.14a15.915 15.915 0 0 0 -3-1.343zm-5 32c-6.627 0-12-5.373-12-12s5.373-12 12-12 12 5.373 12 12-5.373 12-12 12zm5.772-9.286-4.272-2.564v-7.15a1.5 1.5 0 0 0 -3 0v8a1.5 1.5 0 0 0 .728 1.286l5 3a1.5 1.5 0 0 0 1.544-2.572zm-29.272-8.714a4.5 4.5 0 1 1 0-9 4.5 4.5 0 0 1 0 9z" fill="#3b3937" fill-opacity=".2"/></svg>