<svg xmlns="http://www.w3.org/2000/svg" width="148" height="26" viewBox="0 0 148 26">
    <defs>
        <linearGradient id="a" x1="0%" y1="49.97%" y2="49.97%">
            <stop offset="0%" stop-color="#1A1E5A"/>
            <stop offset="100%" stop-color="#122D98"/>
        </linearGradient>
    </defs>
    <g fill="none" fill-rule="nonzero">
        <path fill="url(#a)" d="M13.69.21L8.965 12.042H5.893l-2.32-9.43c-.134-.579-.267-.789-.685-1.034C2.17 1.174 1.018.788 0 .56L.067.21h4.958c.635 0 1.202.438 1.336 1.209l1.218 6.836L10.635.21h3.055zm12.07 7.976c.017-3.12-4.107-3.295-4.09-4.68.017-.42.4-.877 1.235-1 .418-.052 1.57-.105 2.872.527l.517-2.507C25.594.263 24.692 0 23.574 0c-2.872 0-4.91 1.613-4.926 3.909-.017 1.7 1.453 2.647 2.554 3.225 1.136.579 1.52.947 1.52 1.473-.017.789-.902 1.14-1.737 1.157-1.469.017-2.32-.421-2.988-.754l-.534 2.594c.684.333 1.936.614 3.239.631 3.055 0 5.041-1.595 5.058-4.049zm7.613 3.856h2.688L33.707.21h-2.488c-.55 0-1.035.333-1.235.86L25.61 12.024h3.055l.601-1.77h3.74l.367 1.787zm-3.255-4.189l1.535-4.435.885 4.435h-2.42zM17.847.21l-2.404 11.832h-2.905L14.942.21h2.905z" transform="translate(111.94 6.882)"/>
        <path fill="#231F20" d="M5.795 24.905V23.26a.987.987 0 0 0-.276-.753.951.951 0 0 0-.736-.288.99.99 0 0 0-.902.458.942.942 0 0 0-.852-.458.847.847 0 0 0-.755.39v-.324h-.563v2.622h.565v-1.443a.622.622 0 0 1 .158-.494.599.599 0 0 1 .473-.194c.372 0 .562.248.562.688v1.46h.565V23.47a.624.624 0 0 1 .16-.493.6.6 0 0 1 .471-.195c.384 0 .566.248.566.688v1.46l.564-.026zm8.37-2.622h-.922v-.796h-.565v.796h-.507v.52h.518v1.207c0 .608.225.97.901.97.248.002.491-.068.701-.201l-.162-.489c-.15.092-.32.143-.496.15-.27 0-.372-.175-.372-.439v-1.197h.915l-.01-.521zm4.778-.067a.757.757 0 0 0-.676.383v-.319h-.554v2.623h.56v-1.47c0-.434.183-.675.54-.675a.899.899 0 0 1 .349.066l.171-.548a1.18 1.18 0 0 0-.399-.071l.01.011zm-7.223.266a1.9 1.9 0 0 0-1.05-.275c-.652 0-1.078.319-1.078.84 0 .426.313.688.888.773l.27.039c.307.043.451.126.451.275 0 .202-.205.319-.588.319a1.354 1.354 0 0 1-.856-.275l-.27.445c.323.232.71.354 1.106.346.744 0 1.174-.355 1.174-.856 0-.5-.34-.702-.901-.784l-.27-.04c-.244-.031-.438-.082-.438-.256s.182-.307.491-.307c.285.004.563.083.81.229l.26-.473zm15.008-.275a.757.757 0 0 0-.676.383v-.319h-.555v2.622h.562v-1.47c0-.434.182-.675.538-.675a.899.899 0 0 1 .35.067l.17-.548a1.18 1.18 0 0 0-.398-.071l.009.011zm-7.212 1.377c-.014.351.11.695.345.953s.562.41.908.423h.122c.336.017.666-.094.926-.312l-.27-.459c-.196.15-.433.23-.677.23a.836.836 0 0 1-.766-.84c0-.441.334-.807.766-.84.244 0 .481.08.676.23l.27-.46a1.337 1.337 0 0 0-.925-.311c-.345-.02-.683.1-.94.334a1.333 1.333 0 0 0-.433.914v.124l-.002.014zm5.247 0v-1.306H24.2v.32a.971.971 0 0 0-.809-.384c-.747 0-1.352.616-1.352 1.376 0 .76.605 1.377 1.352 1.377a.971.971 0 0 0 .81-.383v.319h.56v-1.32zm-2.085 0a.78.78 0 0 1 .787-.756.78.78 0 0 1 .758.787.78.78 0 0 1-.758.786.78.78 0 0 1-.787-.756c-.006-.01-.008-.03-.007-.057l.007-.004zm-6.762-1.377a1.366 1.366 0 0 0-1.333 1.396c.01.76.625 1.368 1.372 1.357.388.02.77-.106 1.07-.356l-.27-.422c-.213.174-.476.271-.748.276a.718.718 0 0 1-.771-.643h1.893v-.23c0-.823-.5-1.376-1.224-1.376l.011-.002zm0 .51a.632.632 0 0 1 .455.18c.123.119.193.283.197.455h-1.353a.667.667 0 0 1 .677-.636h.024zm14.04.867V21.22h-.54v1.376a.971.971 0 0 0-.808-.383c-.747 0-1.353.616-1.353 1.376 0 .76.606 1.377 1.353 1.377a.971.971 0 0 0 .809-.383v.319h.538v-1.32zm.935.929c.104-.003.2.058.243.156a.259.259 0 0 1-.14.34.249.249 0 0 1-.101.022.27.27 0 0 1-.243-.158.261.261 0 0 1 0-.202.261.261 0 0 1 .25-.156l-.01-.002zm0 .458a.189.189 0 0 0 .14-.06.2.2 0 0 0-.061-.318.2.2 0 0 0-.158 0 .196.196 0 0 0-.066.044.202.202 0 0 0-.034.218c.033.074.106.12.185.116h-.006zm.015-.325c.026-.001.05.007.07.023a.07.07 0 0 1 .025.057.067.067 0 0 1-.018.05.094.094 0 0 1-.056.026l.079.09h-.061l-.072-.09h-.025v.09h-.052v-.23l.11-.016zm-.058.046v.084h.058c.01.004.022.004.032 0a.028.028 0 0 0 0-.025.028.028 0 0 0 0-.025.055.055 0 0 0-.032 0l-.058-.034zm-2.964-1.113a.78.78 0 0 1 .788-.756.78.78 0 0 1 .758.787.78.78 0 0 1-.758.787.78.78 0 0 1-.788-.756c-.007-.008-.01-.024-.009-.048l.01-.014zm-18.918 0v-1.31h-.57v.319a.971.971 0 0 0-.81-.383c-.747 0-1.352.616-1.352 1.376 0 .76.605 1.377 1.352 1.377a.971.971 0 0 0 .81-.383v.318h.56l.01-1.314zm-2.085 0a.724.724 0 0 1 .735-.697c.39.01.702.334.702.731a.726.726 0 0 1-.702.732.724.724 0 0 1-.735-.697v-.07z"/>
        <path fill="#FF5F00" d="M11.533 2.306h8.486v15.522h-8.486z"/>
        <path fill="#EB001B" d="M12.071 10.069c-.001-3.03 1.365-5.892 3.706-7.763a9.57 9.57 0 0 0-13.104 1.07c-3.427 3.779-3.427 9.603 0 13.381a9.57 9.57 0 0 0 13.104 1.07c-2.34-1.87-3.706-4.73-3.706-7.758z"/>
        <path fill="#F79E1B" d="M31.468 10.069c.005 3.782-2.114 7.234-5.456 8.886a9.553 9.553 0 0 1-10.235-1.125c2.341-1.87 3.709-4.732 3.709-7.761 0-3.03-1.368-5.891-3.71-7.761A9.553 9.553 0 0 1 26.015 1.18c3.342 1.653 5.462 5.106 5.456 8.889h-.002z"/>
        <g>
            <path fill="#0099DF" d="M87.371 16.82v-.383h-.099l-.114.263-.114-.263h-.1v.383h.07v-.289l.108.25h.073l.107-.25v.29h.07zm-.628 0v-.318h.127v-.064h-.323v.064h.127v.318h.07z"/>
            <path fill="#6C6BBD" d="M76.123 18.468H67.56V2.939h8.562z"/>
            <path fill="#EB001B" d="M68.11 10.702a9.892 9.892 0 0 1 3.737-7.764A9.687 9.687 0 0 0 65.799.826c-5.403 0-9.784 4.422-9.784 9.876 0 5.455 4.38 9.876 9.784 9.876 2.283 0 4.384-.79 6.048-2.112a9.892 9.892 0 0 1-3.737-7.764"/>
            <path fill="#0099DF" d="M87.67 10.702c0 5.455-4.38 9.876-9.785 9.876a9.69 9.69 0 0 1-6.048-2.112 9.89 9.89 0 0 0 3.738-7.764 9.89 9.89 0 0 0-3.738-7.764A9.69 9.69 0 0 1 77.885.826c5.404 0 9.785 4.422 9.785 9.876"/>
            <path fill="#231F20" d="M79.01 22.853c.113 0 .277.022.402.071l-.174.538a.908.908 0 0 0-.353-.066c-.37 0-.555.241-.555.674v1.47h-.565V22.92h.56v.318a.765.765 0 0 1 .685-.384zm-2.09.587h-.924v1.185c0 .263.093.439.376.439.146 0 .331-.05.5-.149l.162.488c-.179.126-.461.204-.706.204-.669 0-.902-.363-.902-.972V23.44h-.528v-.521h.528v-.796h.57v.796h.924v.52zm-7.235.56c.06-.38.288-.637.691-.637.364 0 .598.23.658.636h-1.349zm1.936.23c-.006-.818-.506-1.377-1.234-1.377-.761 0-1.294.56-1.294 1.377 0 .833.554 1.376 1.332 1.376.391 0 .75-.099 1.065-.367l-.277-.423a1.229 1.229 0 0 1-.755.275c-.364 0-.696-.17-.778-.642h1.93c.005-.072.01-.143.01-.22zm2.484-.642a1.655 1.655 0 0 0-.81-.225c-.31 0-.494.115-.494.307 0 .175.195.225.44.258l.266.038c.565.083.907.324.907.785 0 .5-.435.856-1.184.856-.424 0-.816-.11-1.126-.34l.267-.445c.19.148.473.274.864.274.386 0 .593-.115.593-.318 0-.148-.147-.23-.457-.274l-.266-.038c-.582-.083-.897-.346-.897-.774 0-.52.424-.84 1.082-.84.413 0 .788.094 1.059.275l-.244.461zm6.97-.193a.85.85 0 0 0-.323.061.778.778 0 0 0-.431.44.91.91 0 0 0-.062.343c0 .124.02.238.062.342a.778.778 0 0 0 .43.44c.1.041.208.061.325.061.116 0 .224-.02.324-.061a.777.777 0 0 0 .433-.44.907.907 0 0 0 .063-.342.91.91 0 0 0-.063-.343.777.777 0 0 0-.434-.44.847.847 0 0 0-.323-.061zm0-.542c.202 0 .389.035.56.106a1.334 1.334 0 0 1 .74.73c.071.168.107.352.107.55 0 .197-.036.38-.107.55a1.337 1.337 0 0 1-.74.73c-.171.07-.358.105-.56.105-.2 0-.388-.035-.56-.105a1.353 1.353 0 0 1-.443-.292 1.353 1.353 0 0 1-.293-.438 1.406 1.406 0 0 1-.106-.55c0-.198.035-.382.106-.55a1.343 1.343 0 0 1 .737-.73c.171-.071.358-.106.56-.106zM66.384 24.23c0-.461.3-.84.788-.84.468 0 .783.363.783.84s-.315.839-.783.839c-.489 0-.788-.378-.788-.84zm2.104 0v-1.311h-.565v.318c-.18-.236-.451-.384-.821-.384-.729 0-1.299.576-1.299 1.377 0 .8.57 1.377 1.299 1.377.37 0 .64-.148.82-.385v.319h.566V24.23zm-3.185 1.31v-1.645c0-.62-.392-1.037-1.022-1.042-.331-.006-.674.098-.913.466-.18-.29-.462-.466-.86-.466-.276 0-.548.082-.76.39v-.324h-.565v2.622h.57v-1.454c0-.455.25-.697.636-.697.375 0 .566.247.566.692v1.459h.57v-1.454c0-.455.262-.697.636-.697.386 0 .571.247.571.692v1.459h.57zM83.09 25.344v.065h.06a.058.058 0 0 0 .032-.008.028.028 0 0 0 .012-.025.026.026 0 0 0-.012-.024.053.053 0 0 0-.032-.008h-.06zm.06-.045c.031 0 .055.007.072.02a.069.069 0 0 1 .024.057c0 .02-.006.037-.02.05a.098.098 0 0 1-.056.024l.078.09h-.06l-.074-.09h-.023v.09h-.051V25.3h.11zm-.015.325a.187.187 0 0 0 .078-.016.204.204 0 0 0 0-.374.187.187 0 0 0-.078-.015.195.195 0 0 0-.079.015.191.191 0 0 0-.107.108.197.197 0 0 0-.016.079c0 .028.005.054.016.079a.19.19 0 0 0 .107.108c.024.01.051.016.079.016zm0-.464c.037 0 .07.007.102.021a.256.256 0 0 1 .14.139.25.25 0 0 1 .02.1.25.25 0 0 1-.076.184.268.268 0 0 1-.186.077.26.26 0 0 1-.188-.077.26.26 0 0 1-.056-.284.256.256 0 0 1 .14-.139.26.26 0 0 1 .104-.02z"/>
        </g>
    </g>
</svg>
