<svg width="56" height="56" viewBox="0 0 56 56" fill="none" xmlns="http://www.w3.org/2000/svg">
<g clip-path="url(#paint0_angular_5122_5434_clip_path)" data-figma-skip-parse="true"><g transform="matrix(0 0.028 -0.028 0 28 28)"><foreignObject x="-1035.71" y="-1035.71" width="2071.43" height="2071.43"><div xmlns="http://www.w3.org/1999/xhtml" style="background:conic-gradient(from 90deg,rgba(93, 192, 146, 1) 0deg,rgba(77, 186, 137, 1) 27deg,rgba(0, 156, 86, 1) 179.964deg,rgba(203, 235, 206, 1) 180deg,rgba(93, 192, 146, 1) 360deg);height:100%;width:100%;opacity:1"></div></foreignObject></g></g><path d="M56 28C56 32.2701 55.0234 36.4836 53.1448 40.3183C51.2662 44.153 48.5354 47.5072 45.1614 50.1243C41.7874 52.7415 37.8594 54.5523 33.678 55.4182C29.4967 56.2842 25.1726 56.1823 21.0367 55.1203L22.4293 49.6963C25.7381 50.5458 29.1973 50.6273 32.5424 49.9346C35.8875 49.2419 39.0299 47.7932 41.7291 45.6995C44.4283 43.6057 46.6129 40.9224 48.1158 37.8546C49.6187 34.7869 50.4 31.4161 50.4 28H56Z" data-figma-gradient-fill="{&#34;type&#34;:&#34;GRADIENT_ANGULAR&#34;,&#34;stops&#34;:[{&#34;color&#34;:{&#34;r&#34;:0.30196079611778259,&#34;g&#34;:0.7294117808341980,&#34;b&#34;:0.53725492954254150,&#34;a&#34;:1.0},&#34;position&#34;:0.075000002980232239},{&#34;color&#34;:{&#34;r&#34;:0.0,&#34;g&#34;:0.61199998855590820,&#34;b&#34;:0.34099999070167542,&#34;a&#34;:1.0},&#34;position&#34;:0.49990001320838928},{&#34;color&#34;:{&#34;r&#34;:0.79981017112731934,&#34;g&#34;:0.92532551288604736,&#34;b&#34;:0.81142801046371460,&#34;a&#34;:1.0},&#34;position&#34;:0.50}],&#34;stopsVar&#34;:[{&#34;color&#34;:{&#34;r&#34;:0.30196079611778259,&#34;g&#34;:0.7294117808341980,&#34;b&#34;:0.53725492954254150,&#34;a&#34;:1.0},&#34;position&#34;:0.075000002980232239},{&#34;color&#34;:{&#34;r&#34;:0.0,&#34;g&#34;:0.61199998855590820,&#34;b&#34;:0.34099999070167542,&#34;a&#34;:1.0},&#34;position&#34;:0.49990001320838928},{&#34;color&#34;:{&#34;r&#34;:0.79981017112731934,&#34;g&#34;:0.92532551288604736,&#34;b&#34;:0.81142801046371460,&#34;a&#34;:1.0},&#34;position&#34;:0.50}],&#34;transform&#34;:{&#34;m00&#34;:3.4290112931175884e-15,&#34;m01&#34;:-56.0,&#34;m02&#34;:56.0,&#34;m10&#34;:56.0,&#34;m11&#34;:3.4290112931175884e-15,&#34;m12&#34;:-3.4290112931175884e-15},&#34;opacity&#34;:1.0,&#34;blendMode&#34;:&#34;NORMAL&#34;,&#34;visible&#34;:true}"/>
<g clip-path="url(#paint1_angular_5122_5434_clip_path)" data-figma-skip-parse="true"><g transform="matrix(0 0.028 -0.028 0 28 28)"><foreignObject x="-1035.71" y="-1035.71" width="2071.43" height="2071.43"><div xmlns="http://www.w3.org/1999/xhtml" style="background:conic-gradient(from 90deg,rgba(93, 192, 146, 1) 0deg,rgba(77, 186, 137, 1) 27deg,rgba(0, 156, 86, 1) 179.964deg,rgba(203, 235, 206, 1) 180deg,rgba(93, 192, 146, 1) 360deg);height:100%;width:100%;opacity:1"></div></foreignObject></g></g><path d="M28 56C23.7299 56 19.5164 55.0234 15.6817 53.1448C11.847 51.2662 8.49283 48.5354 5.87566 45.1614C3.25849 41.7874 1.44768 37.8594 0.581761 33.678C-0.28416 29.4967 -0.182259 25.1726 0.879671 21.0367L6.30374 22.4293C5.45419 25.7381 5.37267 29.1973 6.06541 32.5424C6.75815 35.8875 8.20679 39.0299 10.3005 41.7291C12.3943 44.4283 15.0776 46.6129 18.1454 48.1158C21.2131 49.6187 24.5839 50.4 28 50.4V56Z" data-figma-gradient-fill="{&#34;type&#34;:&#34;GRADIENT_ANGULAR&#34;,&#34;stops&#34;:[{&#34;color&#34;:{&#34;r&#34;:0.30196079611778259,&#34;g&#34;:0.7294117808341980,&#34;b&#34;:0.53725492954254150,&#34;a&#34;:1.0},&#34;position&#34;:0.075000002980232239},{&#34;color&#34;:{&#34;r&#34;:0.0,&#34;g&#34;:0.61199998855590820,&#34;b&#34;:0.34099999070167542,&#34;a&#34;:1.0},&#34;position&#34;:0.49990001320838928},{&#34;color&#34;:{&#34;r&#34;:0.79981017112731934,&#34;g&#34;:0.92532551288604736,&#34;b&#34;:0.81142801046371460,&#34;a&#34;:1.0},&#34;position&#34;:0.50}],&#34;stopsVar&#34;:[{&#34;color&#34;:{&#34;r&#34;:0.30196079611778259,&#34;g&#34;:0.7294117808341980,&#34;b&#34;:0.53725492954254150,&#34;a&#34;:1.0},&#34;position&#34;:0.075000002980232239},{&#34;color&#34;:{&#34;r&#34;:0.0,&#34;g&#34;:0.61199998855590820,&#34;b&#34;:0.34099999070167542,&#34;a&#34;:1.0},&#34;position&#34;:0.49990001320838928},{&#34;color&#34;:{&#34;r&#34;:0.79981017112731934,&#34;g&#34;:0.92532551288604736,&#34;b&#34;:0.81142801046371460,&#34;a&#34;:1.0},&#34;position&#34;:0.50}],&#34;transform&#34;:{&#34;m00&#34;:3.4290112931175884e-15,&#34;m01&#34;:-56.0,&#34;m02&#34;:56.0,&#34;m10&#34;:56.0,&#34;m11&#34;:3.4290112931175884e-15,&#34;m12&#34;:-3.4290112931175884e-15},&#34;opacity&#34;:1.0,&#34;blendMode&#34;:&#34;NORMAL&#34;,&#34;visible&#34;:true}"/>
<g clip-path="url(#paint2_angular_5122_5434_clip_path)" data-figma-skip-parse="true"><g transform="matrix(0 0.028 -0.028 0 28 28)"><foreignObject x="-1035.71" y="-1035.71" width="2071.43" height="2071.43"><div xmlns="http://www.w3.org/1999/xhtml" style="background:conic-gradient(from 90deg,rgba(93, 192, 146, 1) 0deg,rgba(77, 186, 137, 1) 27deg,rgba(0, 156, 86, 1) 179.964deg,rgba(203, 235, 206, 1) 180deg,rgba(93, 192, 146, 1) 360deg);height:100%;width:100%;opacity:1"></div></foreignObject></g></g><path d="M2.8 28C1.2536 28 -0.0145241 26.7432 0.139828 25.2045C0.75195 19.1025 3.35551 13.3408 7.58888 8.83268C11.8222 4.3246 17.4091 1.3644 23.4607 0.370334C24.9866 0.119673 26.3206 1.30638 26.4177 2.84973C26.5148 4.39307 25.3363 5.7052 23.8171 5.99394C19.1885 6.87368 14.9288 9.19702 11.6711 12.6661C8.41338 16.1353 6.36209 20.5324 5.77472 25.2071C5.58194 26.7415 4.3464 28 2.8 28Z" data-figma-gradient-fill="{&#34;type&#34;:&#34;GRADIENT_ANGULAR&#34;,&#34;stops&#34;:[{&#34;color&#34;:{&#34;r&#34;:0.30196079611778259,&#34;g&#34;:0.7294117808341980,&#34;b&#34;:0.53725492954254150,&#34;a&#34;:1.0},&#34;position&#34;:0.075000002980232239},{&#34;color&#34;:{&#34;r&#34;:0.0,&#34;g&#34;:0.61199998855590820,&#34;b&#34;:0.34099999070167542,&#34;a&#34;:1.0},&#34;position&#34;:0.49990001320838928},{&#34;color&#34;:{&#34;r&#34;:0.79981017112731934,&#34;g&#34;:0.92532551288604736,&#34;b&#34;:0.81142801046371460,&#34;a&#34;:1.0},&#34;position&#34;:0.50}],&#34;stopsVar&#34;:[{&#34;color&#34;:{&#34;r&#34;:0.30196079611778259,&#34;g&#34;:0.7294117808341980,&#34;b&#34;:0.53725492954254150,&#34;a&#34;:1.0},&#34;position&#34;:0.075000002980232239},{&#34;color&#34;:{&#34;r&#34;:0.0,&#34;g&#34;:0.61199998855590820,&#34;b&#34;:0.34099999070167542,&#34;a&#34;:1.0},&#34;position&#34;:0.49990001320838928},{&#34;color&#34;:{&#34;r&#34;:0.79981017112731934,&#34;g&#34;:0.92532551288604736,&#34;b&#34;:0.81142801046371460,&#34;a&#34;:1.0},&#34;position&#34;:0.50}],&#34;transform&#34;:{&#34;m00&#34;:3.4290112931175884e-15,&#34;m01&#34;:-56.0,&#34;m02&#34;:56.0,&#34;m10&#34;:56.0,&#34;m11&#34;:3.4290112931175884e-15,&#34;m12&#34;:-3.4290112931175884e-15},&#34;opacity&#34;:1.0,&#34;blendMode&#34;:&#34;NORMAL&#34;,&#34;visible&#34;:true}"/>
<g clip-path="url(#paint3_angular_5122_5434_clip_path)" data-figma-skip-parse="true"><g transform="matrix(0 0.028 -0.028 0 28 28)"><foreignObject x="-1035.71" y="-1035.71" width="2071.43" height="2071.43"><div xmlns="http://www.w3.org/1999/xhtml" style="background:conic-gradient(from 90deg,rgba(93, 192, 146, 1) 0deg,rgba(77, 186, 137, 1) 27deg,rgba(0, 156, 86, 1) 179.964deg,rgba(203, 235, 206, 1) 180deg,rgba(93, 192, 146, 1) 360deg);height:100%;width:100%;opacity:1"></div></foreignObject></g></g><path d="M28 2.8C28 1.2536 29.2567 -0.0145024 30.7954 0.139881C34.0984 0.471293 37.3239 1.38827 40.3183 2.85523C44.153 4.73381 47.5072 7.46456 50.1243 10.8386C52.7415 14.2126 54.5523 18.1406 55.4182 22.322C56.0944 25.5871 56.1805 28.9393 55.68 32.221C55.4469 33.7497 53.9061 34.6516 52.4083 34.267C50.9105 33.8824 50.0267 32.3563 50.2215 30.8222C50.5323 28.3746 50.4375 25.886 49.9346 23.4576C49.2419 20.1125 47.7932 16.9701 45.6995 14.2709C43.6057 11.5716 40.9224 9.38705 37.8546 7.88418C35.6275 6.79314 33.2407 6.08238 30.7927 5.77477C29.2584 5.58197 28 4.3464 28 2.8Z" data-figma-gradient-fill="{&#34;type&#34;:&#34;GRADIENT_ANGULAR&#34;,&#34;stops&#34;:[{&#34;color&#34;:{&#34;r&#34;:0.30196079611778259,&#34;g&#34;:0.7294117808341980,&#34;b&#34;:0.53725492954254150,&#34;a&#34;:1.0},&#34;position&#34;:0.075000002980232239},{&#34;color&#34;:{&#34;r&#34;:0.0,&#34;g&#34;:0.61199998855590820,&#34;b&#34;:0.34099999070167542,&#34;a&#34;:1.0},&#34;position&#34;:0.49990001320838928},{&#34;color&#34;:{&#34;r&#34;:0.79981017112731934,&#34;g&#34;:0.92532551288604736,&#34;b&#34;:0.81142801046371460,&#34;a&#34;:1.0},&#34;position&#34;:0.50}],&#34;stopsVar&#34;:[{&#34;color&#34;:{&#34;r&#34;:0.30196079611778259,&#34;g&#34;:0.7294117808341980,&#34;b&#34;:0.53725492954254150,&#34;a&#34;:1.0},&#34;position&#34;:0.075000002980232239},{&#34;color&#34;:{&#34;r&#34;:0.0,&#34;g&#34;:0.61199998855590820,&#34;b&#34;:0.34099999070167542,&#34;a&#34;:1.0},&#34;position&#34;:0.49990001320838928},{&#34;color&#34;:{&#34;r&#34;:0.79981017112731934,&#34;g&#34;:0.92532551288604736,&#34;b&#34;:0.81142801046371460,&#34;a&#34;:1.0},&#34;position&#34;:0.50}],&#34;transform&#34;:{&#34;m00&#34;:3.4290112931175884e-15,&#34;m01&#34;:-56.0,&#34;m02&#34;:56.0,&#34;m10&#34;:56.0,&#34;m11&#34;:3.4290112931175884e-15,&#34;m12&#34;:-3.4290112931175884e-15},&#34;opacity&#34;:1.0,&#34;blendMode&#34;:&#34;NORMAL&#34;,&#34;visible&#34;:true}"/>
<path fill-rule="evenodd" clip-rule="evenodd" d="M26.3158 30.2549C28.4947 29.5046 30.9263 30.5551 31.7263 32.6359C32.5158 34.7067 31.4 37.0077 29.221 37.758C27.0316 38.5083 24.6105 37.4578 23.7895 35.387C23.0105 33.3062 24.1368 31.0052 26.3158 30.2549ZM29.7474 33.3161C29.3474 32.2857 28.1368 31.7555 27.0421 32.1357C25.9474 32.5058 25.3684 33.6563 25.7895 34.6967C26.1895 35.7271 27.4 36.2673 28.4947 35.8872C29.5789 35.507 30.1474 34.3566 29.7474 33.3161ZM36.3613 29.9458C36.8753 29.767 37.4382 30.0294 37.6318 30.538C37.8334 31.0677 37.5577 31.6594 37.0223 31.8456L32.9684 33.2562C32.9158 32.936 32.8316 32.6059 32.7053 32.2858C32.6211 32.0724 32.5275 31.8678 32.4214 31.6692L32.2526 31.3754L36.3613 29.9458ZM36.4631 24.5827L37.5433 27.3797C37.747 27.9071 37.4733 28.4983 36.9394 28.6843L31.5684 30.5551C30.7036 29.7147 29.5877 29.1813 28.3862 29.0333L28.0842 29.0044L27.5684 27.6839L36.4631 24.5827ZM21.8052 18C22.3664 18 22.8695 18.3459 23.0703 18.8699L26.9789 29.0645C26.6421 29.1145 26.2947 29.1945 25.9579 29.3146C25.7053 29.4046 25.4645 29.5059 25.2355 29.6269L25.0105 29.7547L21.3578 20.2737C21.2944 20.1093 21.1364 20.0008 20.9602 20.0008H19.0004C18.4479 20.0008 18 19.5529 18 19.0004C18 18.4479 18.4479 18 19.0004 18H21.8052ZM33.8147 20.2303C34.3229 20.0555 34.8784 20.3137 35.0725 20.8149L36.1775 23.6687L27.2105 26.7432L26.1342 23.971C25.9288 23.4419 26.2044 22.8481 26.7412 22.6635L33.8147 20.2303Z" fill="#346E78"/>
<defs>
<clipPath id="paint0_angular_5122_5434_clip_path"><path d="M56 28C56 32.2701 55.0234 36.4836 53.1448 40.3183C51.2662 44.153 48.5354 47.5072 45.1614 50.1243C41.7874 52.7415 37.8594 54.5523 33.678 55.4182C29.4967 56.2842 25.1726 56.1823 21.0367 55.1203L22.4293 49.6963C25.7381 50.5458 29.1973 50.6273 32.5424 49.9346C35.8875 49.2419 39.0299 47.7932 41.7291 45.6995C44.4283 43.6057 46.6129 40.9224 48.1158 37.8546C49.6187 34.7869 50.4 31.4161 50.4 28H56Z"/></clipPath><clipPath id="paint1_angular_5122_5434_clip_path"><path d="M28 56C23.7299 56 19.5164 55.0234 15.6817 53.1448C11.847 51.2662 8.49283 48.5354 5.87566 45.1614C3.25849 41.7874 1.44768 37.8594 0.581761 33.678C-0.28416 29.4967 -0.182259 25.1726 0.879671 21.0367L6.30374 22.4293C5.45419 25.7381 5.37267 29.1973 6.06541 32.5424C6.75815 35.8875 8.20679 39.0299 10.3005 41.7291C12.3943 44.4283 15.0776 46.6129 18.1454 48.1158C21.2131 49.6187 24.5839 50.4 28 50.4V56Z"/></clipPath><clipPath id="paint2_angular_5122_5434_clip_path"><path d="M2.8 28C1.2536 28 -0.0145241 26.7432 0.139828 25.2045C0.75195 19.1025 3.35551 13.3408 7.58888 8.83268C11.8222 4.3246 17.4091 1.3644 23.4607 0.370334C24.9866 0.119673 26.3206 1.30638 26.4177 2.84973C26.5148 4.39307 25.3363 5.7052 23.8171 5.99394C19.1885 6.87368 14.9288 9.19702 11.6711 12.6661C8.41338 16.1353 6.36209 20.5324 5.77472 25.2071C5.58194 26.7415 4.3464 28 2.8 28Z"/></clipPath><clipPath id="paint3_angular_5122_5434_clip_path"><path d="M28 2.8C28 1.2536 29.2567 -0.0145024 30.7954 0.139881C34.0984 0.471293 37.3239 1.38827 40.3183 2.85523C44.153 4.73381 47.5072 7.46456 50.1243 10.8386C52.7415 14.2126 54.5523 18.1406 55.4182 22.322C56.0944 25.5871 56.1805 28.9393 55.68 32.221C55.4469 33.7497 53.9061 34.6516 52.4083 34.267C50.9105 33.8824 50.0267 32.3563 50.2215 30.8222C50.5323 28.3746 50.4375 25.886 49.9346 23.4576C49.2419 20.1125 47.7932 16.9701 45.6995 14.2709C43.6057 11.5716 40.9224 9.38705 37.8546 7.88418C35.6275 6.79314 33.2407 6.08238 30.7927 5.77477C29.2584 5.58197 28 4.3464 28 2.8Z"/></clipPath></defs>
</svg>
