<svg width="56" height="57" viewBox="0 0 56 57" fill="none" xmlns="http://www.w3.org/2000/svg">
<path d="M0 28.5C3.47358e-07 24.5267 0.845636 20.5989 2.48071 16.9776C4.11578 13.3563 6.50285 10.1245 9.48327 7.49689C12.4637 4.86929 15.9692 2.90611 19.7669 1.73779C23.5645 0.569483 27.5674 0.222801 31.5093 0.720789L30.8075 6.27663C27.6539 5.87824 24.4516 6.15558 21.4135 7.09023C18.3754 8.02488 15.571 9.59543 13.1866 11.6975C10.8023 13.7996 8.89262 16.385 7.58457 19.2821C6.27651 22.1791 5.6 25.3213 5.6 28.5H0Z" fill="#7A7A7A" fill-opacity="0.18"/>
<g clip-path="url(#paint0_angular_5122_5055_clip_path)" data-figma-skip-parse="true"><g transform="matrix(0 0.028 -0.028 0 28 28.5)"><foreignObject x="-1035.71" y="-1035.71" width="2071.43" height="2071.43"><div xmlns="http://www.w3.org/1999/xhtml" style="background:conic-gradient(from 90deg,rgba(87, 187, 132, 1) 0deg,rgba(0, 156, 86, 1) 179.964deg,rgba(175, 219, 179, 1) 180deg,rgba(87, 187, 132, 1) 360deg);height:100%;width:100%;opacity:1"></div></foreignObject></g></g><path d="M56 28.5C56 32.6216 55.0901 36.6924 53.3352 40.4218C51.5802 44.1512 49.0236 47.4471 45.8479 50.0744C42.6721 52.7016 38.9555 54.5953 34.9633 55.6203C30.9712 56.6453 26.802 56.7764 22.7533 56.004L23.8027 50.5032C27.0416 51.1211 30.3769 51.0163 33.5706 50.1963C36.7644 49.3762 39.7377 47.8613 42.2783 45.7595C44.8189 43.6577 46.8642 41.0209 48.2681 38.0375C49.672 35.054 50.4 31.7973 50.4 28.5H56Z" data-figma-gradient-fill="{&#34;type&#34;:&#34;GRADIENT_ANGULAR&#34;,&#34;stops&#34;:[{&#34;color&#34;:{&#34;r&#34;:0.0,&#34;g&#34;:0.61199998855590820,&#34;b&#34;:0.34099999070167542,&#34;a&#34;:1.0},&#34;position&#34;:0.49990001320838928},{&#34;color&#34;:{&#34;r&#34;:0.68627452850341797,&#34;g&#34;:0.85882353782653809,&#34;b&#34;:0.70196080207824707,&#34;a&#34;:1.0},&#34;position&#34;:0.50}],&#34;stopsVar&#34;:[{&#34;color&#34;:{&#34;r&#34;:0.0,&#34;g&#34;:0.61199998855590820,&#34;b&#34;:0.34099999070167542,&#34;a&#34;:1.0},&#34;position&#34;:0.49990001320838928},{&#34;color&#34;:{&#34;r&#34;:0.68627452850341797,&#34;g&#34;:0.85882353782653809,&#34;b&#34;:0.70196080207824707,&#34;a&#34;:1.0},&#34;position&#34;:0.50}],&#34;transform&#34;:{&#34;m00&#34;:3.4290106578428780e-15,&#34;m01&#34;:-55.999992370605469,&#34;m02&#34;:55.999992370605469,&#34;m10&#34;:55.999992370605469,&#34;m11&#34;:3.4290106578428780e-15,&#34;m12&#34;:0.50},&#34;opacity&#34;:1.0,&#34;blendMode&#34;:&#34;NORMAL&#34;,&#34;visible&#34;:true}"/>
<g clip-path="url(#paint1_angular_5122_5055_clip_path)" data-figma-skip-parse="true"><g transform="matrix(0 0.028 -0.028 0 28 28.5)"><foreignObject x="-1035.71" y="-1035.71" width="2071.43" height="2071.43"><div xmlns="http://www.w3.org/1999/xhtml" style="background:conic-gradient(from 90deg,rgba(87, 187, 132, 1) 0deg,rgba(0, 156, 86, 1) 179.964deg,rgba(175, 219, 179, 1) 180deg,rgba(87, 187, 132, 1) 360deg);height:100%;width:100%;opacity:1"></div></foreignObject></g></g><path d="M28 53.7C28 55.2464 26.7433 56.5145 25.2046 56.3601C21.7552 56.014 18.3916 55.0294 15.2883 53.4482C11.3512 51.4421 7.94476 48.5328 5.34752 44.958C2.75028 41.3832 1.03596 37.2444 0.344726 32.8802C-0.200128 29.4401 -0.0971345 25.9369 0.639633 22.5493C0.96828 21.0382 2.56266 20.2349 4.03337 20.7128C5.50409 21.1906 6.29031 22.7693 5.99954 24.2881C5.51354 26.8267 5.46925 29.4374 5.87578 32.0041C6.42877 35.4956 7.80022 38.8065 9.87802 41.6664C11.9558 44.5262 14.6809 46.8537 17.8306 48.4585C20.1461 49.6383 22.6427 50.403 25.2072 50.7252C26.7416 50.918 28 52.1536 28 53.7Z" data-figma-gradient-fill="{&#34;type&#34;:&#34;GRADIENT_ANGULAR&#34;,&#34;stops&#34;:[{&#34;color&#34;:{&#34;r&#34;:0.0,&#34;g&#34;:0.61199998855590820,&#34;b&#34;:0.34099999070167542,&#34;a&#34;:1.0},&#34;position&#34;:0.49990001320838928},{&#34;color&#34;:{&#34;r&#34;:0.68627452850341797,&#34;g&#34;:0.85882353782653809,&#34;b&#34;:0.70196080207824707,&#34;a&#34;:1.0},&#34;position&#34;:0.50}],&#34;stopsVar&#34;:[{&#34;color&#34;:{&#34;r&#34;:0.0,&#34;g&#34;:0.61199998855590820,&#34;b&#34;:0.34099999070167542,&#34;a&#34;:1.0},&#34;position&#34;:0.49990001320838928},{&#34;color&#34;:{&#34;r&#34;:0.68627452850341797,&#34;g&#34;:0.85882353782653809,&#34;b&#34;:0.70196080207824707,&#34;a&#34;:1.0},&#34;position&#34;:0.50}],&#34;transform&#34;:{&#34;m00&#34;:4.9833226805598603e-15,&#34;m01&#34;:-55.999988555908203,&#34;m02&#34;:55.999988555908203,&#34;m10&#34;:55.999988555908203,&#34;m11&#34;:4.9833226805598603e-15,&#34;m12&#34;:0.50},&#34;opacity&#34;:1.0,&#34;blendMode&#34;:&#34;NORMAL&#34;,&#34;visible&#34;:true}"/>
<g clip-path="url(#paint2_angular_5122_5055_clip_path)" data-figma-skip-parse="true"><g transform="matrix(0 0.028 -0.028 0 28 28.5)"><foreignObject x="-1035.71" y="-1035.71" width="2071.43" height="2071.43"><div xmlns="http://www.w3.org/1999/xhtml" style="background:conic-gradient(from 90deg,rgba(87, 187, 132, 1) 0deg,rgba(0, 156, 86, 1) 179.964deg,rgba(175, 219, 179, 1) 180deg,rgba(87, 187, 132, 1) 360deg);height:100%;width:100%;opacity:1"></div></foreignObject></g></g><path d="M28 3.3C28 1.7536 29.2567 0.485498 30.7954 0.639882C34.2448 0.985985 37.6084 1.97059 40.7117 3.55182C44.6488 5.55786 48.0552 8.46721 50.6525 12.042C53.2497 15.6168 54.964 19.7555 55.6553 24.1198C56.2001 27.5599 56.0971 31.0631 55.3604 34.4507C55.0317 35.9617 53.4373 36.7651 51.9666 36.2872C50.4959 35.8094 49.7097 34.2307 50.0005 32.7119C50.4864 30.1733 50.5307 27.5626 50.1242 24.9959C49.5712 21.5044 48.1998 18.1934 46.122 15.3336C44.0442 12.4738 41.319 10.1463 38.1694 8.54145C35.8539 7.36164 33.3573 6.59702 30.7928 6.27477C29.2584 6.08197 28 4.8464 28 3.3Z" data-figma-gradient-fill="{&#34;type&#34;:&#34;GRADIENT_ANGULAR&#34;,&#34;stops&#34;:[{&#34;color&#34;:{&#34;r&#34;:0.0,&#34;g&#34;:0.61199998855590820,&#34;b&#34;:0.34099999070167542,&#34;a&#34;:1.0},&#34;position&#34;:0.49990001320838928},{&#34;color&#34;:{&#34;r&#34;:0.68627452850341797,&#34;g&#34;:0.85882353782653809,&#34;b&#34;:0.70196080207824707,&#34;a&#34;:1.0},&#34;position&#34;:0.50}],&#34;stopsVar&#34;:[{&#34;color&#34;:{&#34;r&#34;:0.0,&#34;g&#34;:0.61199998855590820,&#34;b&#34;:0.34099999070167542,&#34;a&#34;:1.0},&#34;position&#34;:0.49990001320838928},{&#34;color&#34;:{&#34;r&#34;:0.68627452850341797,&#34;g&#34;:0.85882353782653809,&#34;b&#34;:0.70196080207824707,&#34;a&#34;:1.0},&#34;position&#34;:0.50}],&#34;transform&#34;:{&#34;m00&#34;:3.4290106578428780e-15,&#34;m01&#34;:-55.999992370605469,&#34;m02&#34;:55.999992370605469,&#34;m10&#34;:55.999992370605469,&#34;m11&#34;:3.4290106578428780e-15,&#34;m12&#34;:0.50},&#34;opacity&#34;:1.0,&#34;blendMode&#34;:&#34;NORMAL&#34;,&#34;visible&#34;:true}"/>
<g clip-path="url(#paint3_angular_5122_5055_clip_path)" data-figma-skip-parse="true"><g transform="matrix(0 0.028 -0.028 0 28 28.5)"><foreignObject x="-1035.71" y="-1035.71" width="2071.43" height="2071.43"><div xmlns="http://www.w3.org/1999/xhtml" style="background:conic-gradient(from 90deg,rgba(87, 187, 132, 1) 0deg,rgba(0, 156, 86, 1) 179.964deg,rgba(175, 219, 179, 1) 180deg,rgba(87, 187, 132, 1) 360deg);height:100%;width:100%;opacity:1"></div></foreignObject></g></g><path d="M28 3.3C28 1.7536 29.2567 0.485498 30.7954 0.639882C34.2448 0.985985 37.6084 1.97059 40.7117 3.55182C44.6488 5.55786 48.0552 8.46721 50.6525 12.042C53.2497 15.6168 54.964 19.7555 55.6553 24.1198C56.2001 27.5599 56.0971 31.0631 55.3604 34.4507C55.0317 35.9617 53.4373 36.7651 51.9666 36.2872C50.4959 35.8094 49.7097 34.2307 50.0004 32.7119C50.4864 30.1733 50.5307 27.5626 50.1242 24.9959C49.5712 21.5044 48.1998 18.1934 46.122 15.3336C44.0442 12.4738 41.319 10.1463 38.1694 8.54145C35.8539 7.36164 33.3573 6.59702 30.7927 6.27477C29.2584 6.08197 28 4.8464 28 3.3Z" data-figma-gradient-fill="{&#34;type&#34;:&#34;GRADIENT_ANGULAR&#34;,&#34;stops&#34;:[{&#34;color&#34;:{&#34;r&#34;:0.0,&#34;g&#34;:0.61199998855590820,&#34;b&#34;:0.34099999070167542,&#34;a&#34;:1.0},&#34;position&#34;:0.49990001320838928},{&#34;color&#34;:{&#34;r&#34;:0.68627452850341797,&#34;g&#34;:0.85882353782653809,&#34;b&#34;:0.70196080207824707,&#34;a&#34;:1.0},&#34;position&#34;:0.50}],&#34;stopsVar&#34;:[{&#34;color&#34;:{&#34;r&#34;:0.0,&#34;g&#34;:0.61199998855590820,&#34;b&#34;:0.34099999070167542,&#34;a&#34;:1.0},&#34;position&#34;:0.49990001320838928},{&#34;color&#34;:{&#34;r&#34;:0.68627452850341797,&#34;g&#34;:0.85882353782653809,&#34;b&#34;:0.70196080207824707,&#34;a&#34;:1.0},&#34;position&#34;:0.50}],&#34;transform&#34;:{&#34;m00&#34;:3.4290104460846411e-15,&#34;m01&#34;:-55.999988555908203,&#34;m02&#34;:55.999988555908203,&#34;m10&#34;:55.999988555908203,&#34;m11&#34;:3.4290104460846411e-15,&#34;m12&#34;:0.50},&#34;opacity&#34;:1.0,&#34;blendMode&#34;:&#34;NORMAL&#34;,&#34;visible&#34;:true}"/>
<path fill-rule="evenodd" clip-rule="evenodd" d="M18.0345 26.5L16.7305 33.5H19.0262C19.0262 31.8431 20.3635 30.5 22.0131 30.5C23.6627 30.5 25 31.8431 25 33.5H31C31 31.8431 32.3432 30.5 34 30.5C35.6569 30.5 37 31.8431 37 33.5H39L39.9986 28.0779C40.1205 27.4161 39.6884 26.7792 39.0284 26.6478L37.1254 26.2692L38.0972 20.952C38.2354 20.1962 37.6549 19.5 36.8865 19.5H34.0324H19.3385L18.4071 24.5H28.5L29 22L33 25.5L27.5 29L28 26.5H18.0345ZM22 35.5C23.1046 35.5 24 34.6046 24 33.5C24 32.3954 23.1046 31.5 22 31.5C20.8955 31.5 20 32.3954 20 33.5C20 34.6046 20.8955 35.5 22 35.5ZM36 33.5C36 34.6046 35.1046 35.5 34 35.5C32.8955 35.5 32 34.6046 32 33.5C32 32.3954 32.8955 31.5 34 31.5C35.1046 31.5 36 32.3954 36 33.5Z" fill="#346E78"/>
<defs>
<clipPath id="paint0_angular_5122_5055_clip_path"><path d="M56 28.5C56 32.6216 55.0901 36.6924 53.3352 40.4218C51.5802 44.1512 49.0236 47.4471 45.8479 50.0744C42.6721 52.7016 38.9555 54.5953 34.9633 55.6203C30.9712 56.6453 26.802 56.7764 22.7533 56.004L23.8027 50.5032C27.0416 51.1211 30.3769 51.0163 33.5706 50.1963C36.7644 49.3762 39.7377 47.8613 42.2783 45.7595C44.8189 43.6577 46.8642 41.0209 48.2681 38.0375C49.672 35.054 50.4 31.7973 50.4 28.5H56Z"/></clipPath><clipPath id="paint1_angular_5122_5055_clip_path"><path d="M28 53.7C28 55.2464 26.7433 56.5145 25.2046 56.3601C21.7552 56.014 18.3916 55.0294 15.2883 53.4482C11.3512 51.4421 7.94476 48.5328 5.34752 44.958C2.75028 41.3832 1.03596 37.2444 0.344726 32.8802C-0.200128 29.4401 -0.0971345 25.9369 0.639633 22.5493C0.96828 21.0382 2.56266 20.2349 4.03337 20.7128C5.50409 21.1906 6.29031 22.7693 5.99954 24.2881C5.51354 26.8267 5.46925 29.4374 5.87578 32.0041C6.42877 35.4956 7.80022 38.8065 9.87802 41.6664C11.9558 44.5262 14.6809 46.8537 17.8306 48.4585C20.1461 49.6383 22.6427 50.403 25.2072 50.7252C26.7416 50.918 28 52.1536 28 53.7Z"/></clipPath><clipPath id="paint2_angular_5122_5055_clip_path"><path d="M28 3.3C28 1.7536 29.2567 0.485498 30.7954 0.639882C34.2448 0.985985 37.6084 1.97059 40.7117 3.55182C44.6488 5.55786 48.0552 8.46721 50.6525 12.042C53.2497 15.6168 54.964 19.7555 55.6553 24.1198C56.2001 27.5599 56.0971 31.0631 55.3604 34.4507C55.0317 35.9617 53.4373 36.7651 51.9666 36.2872C50.4959 35.8094 49.7097 34.2307 50.0005 32.7119C50.4864 30.1733 50.5307 27.5626 50.1242 24.9959C49.5712 21.5044 48.1998 18.1934 46.122 15.3336C44.0442 12.4738 41.319 10.1463 38.1694 8.54145C35.8539 7.36164 33.3573 6.59702 30.7928 6.27477C29.2584 6.08197 28 4.8464 28 3.3Z"/></clipPath><clipPath id="paint3_angular_5122_5055_clip_path"><path d="M28 3.3C28 1.7536 29.2567 0.485498 30.7954 0.639882C34.2448 0.985985 37.6084 1.97059 40.7117 3.55182C44.6488 5.55786 48.0552 8.46721 50.6525 12.042C53.2497 15.6168 54.964 19.7555 55.6553 24.1198C56.2001 27.5599 56.0971 31.0631 55.3604 34.4507C55.0317 35.9617 53.4373 36.7651 51.9666 36.2872C50.4959 35.8094 49.7097 34.2307 50.0004 32.7119C50.4864 30.1733 50.5307 27.5626 50.1242 24.9959C49.5712 21.5044 48.1998 18.1934 46.122 15.3336C44.0442 12.4738 41.319 10.1463 38.1694 8.54145C35.8539 7.36164 33.3573 6.59702 30.7927 6.27477C29.2584 6.08197 28 4.8464 28 3.3Z"/></clipPath></defs>
</svg>
