<svg width="56" height="56" viewBox="0 0 56 56" fill="none" xmlns="http://www.w3.org/2000/svg">
<path d="M56 28C56 12.536 43.464 -6.24234e-07 28 -5.71792e-07C12.536 -5.1935e-07 -1.47397e-07 12.536 -9.49551e-08 28C-4.25128e-08 43.464 12.536 56 28 56C43.464 56 56 43.464 56 28ZM5.6 28C5.6 15.6288 15.6288 5.6 28 5.6C40.3712 5.6 50.4 15.6288 50.4 28C50.4 40.3712 40.3712 50.4 28 50.4C15.6288 50.4 5.6 40.3712 5.6 28Z" fill="#00AB61"/>
<path fill-rule="evenodd" clip-rule="evenodd" d="M36.5416 18.9933H33.3918L32.711 22.9955H37.0809L37.5294 20.1489C37.6251 19.5421 37.156 18.9933 36.5416 18.9933ZM21.726 19C21.1853 19 20.7257 19.3949 20.6442 19.9293L18.0738 36.7933C17.9728 37.4556 18.4855 38.0524 19.1555 38.0524C19.6961 38.0524 20.1558 37.6575 20.2372 37.123L22.8077 20.2591C22.9087 19.5967 22.396 19 21.726 19ZM29.0002 19H24.6805L23.9996 23.0023H28.3695L29.0002 19ZM23.3905 27.0074H27.7102L27.0795 31.0097H22.7096L23.3905 27.0074ZM36.3969 27.0053H32.0772L31.3964 31.0076H34.9115C35.4037 31.0076 35.8227 30.6494 35.8993 30.1632L36.3969 27.0053ZM28.3837 23H32.7034L32.0727 27.0023H27.7028L28.3837 23Z" fill="#346E78"/>
</svg>
