<svg width="56" height="57" viewBox="0 0 56 57" fill="none" xmlns="http://www.w3.org/2000/svg">
<path d="M28 56.5C20.8783 56.5 14.0242 53.7863 8.83268 48.9111C3.64117 44.036 0.502427 37.3658 0.0552515 30.2581L5.6442 29.9065C6.00194 35.5926 8.51294 40.9288 12.6661 44.8289C16.8193 48.729 22.3026 50.9 28 50.9V56.5Z" fill="#7A7A7A" fill-opacity="0.18"/>
<g clip-path="url(#paint0_angular_5122_4613_clip_path)" data-figma-skip-parse="true"><g transform="matrix(0 0.028 -0.028 0 28 28.5)"><foreignObject x="-1035.71" y="-1035.71" width="2071.43" height="2071.43"><div xmlns="http://www.w3.org/1999/xhtml" style="background:conic-gradient(from 90deg,rgba(87, 187, 132, 1) 0deg,rgba(0, 156, 86, 1) 179.964deg,rgba(175, 219, 179, 1) 180deg,rgba(87, 187, 132, 1) 360deg);height:100%;width:100%;opacity:1"></div></foreignObject></g></g><path d="M53.2 28.5C54.7464 28.5 56.0145 29.7567 55.8601 31.2954C55.514 34.7448 54.5294 38.1084 52.9482 41.2117C50.9421 45.1488 48.0328 48.5552 44.458 51.1525C40.8832 53.7497 36.7444 55.464 32.3802 56.1553C28.9401 56.7001 25.4369 56.5971 22.0493 55.8604C20.5382 55.5317 19.7349 53.9373 20.2128 52.4666C20.6906 50.9959 22.2693 50.2097 23.7881 50.5005C26.3267 50.9864 28.9374 51.0307 31.5041 50.6242C34.9956 50.0712 38.3065 48.6998 41.1664 46.622C44.0262 44.5442 46.3537 41.819 47.9585 38.6694C49.1383 36.3539 49.903 33.8573 50.2252 31.2928C50.418 29.7584 51.6536 28.5 53.2 28.5Z" data-figma-gradient-fill="{&#34;type&#34;:&#34;GRADIENT_ANGULAR&#34;,&#34;stops&#34;:[{&#34;color&#34;:{&#34;r&#34;:0.0,&#34;g&#34;:0.61199998855590820,&#34;b&#34;:0.34099999070167542,&#34;a&#34;:1.0},&#34;position&#34;:0.49990001320838928},{&#34;color&#34;:{&#34;r&#34;:0.68627452850341797,&#34;g&#34;:0.85882353782653809,&#34;b&#34;:0.70196080207824707,&#34;a&#34;:1.0},&#34;position&#34;:0.50}],&#34;stopsVar&#34;:[{&#34;color&#34;:{&#34;r&#34;:0.0,&#34;g&#34;:0.61199998855590820,&#34;b&#34;:0.34099999070167542,&#34;a&#34;:1.0},&#34;position&#34;:0.49990001320838928},{&#34;color&#34;:{&#34;r&#34;:0.68627452850341797,&#34;g&#34;:0.85882353782653809,&#34;b&#34;:0.70196080207824707,&#34;a&#34;:1.0},&#34;position&#34;:0.50}],&#34;transform&#34;:{&#34;m00&#34;:3.4290106578428780e-15,&#34;m01&#34;:-55.999992370605469,&#34;m02&#34;:55.999992370605469,&#34;m10&#34;:55.999992370605469,&#34;m11&#34;:3.4290106578428780e-15,&#34;m12&#34;:0.50},&#34;opacity&#34;:1.0,&#34;blendMode&#34;:&#34;NORMAL&#34;,&#34;visible&#34;:true}"/>
<path d="M0 28.5C3.47358e-07 24.5267 0.845636 20.5989 2.48071 16.9776C4.11578 13.3563 6.50285 10.1245 9.48327 7.49689C12.4637 4.86929 15.9692 2.90611 19.7669 1.73779C23.5645 0.569483 27.5674 0.222801 31.5093 0.720789L30.8075 6.27663C27.6539 5.87824 24.4516 6.15558 21.4135 7.09023C18.3754 8.02488 15.571 9.59543 13.1866 11.6975C10.8023 13.7996 8.89262 16.385 7.58457 19.2821C6.27651 22.1791 5.6 25.3213 5.6 28.5H0Z" fill="#7A7A7A" fill-opacity="0.18"/>
<g clip-path="url(#paint1_angular_5122_4613_clip_path)" data-figma-skip-parse="true"><g transform="matrix(0 0.028 -0.028 0 28 28.5)"><foreignObject x="-1035.71" y="-1035.71" width="2071.43" height="2071.43"><div xmlns="http://www.w3.org/1999/xhtml" style="background:conic-gradient(from 90deg,rgba(87, 187, 132, 1) 0deg,rgba(0, 156, 86, 1) 179.964deg,rgba(175, 219, 179, 1) 180deg,rgba(87, 187, 132, 1) 360deg);height:100%;width:100%;opacity:1"></div></foreignObject></g></g><path d="M28 3.3C28 1.7536 29.2567 0.485498 30.7954 0.639882C34.2448 0.985985 37.6084 1.97059 40.7117 3.55182C44.6488 5.55786 48.0552 8.46721 50.6525 12.042C53.2497 15.6168 54.964 19.7555 55.6553 24.1198C56.2001 27.5599 56.0971 31.0631 55.3604 34.4507C55.0317 35.9617 53.4373 36.7651 51.9666 36.2872C50.4959 35.8094 49.7097 34.2307 50.0005 32.7119C50.4864 30.1733 50.5307 27.5626 50.1242 24.9959C49.5712 21.5044 48.1998 18.1934 46.122 15.3336C44.0442 12.4738 41.319 10.1463 38.1694 8.54145C35.8539 7.36164 33.3573 6.59702 30.7928 6.27477C29.2584 6.08197 28 4.8464 28 3.3Z" data-figma-gradient-fill="{&#34;type&#34;:&#34;GRADIENT_ANGULAR&#34;,&#34;stops&#34;:[{&#34;color&#34;:{&#34;r&#34;:0.0,&#34;g&#34;:0.61199998855590820,&#34;b&#34;:0.34099999070167542,&#34;a&#34;:1.0},&#34;position&#34;:0.49990001320838928},{&#34;color&#34;:{&#34;r&#34;:0.68627452850341797,&#34;g&#34;:0.85882353782653809,&#34;b&#34;:0.70196080207824707,&#34;a&#34;:1.0},&#34;position&#34;:0.50}],&#34;stopsVar&#34;:[{&#34;color&#34;:{&#34;r&#34;:0.0,&#34;g&#34;:0.61199998855590820,&#34;b&#34;:0.34099999070167542,&#34;a&#34;:1.0},&#34;position&#34;:0.49990001320838928},{&#34;color&#34;:{&#34;r&#34;:0.68627452850341797,&#34;g&#34;:0.85882353782653809,&#34;b&#34;:0.70196080207824707,&#34;a&#34;:1.0},&#34;position&#34;:0.50}],&#34;transform&#34;:{&#34;m00&#34;:1.8746986351258956e-15,&#34;m01&#34;:-55.999992370605469,&#34;m02&#34;:55.999992370605469,&#34;m10&#34;:55.999992370605469,&#34;m11&#34;:1.8746986351258956e-15,&#34;m12&#34;:0.50},&#34;opacity&#34;:1.0,&#34;blendMode&#34;:&#34;NORMAL&#34;,&#34;visible&#34;:true}"/>
<path fill-rule="evenodd" clip-rule="evenodd" d="M22.8698 21.4484C22.6904 20.529 22.3258 19.7518 21.7758 19.1167C20.9597 18.1742 20.0344 17.4297 19 16.8833C20.405 16.3722 21.905 16.3722 23.5 16.8833C24.8012 17.3002 25.9282 18.1534 26.881 19.4428L28.1557 18.8054C28.2453 18.7606 28.3463 18.7438 28.4456 18.757C28.7193 18.7936 28.9115 19.0452 28.8749 19.3189L28.083 25.2436C28.0781 25.2806 28.069 25.3169 28.056 25.3519C27.9595 25.6107 27.6716 25.7423 27.4128 25.6458L21.0774 23.2848C20.9588 23.2406 20.8614 23.1531 20.8048 23.0399C20.6813 22.7929 20.7814 22.4926 21.0284 22.3691L22.8698 21.4484ZM30.0463 20.5232L36.8944 23.9472C37.572 24.286 38 24.9785 38 25.7361V32.2639C38 33.0215 37.572 33.714 36.8944 34.0528L28.8944 38.0528C28.3314 38.3343 27.6686 38.3343 27.1056 38.0528L19.1056 34.0528C18.428 33.714 18 33.0215 18 32.2639V25.7361C18 24.9785 18.428 24.286 19.1056 23.9472L19.4825 23.7587C20.0141 23.9986 20.76 24.2923 21.7202 24.6399L20.8944 25.0528C20.7977 25.1012 20.7192 25.1796 20.6708 25.2764C20.5473 25.5234 20.6474 25.8237 20.8944 25.9472L27.5528 29.2764C27.8343 29.4172 28.1657 29.4172 28.4472 29.2764L35.1056 25.9472C35.2023 25.8988 35.2808 25.8204 35.3292 25.7236C35.4527 25.4766 35.3526 25.1763 35.1056 25.0528L29.8109 22.4055L30.0463 20.5232ZM31.5144 31.3028C31.1969 31.4791 31 31.8137 31 32.1769V32.5885C31 32.6885 31.0255 32.7869 31.074 32.8743C31.2319 33.1583 31.5901 33.2607 31.8742 33.1029L34.9856 31.3743C35.3031 31.1979 35.5 30.8633 35.5 30.5001V30.0885C35.5 29.9885 35.4745 29.8902 35.426 29.8028C35.2681 29.5187 34.9099 29.4163 34.6258 29.5742L31.5144 31.3028Z" fill="#346E78"/>
<defs>
<clipPath id="paint0_angular_5122_4613_clip_path"><path d="M53.2 28.5C54.7464 28.5 56.0145 29.7567 55.8601 31.2954C55.514 34.7448 54.5294 38.1084 52.9482 41.2117C50.9421 45.1488 48.0328 48.5552 44.458 51.1525C40.8832 53.7497 36.7444 55.464 32.3802 56.1553C28.9401 56.7001 25.4369 56.5971 22.0493 55.8604C20.5382 55.5317 19.7349 53.9373 20.2128 52.4666C20.6906 50.9959 22.2693 50.2097 23.7881 50.5005C26.3267 50.9864 28.9374 51.0307 31.5041 50.6242C34.9956 50.0712 38.3065 48.6998 41.1664 46.622C44.0262 44.5442 46.3537 41.819 47.9585 38.6694C49.1383 36.3539 49.903 33.8573 50.2252 31.2928C50.418 29.7584 51.6536 28.5 53.2 28.5Z"/></clipPath><clipPath id="paint1_angular_5122_4613_clip_path"><path d="M28 3.3C28 1.7536 29.2567 0.485498 30.7954 0.639882C34.2448 0.985985 37.6084 1.97059 40.7117 3.55182C44.6488 5.55786 48.0552 8.46721 50.6525 12.042C53.2497 15.6168 54.964 19.7555 55.6553 24.1198C56.2001 27.5599 56.0971 31.0631 55.3604 34.4507C55.0317 35.9617 53.4373 36.7651 51.9666 36.2872C50.4959 35.8094 49.7097 34.2307 50.0005 32.7119C50.4864 30.1733 50.5307 27.5626 50.1242 24.9959C49.5712 21.5044 48.1998 18.1934 46.122 15.3336C44.0442 12.4738 41.319 10.1463 38.1694 8.54145C35.8539 7.36164 33.3573 6.59702 30.7928 6.27477C29.2584 6.08197 28 4.8464 28 3.3Z"/></clipPath></defs>
</svg>
