<svg width="56" height="56" viewBox="0 0 56 56" fill="none" xmlns="http://www.w3.org/2000/svg">
<path d="M0 28C3.47358e-07 24.0267 0.845636 20.0989 2.48071 16.4776C4.11578 12.8563 6.50285 9.62448 9.48327 6.99689C12.4637 4.36929 15.9692 2.40611 19.7669 1.23779C23.5645 0.0694827 27.5674 -0.277199 31.5093 0.220789L30.8075 5.77663C27.6539 5.37824 24.4516 5.65558 21.4135 6.59023C18.3754 7.52488 15.571 9.09543 13.1866 11.1975C10.8023 13.2996 8.89262 15.885 7.58457 18.7821C6.27651 21.6791 5.6 24.8213 5.6 28H0Z" fill="#7A7A7A" fill-opacity="0.18"/>
<g clip-path="url(#paint0_angular_5122_5243_clip_path)" data-figma-skip-parse="true"><g transform="matrix(0 0.028 -0.028 0 28 28)"><foreignObject x="-1035.71" y="-1035.71" width="2071.43" height="2071.43"><div xmlns="http://www.w3.org/1999/xhtml" style="background:conic-gradient(from 90deg,rgba(245, 138, 32, 1) 0deg,rgba(239, 92, 43, 1) 179.964deg,rgba(250, 185, 21, 1) 180deg,rgba(245, 138, 32, 1) 360deg);height:100%;width:100%;opacity:1"></div></foreignObject></g></g><path d="M56 28C56 32.1216 55.0901 36.1924 53.3352 39.9218C51.5802 43.6512 49.0236 46.9471 45.8479 49.5744C42.6721 52.2016 38.9555 54.0953 34.9633 55.1203C30.9712 56.1453 26.802 56.2764 22.7533 55.504L23.8027 50.0032C27.0416 50.6211 30.3769 50.5163 33.5706 49.6963C36.7644 48.8762 39.7377 47.3613 42.2783 45.2595C44.8189 43.1577 46.8642 40.5209 48.2681 37.5375C49.672 34.554 50.4 31.2973 50.4 28H56Z" data-figma-gradient-fill="{&#34;type&#34;:&#34;GRADIENT_ANGULAR&#34;,&#34;stops&#34;:[{&#34;color&#34;:{&#34;r&#34;:0.94099998474121094,&#34;g&#34;:0.36100000143051147,&#34;b&#34;:0.16899999976158142,&#34;a&#34;:1.0},&#34;position&#34;:0.49990001320838928},{&#34;color&#34;:{&#34;r&#34;:0.98400002717971802,&#34;g&#34;:0.72899997234344482,&#34;b&#34;:0.086000002920627594,&#34;a&#34;:1.0},&#34;position&#34;:0.50}],&#34;stopsVar&#34;:[{&#34;color&#34;:{&#34;r&#34;:0.94099998474121094,&#34;g&#34;:0.36100000143051147,&#34;b&#34;:0.16899999976158142,&#34;a&#34;:1.0},&#34;position&#34;:0.49990001320838928},{&#34;color&#34;:{&#34;r&#34;:0.98400002717971802,&#34;g&#34;:0.72899997234344482,&#34;b&#34;:0.086000002920627594,&#34;a&#34;:1.0},&#34;position&#34;:0.50}],&#34;transform&#34;:{&#34;m00&#34;:3.4290106578428780e-15,&#34;m01&#34;:-55.999992370605469,&#34;m02&#34;:55.999992370605469,&#34;m10&#34;:55.999992370605469,&#34;m11&#34;:3.4290106578428780e-15,&#34;m12&#34;:-3.4290106578428780e-15},&#34;opacity&#34;:1.0,&#34;blendMode&#34;:&#34;NORMAL&#34;,&#34;visible&#34;:true}"/>
<g clip-path="url(#paint1_angular_5122_5243_clip_path)" data-figma-skip-parse="true"><g transform="matrix(0 0.028 -0.028 0 28 28)"><foreignObject x="-1035.71" y="-1035.71" width="2071.43" height="2071.43"><div xmlns="http://www.w3.org/1999/xhtml" style="background:conic-gradient(from 90deg,rgba(245, 138, 32, 1) 0deg,rgba(239, 92, 43, 1) 179.964deg,rgba(250, 185, 21, 1) 180deg,rgba(245, 138, 32, 1) 360deg);height:100%;width:100%;opacity:1"></div></foreignObject></g></g><path d="M28 53.2C28 54.7464 26.7433 56.0145 25.2046 55.8601C21.7552 55.514 18.3916 54.5294 15.2883 52.9482C11.3512 50.9421 7.94476 48.0328 5.34752 44.458C2.75028 40.8832 1.03596 36.7444 0.344726 32.3802C-0.200128 28.9401 -0.0971345 25.4369 0.639633 22.0493C0.96828 20.5382 2.56266 19.7349 4.03337 20.2128C5.50409 20.6906 6.29031 22.2693 5.99954 23.7881C5.51354 26.3267 5.46925 28.9374 5.87578 31.5041C6.42877 34.9956 7.80022 38.3065 9.87802 41.1664C11.9558 44.0262 14.6809 46.3537 17.8306 47.9585C20.1461 49.1383 22.6427 49.903 25.2072 50.2252C26.7416 50.418 28 51.6536 28 53.2Z" data-figma-gradient-fill="{&#34;type&#34;:&#34;GRADIENT_ANGULAR&#34;,&#34;stops&#34;:[{&#34;color&#34;:{&#34;r&#34;:0.94099998474121094,&#34;g&#34;:0.36100000143051147,&#34;b&#34;:0.16899999976158142,&#34;a&#34;:1.0},&#34;position&#34;:0.49990001320838928},{&#34;color&#34;:{&#34;r&#34;:0.98400002717971802,&#34;g&#34;:0.72899997234344482,&#34;b&#34;:0.086000002920627594,&#34;a&#34;:1.0},&#34;position&#34;:0.50}],&#34;stopsVar&#34;:[{&#34;color&#34;:{&#34;r&#34;:0.94099998474121094,&#34;g&#34;:0.36100000143051147,&#34;b&#34;:0.16899999976158142,&#34;a&#34;:1.0},&#34;position&#34;:0.49990001320838928},{&#34;color&#34;:{&#34;r&#34;:0.98400002717971802,&#34;g&#34;:0.72899997234344482,&#34;b&#34;:0.086000002920627594,&#34;a&#34;:1.0},&#34;position&#34;:0.50}],&#34;transform&#34;:{&#34;m00&#34;:4.9833226805598603e-15,&#34;m01&#34;:-55.999988555908203,&#34;m02&#34;:55.999988555908203,&#34;m10&#34;:55.999988555908203,&#34;m11&#34;:4.9833226805598603e-15,&#34;m12&#34;:-4.9833226805598603e-15},&#34;opacity&#34;:1.0,&#34;blendMode&#34;:&#34;NORMAL&#34;,&#34;visible&#34;:true}"/>
<g clip-path="url(#paint2_angular_5122_5243_clip_path)" data-figma-skip-parse="true"><g transform="matrix(0 0.028 -0.028 0 28 28)"><foreignObject x="-1035.71" y="-1035.71" width="2071.43" height="2071.43"><div xmlns="http://www.w3.org/1999/xhtml" style="background:conic-gradient(from 90deg,rgba(245, 138, 32, 1) 0deg,rgba(239, 92, 43, 1) 179.964deg,rgba(250, 185, 21, 1) 180deg,rgba(245, 138, 32, 1) 360deg);height:100%;width:100%;opacity:1"></div></foreignObject></g></g><path d="M28 2.8C28 1.2536 29.2567 -0.0145023 30.7954 0.139882C34.2448 0.485985 37.6084 1.47059 40.7117 3.05182C44.6488 5.05786 48.0552 7.96721 50.6525 11.542C53.2497 15.1168 54.964 19.2555 55.6553 23.6198C56.2001 27.0599 56.0971 30.5631 55.3604 33.9507C55.0317 35.4617 53.4373 36.2651 51.9666 35.7872C50.4959 35.3094 49.7097 33.7307 50.0005 32.2119C50.4864 29.6733 50.5307 27.0626 50.1242 24.4959C49.5712 21.0044 48.1998 17.6934 46.122 14.8336C44.0442 11.9738 41.319 9.64629 38.1694 8.04145C35.8539 6.86164 33.3573 6.09702 30.7928 5.77477C29.2584 5.58197 28 4.3464 28 2.8Z" data-figma-gradient-fill="{&#34;type&#34;:&#34;GRADIENT_ANGULAR&#34;,&#34;stops&#34;:[{&#34;color&#34;:{&#34;r&#34;:0.94099998474121094,&#34;g&#34;:0.36100000143051147,&#34;b&#34;:0.16899999976158142,&#34;a&#34;:1.0},&#34;position&#34;:0.49990001320838928},{&#34;color&#34;:{&#34;r&#34;:0.98400002717971802,&#34;g&#34;:0.72899997234344482,&#34;b&#34;:0.086000002920627594,&#34;a&#34;:1.0},&#34;position&#34;:0.50}],&#34;stopsVar&#34;:[{&#34;color&#34;:{&#34;r&#34;:0.94099998474121094,&#34;g&#34;:0.36100000143051147,&#34;b&#34;:0.16899999976158142,&#34;a&#34;:1.0},&#34;position&#34;:0.49990001320838928},{&#34;color&#34;:{&#34;r&#34;:0.98400002717971802,&#34;g&#34;:0.72899997234344482,&#34;b&#34;:0.086000002920627594,&#34;a&#34;:1.0},&#34;position&#34;:0.50}],&#34;transform&#34;:{&#34;m00&#34;:3.4290106578428780e-15,&#34;m01&#34;:-55.999992370605469,&#34;m02&#34;:55.999992370605469,&#34;m10&#34;:55.999992370605469,&#34;m11&#34;:3.4290106578428780e-15,&#34;m12&#34;:-3.4290106578428780e-15},&#34;opacity&#34;:1.0,&#34;blendMode&#34;:&#34;NORMAL&#34;,&#34;visible&#34;:true}"/>
<g clip-path="url(#paint3_angular_5122_5243_clip_path)" data-figma-skip-parse="true"><g transform="matrix(0 0.028 -0.028 0 28 28)"><foreignObject x="-1035.71" y="-1035.71" width="2071.43" height="2071.43"><div xmlns="http://www.w3.org/1999/xhtml" style="background:conic-gradient(from 90deg,rgba(245, 138, 32, 1) 0deg,rgba(239, 92, 43, 1) 179.964deg,rgba(250, 185, 21, 1) 180deg,rgba(245, 138, 32, 1) 360deg);height:100%;width:100%;opacity:1"></div></foreignObject></g></g><path d="M28 2.8C28 1.2536 29.2567 -0.0145023 30.7954 0.139882C34.2448 0.485985 37.6084 1.47059 40.7117 3.05182C44.6488 5.05786 48.0552 7.96721 50.6525 11.542C53.2497 15.1168 54.964 19.2555 55.6553 23.6198C56.2001 27.0599 56.0971 30.5631 55.3604 33.9507C55.0317 35.4617 53.4373 36.2651 51.9666 35.7872C50.4959 35.3094 49.7097 33.7307 50.0004 32.2119C50.4864 29.6733 50.5307 27.0626 50.1242 24.4959C49.5712 21.0044 48.1998 17.6934 46.122 14.8336C44.0442 11.9738 41.319 9.64629 38.1694 8.04145C35.8539 6.86164 33.3573 6.09702 30.7927 5.77477C29.2584 5.58197 28 4.3464 28 2.8Z" data-figma-gradient-fill="{&#34;type&#34;:&#34;GRADIENT_ANGULAR&#34;,&#34;stops&#34;:[{&#34;color&#34;:{&#34;r&#34;:0.94099998474121094,&#34;g&#34;:0.36100000143051147,&#34;b&#34;:0.16899999976158142,&#34;a&#34;:1.0},&#34;position&#34;:0.49990001320838928},{&#34;color&#34;:{&#34;r&#34;:0.98400002717971802,&#34;g&#34;:0.72899997234344482,&#34;b&#34;:0.086000002920627594,&#34;a&#34;:1.0},&#34;position&#34;:0.50}],&#34;stopsVar&#34;:[{&#34;color&#34;:{&#34;r&#34;:0.94099998474121094,&#34;g&#34;:0.36100000143051147,&#34;b&#34;:0.16899999976158142,&#34;a&#34;:1.0},&#34;position&#34;:0.49990001320838928},{&#34;color&#34;:{&#34;r&#34;:0.98400002717971802,&#34;g&#34;:0.72899997234344482,&#34;b&#34;:0.086000002920627594,&#34;a&#34;:1.0},&#34;position&#34;:0.50}],&#34;transform&#34;:{&#34;m00&#34;:3.4290104460846411e-15,&#34;m01&#34;:-55.999988555908203,&#34;m02&#34;:55.999988555908203,&#34;m10&#34;:55.999988555908203,&#34;m11&#34;:3.4290104460846411e-15,&#34;m12&#34;:-3.4290104460846411e-15},&#34;opacity&#34;:1.0,&#34;blendMode&#34;:&#34;NORMAL&#34;,&#34;visible&#34;:true}"/>
<path d="M38.6223 33.4555L29.8564 17.1005C29.6741 16.7604 29.4088 16.4725 29.0826 16.2699C28.0354 15.6196 26.7189 16.027 26.1435 17.1005L17.3775 33.4555C17.1957 33.7947 17.1015 34.1763 17.1015 34.5624C17.1015 35.761 18.0145 36.8109 19.234 36.8109H36.7659C37.1491 36.8109 37.5226 36.7023 37.8486 36.4998C38.8665 35.8677 39.1853 34.5057 38.6223 33.4555Z" fill="#FCB831" stroke="white" stroke-width="1.22571"/>
<path fill-rule="evenodd" clip-rule="evenodd" d="M26.9717 22.8757C26.9717 22.491 27.2836 22.1791 27.6683 22.1791H28.3649C28.7496 22.1791 29.0615 22.491 29.0615 22.8757V28.0915C29.0615 28.4762 28.7496 28.7881 28.3649 28.7881H27.6683C27.2836 28.7881 26.9717 28.4762 26.9717 28.0915V22.8757Z" fill="black"/>
<ellipse cx="28.0001" cy="31.9924" rx="1.37143" ry="1.4019" fill="black"/>
<defs>
<clipPath id="paint0_angular_5122_5243_clip_path"><path d="M56 28C56 32.1216 55.0901 36.1924 53.3352 39.9218C51.5802 43.6512 49.0236 46.9471 45.8479 49.5744C42.6721 52.2016 38.9555 54.0953 34.9633 55.1203C30.9712 56.1453 26.802 56.2764 22.7533 55.504L23.8027 50.0032C27.0416 50.6211 30.3769 50.5163 33.5706 49.6963C36.7644 48.8762 39.7377 47.3613 42.2783 45.2595C44.8189 43.1577 46.8642 40.5209 48.2681 37.5375C49.672 34.554 50.4 31.2973 50.4 28H56Z"/></clipPath><clipPath id="paint1_angular_5122_5243_clip_path"><path d="M28 53.2C28 54.7464 26.7433 56.0145 25.2046 55.8601C21.7552 55.514 18.3916 54.5294 15.2883 52.9482C11.3512 50.9421 7.94476 48.0328 5.34752 44.458C2.75028 40.8832 1.03596 36.7444 0.344726 32.3802C-0.200128 28.9401 -0.0971345 25.4369 0.639633 22.0493C0.96828 20.5382 2.56266 19.7349 4.03337 20.2128C5.50409 20.6906 6.29031 22.2693 5.99954 23.7881C5.51354 26.3267 5.46925 28.9374 5.87578 31.5041C6.42877 34.9956 7.80022 38.3065 9.87802 41.1664C11.9558 44.0262 14.6809 46.3537 17.8306 47.9585C20.1461 49.1383 22.6427 49.903 25.2072 50.2252C26.7416 50.418 28 51.6536 28 53.2Z"/></clipPath><clipPath id="paint2_angular_5122_5243_clip_path"><path d="M28 2.8C28 1.2536 29.2567 -0.0145023 30.7954 0.139882C34.2448 0.485985 37.6084 1.47059 40.7117 3.05182C44.6488 5.05786 48.0552 7.96721 50.6525 11.542C53.2497 15.1168 54.964 19.2555 55.6553 23.6198C56.2001 27.0599 56.0971 30.5631 55.3604 33.9507C55.0317 35.4617 53.4373 36.2651 51.9666 35.7872C50.4959 35.3094 49.7097 33.7307 50.0005 32.2119C50.4864 29.6733 50.5307 27.0626 50.1242 24.4959C49.5712 21.0044 48.1998 17.6934 46.122 14.8336C44.0442 11.9738 41.319 9.64629 38.1694 8.04145C35.8539 6.86164 33.3573 6.09702 30.7928 5.77477C29.2584 5.58197 28 4.3464 28 2.8Z"/></clipPath><clipPath id="paint3_angular_5122_5243_clip_path"><path d="M28 2.8C28 1.2536 29.2567 -0.0145023 30.7954 0.139882C34.2448 0.485985 37.6084 1.47059 40.7117 3.05182C44.6488 5.05786 48.0552 7.96721 50.6525 11.542C53.2497 15.1168 54.964 19.2555 55.6553 23.6198C56.2001 27.0599 56.0971 30.5631 55.3604 33.9507C55.0317 35.4617 53.4373 36.2651 51.9666 35.7872C50.4959 35.3094 49.7097 33.7307 50.0004 32.2119C50.4864 29.6733 50.5307 27.0626 50.1242 24.4959C49.5712 21.0044 48.1998 17.6934 46.122 14.8336C44.0442 11.9738 41.319 9.64629 38.1694 8.04145C35.8539 6.86164 33.3573 6.09702 30.7927 5.77477C29.2584 5.58197 28 4.3464 28 2.8Z"/></clipPath></defs>
</svg>
