<svg xmlns="http://www.w3.org/2000/svg" width="85" height="76" fill="none"><path fill="#3B3937" fill-opacity=".08" d="M13.224 19.193a3.419 3.419 0 0 1 3.418-3.419h37.605a3.419 3.419 0 1 1 0 6.838H16.642a3.419 3.419 0 0 1-3.418-3.419ZM13.224 46.543a3.419 3.419 0 0 1 3.418-3.419h10.256a3.419 3.419 0 1 1 0 6.837H16.642a3.419 3.419 0 0 1-3.418-3.418ZM38.147 29.45a18.493 18.493 0 0 0-3.789 5.412c-.217.469-.415.944-.595 1.425H16.646a3.419 3.419 0 1 1 0-6.838h21.501Z"/><path fill="#3B3937" fill-opacity=".08" d="M57.328 8.116a187.262 187.262 0 0 0-43.76 0 5.12 5.12 0 0 0-4.493 4.549l-.18 1.71a225.639 225.639 0 0 0 0 47.242l.18 1.71a5.12 5.12 0 0 0 4.493 4.549 187.266 187.266 0 0 0 31.509 1.035c2.145 2.12 4.563 4.241 7.259 6.349a194.104 194.104 0 0 1-39.567-.593A11.957 11.957 0 0 1 2.275 64.043l-.18-1.71a232.475 232.475 0 0 1 0-48.673l.18-1.711A11.957 11.957 0 0 1 12.769 1.326a194.099 194.099 0 0 1 45.358 0A11.957 11.957 0 0 1 68.62 11.949l.18 1.71c.376 3.578.67 7.162.88 10.75a19.373 19.373 0 0 0-6.728 2.104c-.008-.1-.015-.2-.02-.3a225.56 225.56 0 0 0-.932-11.837l-.18-1.711a5.12 5.12 0 0 0-4.493-4.549Z"/><path fill="#3B3937" fill-opacity=".08" fill-rule="evenodd" d="M61.138 74.98c-40.792-27.856-18.522-51.562-3.533-41.995a16.396 16.396 0 0 1 3.533 3.077 16.391 16.391 0 0 1 3.533-3.077c14.99-9.567 37.259 14.14-3.533 41.994ZM55.93 40.594l.007.044 5.2 5.537 5.198-5.536.004-.018.004-.026.018.015c2.082-2.39 4.338-3.063 6.194-2.815a5.526 5.526 0 0 1 4.261 3.125c1.33 2.868 1.818 12.325-15.68 25.535C43.642 53.246 44.13 43.79 45.46 40.921a5.526 5.526 0 0 1 4.26-3.125c1.857-.248 4.113.425 6.194 2.815l.018-.015Z" clip-rule="evenodd"/></svg>
