<svg width="28" height="28" viewBox="0 0 28 28" fill="none" xmlns="http://www.w3.org/2000/svg">
<path fill-rule="evenodd" clip-rule="evenodd" d="M6.00012 0C7.65698 0 9.00012 1.34315 9.00012 3L9.00109 16.8033C10.794 17.8408 12.0001 19.7796 12.0001 22C12.0001 25.3137 9.31383 28 6.00012 28C2.68641 28 0.00012207 25.3137 0.00012207 22C0.00012207 19.7791 1.20674 17.8401 3.00016 16.8027L3.00012 3C3.00012 1.34315 4.34327 0 6.00012 0Z" fill="url(#paint0_linear_8854_6335)"/>
<g filter="url(#filter0_d_8854_6335)">
<path fill-rule="evenodd" clip-rule="evenodd" d="M6.00012 8C6.55241 8 7.00012 8.44772 7.00012 9L7.00088 18.1262C8.72572 18.5705 10.0001 20.1364 10.0001 22C10.0001 24.2091 8.20926 26 6.00012 26C3.79098 26 2.00012 24.2091 2.00012 22C2.00012 20.1361 3.27501 18.5699 5.00037 18.126L5.00012 9C5.00012 8.44772 5.44784 8 6.00012 8Z" fill="url(#paint1_linear_8854_6335)"/>
</g>
<path d="M4.00012 9H3.00012V10H4.00012V9Z" fill="#7FC6C8"/>
<path d="M4.00012 5H3.00012V6H4.00012V5Z" fill="#7FC6C8"/>
<path d="M4.00012 13H3.00012V14H4.00012V13Z" fill="#7FC6C8"/>
<path d="M20.229 6.26597L20.9384 6.07388C23.7864 5.32714 25.3338 5.25643 27.3715 6.07151C27.8843 6.27662 28.1337 6.8586 27.9286 7.37138C27.7235 7.88416 27.1415 8.13358 26.6288 7.92846C25.2826 7.39002 24.1857 7.36514 22.2791 7.80247L21.7114 7.93996L21.0941 8.10233L19.9379 8.41976C16.8651 9.23783 14.8458 9.19517 12.5613 7.75642C12.0941 7.4621 11.9537 6.84466 12.248 6.37734C12.5424 5.91001 13.1598 5.76976 13.6271 6.06408C15.274 7.1013 16.7157 7.17185 19.118 6.56628L20.0811 6.30712C20.1267 6.29445 20.1758 6.28079 20.229 6.26597Z" fill="#EECB8A"/>
<path d="M20.229 11.266L20.9384 11.0739C23.7864 10.3271 25.3338 10.2564 27.3715 11.0715C27.8843 11.2766 28.1337 11.8586 27.9286 12.3714C27.7235 12.8842 27.1415 13.1336 26.6288 12.9285C25.2826 12.39 24.1857 12.3651 22.2791 12.8025L21.7114 12.94L21.0941 13.1023L19.9379 13.4198C16.8651 14.2378 14.8458 14.1952 12.5613 12.7564C12.0941 12.4621 11.9537 11.8447 12.248 11.3773C12.5424 10.91 13.1598 10.7698 13.6271 11.0641C15.274 12.1013 16.7157 12.1718 19.118 11.5663L20.0811 11.3071C20.1267 11.2945 20.1758 11.2808 20.229 11.266Z" fill="#EECB8A"/>
<path d="M20.229 16.266L20.9384 16.0739C23.7864 15.3271 25.3338 15.2564 27.3715 16.0715C27.8843 16.2766 28.1337 16.8586 27.9286 17.3714C27.7235 17.8842 27.1415 18.1336 26.6288 17.9285C25.2826 17.39 24.1857 17.3651 22.2791 17.8025L21.7114 17.94L21.0941 18.1023L19.9379 18.4198C16.8651 19.2378 14.8458 19.1952 12.5613 17.7564C12.0941 17.4621 11.9537 16.8447 12.248 16.3773C12.5424 15.91 13.1598 15.7698 13.6271 16.0641C15.274 17.1013 16.7157 17.1718 19.118 16.5663L20.0811 16.3071C20.1267 16.2945 20.1758 16.2808 20.229 16.266Z" fill="#EECB8A"/>
<path d="M7.50012 3.1377C7.85231 3.1377 8.13782 2.85219 8.13782 2.5C8.13782 2.14781 7.85231 1.8623 7.50012 1.8623C7.14793 1.8623 6.86243 2.14781 6.86243 2.5C6.86243 2.85219 7.14793 3.1377 7.50012 3.1377Z" fill="white"/>
<path d="M8.00012 4.5C8.00012 4.22386 7.77626 4 7.50012 4C7.22398 4 7.00012 4.22386 7.00012 4.5V16.5C7.00012 16.7761 7.22398 17 7.50012 17C7.77626 17 8.00012 16.7761 8.00012 16.5V4.5Z" fill="url(#paint2_linear_8854_6335)"/>
<path d="M7.50012 22C8.32855 22 9.00012 21.3284 9.00012 20.5C9.00012 19.6716 8.32855 19 7.50012 19C6.67169 19 6.00012 19.6716 6.00012 20.5C6.00012 21.3284 6.67169 22 7.50012 22Z" fill="white" fill-opacity="0.618526"/>
<defs>
<filter id="filter0_d_8854_6335" x="1.00012" y="8" width="10" height="20" filterUnits="userSpaceOnUse" color-interpolation-filters="sRGB">
<feFlood flood-opacity="0" result="BackgroundImageFix"/>
<feColorMatrix in="SourceAlpha" type="matrix" values="0 0 0 0 0 0 0 0 0 0 0 0 0 0 0 0 0 0 127 0" result="hardAlpha"/>
<feOffset dy="1"/>
<feGaussianBlur stdDeviation="0.5"/>
<feComposite in2="hardAlpha" operator="out"/>
<feColorMatrix type="matrix" values="0 0 0 0 0.088113 0 0 0 0 0.140398 0 0 0 0 0.297254 0 0 0 0.25 0"/>
<feBlend mode="normal" in2="BackgroundImageFix" result="effect1_dropShadow_8854_6335"/>
<feBlend mode="normal" in="SourceGraphic" in2="effect1_dropShadow_8854_6335" result="shape"/>
</filter>
<linearGradient id="paint0_linear_8854_6335" x1="12.0001" y1="0" x2="12.0001" y2="29.0902" gradientUnits="userSpaceOnUse">
<stop stop-color="#C0DEEB"/>
<stop offset="1" stop-color="#95CAE0"/>
</linearGradient>
<linearGradient id="paint1_linear_8854_6335" x1="9.17254" y1="8" x2="9.38571" y2="29.4212" gradientUnits="userSpaceOnUse">
<stop stop-color="#FFCB00"/>
<stop offset="1" stop-color="#E98900"/>
</linearGradient>
<linearGradient id="paint2_linear_8854_6335" x1="8.00012" y1="1.11783" x2="8.77182" y2="17.65" gradientUnits="userSpaceOnUse">
<stop stop-color="white"/>
<stop offset="1" stop-color="white" stop-opacity="0"/>
</linearGradient>
</defs>
</svg>
