<svg width="28" height="28" viewBox="0 0 28 28" fill="none" xmlns="http://www.w3.org/2000/svg">
<path d="M21.0001 0H7.00012C5.89555 0 5.00012 0.89543 5.00012 2V26C5.00012 27.1046 5.89555 28 7.00012 28H21.0001C22.1047 28 23.0001 27.1046 23.0001 26V2C23.0001 0.89543 22.1047 0 21.0001 0Z" fill="url(#paint0_linear_8854_6341)"/>
<path d="M23.0001 12H5.00012V13H23.0001V12Z" fill="#EEEEEE"/>
<path d="M23.0001 11H5.00012V12H23.0001V11Z" fill="#B1B1B1"/>
<path d="M9.00012 16C9.00012 15.4477 8.55241 15 8.00012 15C7.44784 15 7.00012 15.4477 7.00012 16V19C7.00012 19.5523 7.44784 20 8.00012 20C8.55241 20 9.00012 19.5523 9.00012 19V16Z" fill="url(#paint1_linear_8854_6341)"/>
<path d="M9.00012 5C9.00012 4.44772 8.55241 4 8.00012 4C7.44784 4 7.00012 4.44772 7.00012 5V8C7.00012 8.55228 7.44784 9 8.00012 9C8.55241 9 9.00012 8.55228 9.00012 8V5Z" fill="url(#paint2_linear_8854_6341)"/>
<defs>
<linearGradient id="paint0_linear_8854_6341" x1="23.0001" y1="30.638" x2="23.0001" y2="7.21574e-07" gradientUnits="userSpaceOnUse">
<stop stop-color="#BCBDBE"/>
<stop offset="1" stop-color="#E1E1E1"/>
</linearGradient>
<linearGradient id="paint1_linear_8854_6341" x1="107" y1="15" x2="107" y2="515" gradientUnits="userSpaceOnUse">
<stop stop-color="#8D8D8D"/>
<stop offset="1" stop-color="#5F5F5F"/>
</linearGradient>
<linearGradient id="paint2_linear_8854_6341" x1="107" y1="4" x2="107" y2="504" gradientUnits="userSpaceOnUse">
<stop stop-color="#8D8D8D"/>
<stop offset="1" stop-color="#5F5F5F"/>
</linearGradient>
</defs>
</svg>
