<svg width="28" height="28" viewBox="0 0 28 28" fill="none" xmlns="http://www.w3.org/2000/svg">
<path fill-rule="evenodd" clip-rule="evenodd" d="M15.0603 12.1799L18.6089 10.1312V7.92706C18.6089 7.34107 19.0839 6.86604 19.6699 6.86604C20.2559 6.86604 20.7309 7.34107 20.7309 7.92706V8.906L21.7538 8.31541C22.2613 8.02242 22.9102 8.1963 23.2032 8.70377C23.4962 9.21125 23.3223 9.86015 22.8148 10.1531L21.7943 10.7424L22.617 11.2174C23.1245 11.5104 23.2984 12.1593 23.0054 12.6668C22.7124 13.1743 22.0635 13.3482 21.556 13.0552L19.6722 11.9675L16.1315 14.0118L19.6597 16.0488L21.5685 14.9468C22.076 14.6538 22.7249 14.8276 23.0179 15.3351C23.3109 15.8426 23.137 16.4915 22.6295 16.7845L21.7818 17.274L22.8047 17.8645C23.3122 18.1575 23.486 18.8064 23.193 19.3139C22.9 19.8214 22.2511 19.9953 21.7437 19.7023L20.7231 19.113V20.0631C20.7231 20.6491 20.248 21.1241 19.6621 21.1241C19.0761 21.1241 18.601 20.6491 18.601 20.0631V17.8879L15.0603 15.8436V19.9177L16.9691 21.0197C17.4766 21.3127 17.6505 21.9616 17.3575 22.4691C17.0645 22.9766 16.4156 23.1505 15.9081 22.8575L15.0603 22.368V23.5492C15.0603 24.1352 14.5853 24.6102 13.9993 24.6102C13.4133 24.6102 12.9383 24.1352 12.9383 23.5492V22.3707L12.1155 22.8457C11.608 23.1387 10.9591 22.9648 10.6661 22.4574C10.3731 21.9499 10.547 21.301 11.0545 21.008L12.9383 19.9204V15.8554L9.43416 17.8785V20.0591C9.43416 20.6451 8.95912 21.1201 8.37314 21.1201C7.78716 21.1201 7.31213 20.6451 7.31213 20.0591V19.1036L6.27527 19.7023C5.76779 19.9953 5.11889 19.8214 4.8259 19.3139C4.53291 18.8064 4.70678 18.1575 5.21425 17.8645L6.24879 17.2673L5.40565 16.7805C4.89817 16.4875 4.7243 15.8386 5.01729 15.3311C5.31028 14.8236 5.95919 14.6498 6.46666 14.9427L8.37081 16.0421L11.8874 14.0118L8.36297 11.9769L6.47451 13.0672C5.96703 13.3602 5.31812 13.1864 5.02513 12.6789C4.73214 12.1714 4.90602 11.5225 5.41349 11.2295L6.24094 10.7518L5.20409 10.1531C4.69661 9.86015 4.52274 9.21125 4.81573 8.70377C5.10872 8.1963 5.75762 8.02242 6.2651 8.31541L7.29963 8.9127V7.93913C7.29963 7.35315 7.77466 6.87812 8.36065 6.87812C8.94663 6.87812 9.42166 7.35315 9.42166 7.93913V10.1379L12.9383 12.1682V8.09848L11.0498 7.00817C10.5423 6.71518 10.3685 6.06627 10.6615 5.5588C10.9544 5.05132 11.6034 4.87745 12.1108 5.17044L12.9383 5.64817V4.45091C12.9383 3.86492 13.4133 3.38989 13.9993 3.38989C14.5853 3.38989 15.0603 3.86492 15.0603 4.45091V5.64548L15.9034 5.15869C16.4109 4.8657 17.0598 5.03958 17.3528 5.54705C17.6458 6.05453 17.4719 6.70343 16.9645 6.99643L15.0603 8.09579V12.1799Z" fill="url(#paint0_linear_8854_6348)"/>
<defs>
<linearGradient id="paint0_linear_8854_6348" x1="23.1889" y1="4.89274" x2="5.41581" y2="4.89274" gradientUnits="userSpaceOnUse">
<stop stop-color="#1083B1"/>
<stop offset="1" stop-color="#1FAEE6"/>
</linearGradient>
</defs>
</svg>
