<svg width="21" height="18" viewBox="0 0 21 18" fill="none" xmlns="http://www.w3.org/2000/svg">
<ellipse opacity="0.35712" cx="11.6591" cy="16.7778" rx="8.2963" ry="1.03704" fill="#3B3832" fill-opacity="0.4"/>
<path d="M4.87754 6.45293L11.8352 1.56445L18.6101 6.45256C18.7523 6.55516 18.8365 6.71984 18.8365 6.89519V16.3013C18.8365 16.6027 18.5922 16.8471 18.2907 16.8471H11.2183L11.1952 16.3013H6.82874L6.82906 16.8471H5.19132C4.88987 16.8471 4.64551 16.6027 4.64551 16.3013V6.89952C4.64551 6.72175 4.73208 6.55512 4.87754 6.45293Z" fill="url(#paint0_linear_5141_2875)"/>
<path d="M7.37491 9.75146H10.6498C10.9512 9.75146 11.1956 9.99583 11.1956 10.2973V16.3012H6.8291V10.2973C6.8291 9.99583 7.07347 9.75146 7.37491 9.75146Z" fill="url(#paint1_linear_5141_2875)"/>
<path d="M5.19132 1.01855H6.82874C7.13019 1.01855 7.37455 1.26292 7.37455 1.56436V4.3114C7.37455 4.52358 7.25159 4.71653 7.05927 4.80614L5.42184 5.5691C5.1486 5.69642 4.82389 5.57812 4.69658 5.30489C4.66294 5.23269 4.64551 5.15401 4.64551 5.07436V1.56436C4.64551 1.26292 4.88987 1.01855 5.19132 1.01855Z" fill="url(#paint2_linear_5141_2875)"/>
<path d="M11.2619 0.339895C11.5258 0.149407 11.875 0.134673 12.1521 0.295733L12.2198 0.339661L19.8457 5.83763C20.2125 6.10207 20.2955 6.61376 20.031 6.98054C19.7822 7.32575 19.3142 7.41955 18.9543 7.20893L18.8881 7.16586L11.741 2.01297L4.6021 7.16562C4.25701 7.41467 3.78341 7.35605 3.50828 7.04261L3.4591 6.98087C3.21005 6.63579 3.26867 6.16218 3.58211 5.88705L3.64385 5.83787L11.2619 0.339895Z" fill="url(#paint3_linear_5141_2875)"/>
<ellipse cx="14.7433" cy="8.38689" rx="1.91033" ry="1.91033" fill="url(#paint4_linear_5141_2875)"/>
<path d="M10.6495 16.3012V9.75146C10.9509 9.75146 11.1953 9.99583 11.1953 10.2973V16.3012H10.6495Z" fill="black" fill-opacity="0.4"/>
<path d="M0.693758 10.6274H5.91264V9.61052C5.91264 9.52009 5.98595 9.44678 6.07638 9.44678C6.11695 9.44678 6.15607 9.46183 6.18616 9.48903L9.15593 12.1725C9.31249 12.314 9.32472 12.5556 9.18325 12.7121C9.17152 12.7251 9.15891 12.7373 9.14551 12.7485L6.1817 15.2381C6.11245 15.2963 6.00917 15.2873 5.951 15.218C5.92622 15.1885 5.91264 15.1512 5.91264 15.1127V14.0727H0.693758C0.392316 14.0727 0.147949 13.8283 0.147949 13.5269V11.1733C0.147949 10.8718 0.392316 10.6274 0.693758 10.6274Z" fill="url(#paint5_linear_5141_2875)"/>
<defs>
<linearGradient id="paint0_linear_5141_2875" x1="22.5418" y1="37.6772" x2="22.5418" y2="12.1717" gradientUnits="userSpaceOnUse">
<stop stop-color="#345159"/>
<stop offset="1" stop-color="#04B36B"/>
</linearGradient>
<linearGradient id="paint1_linear_5141_2875" x1="8.63908" y1="20.171" x2="14.9144" y2="16.3604" gradientUnits="userSpaceOnUse">
<stop stop-color="#445C64"/>
<stop offset="1" stop-color="#001E28"/>
</linearGradient>
<linearGradient id="paint2_linear_5141_2875" x1="8.0871" y1="11.8925" x2="8.0871" y2="4.21251" gradientUnits="userSpaceOnUse">
<stop stop-color="#345159"/>
<stop offset="1" stop-color="#04B36B"/>
</linearGradient>
<linearGradient id="paint3_linear_5141_2875" x1="10.3019" y1="11.5364" x2="16.1858" y2="-1.14309" gradientUnits="userSpaceOnUse">
<stop stop-color="#445C64"/>
<stop offset="1" stop-color="#001E28"/>
</linearGradient>
<linearGradient id="paint4_linear_5141_2875" x1="13.1385" y1="7.56756" x2="13.1385" y2="10.7772" gradientUnits="userSpaceOnUse">
<stop stop-color="#BACFF8"/>
<stop offset="1" stop-color="#EDF2FD"/>
</linearGradient>
<linearGradient id="paint5_linear_5141_2875" x1="-6.09347" y1="13.2959" x2="0.558463" y2="27.3414" gradientUnits="userSpaceOnUse">
<stop stop-color="#FCB831"/>
<stop offset="1" stop-color="#ED6F00"/>
</linearGradient>
</defs>
</svg>
