<svg width="18" height="18" viewBox="0 0 18 18" fill="none" xmlns="http://www.w3.org/2000/svg">
<path d="M17.2801 14.3266L10.4622 1.88258C10.3173 1.61824 10.1071 1.39553 9.85013 1.23942C9.03016 0.741296 7.99444 1.04884 7.53765 1.88258L0.71966 14.3266C0.575172 14.5903 0.5 14.8876 0.5 15.1888C0.5 16.1276 1.22901 16.9333 2.18192 16.9333H15.8179C16.1181 16.9333 16.4114 16.8501 16.6681 16.6941C17.4718 16.2059 17.7293 15.1465 17.2801 14.3266Z" fill="#FCB831" stroke="white"/>
<path fill-rule="evenodd" clip-rule="evenodd" d="M8.20001 6.57936C8.20001 6.13052 8.56387 5.76666 9.01271 5.76666V5.76666C9.46155 5.76666 9.82541 6.13052 9.82541 6.57936V9.98253C9.82541 10.4314 9.46155 10.7952 9.01271 10.7952V10.7952C8.56387 10.7952 8.20001 10.4314 8.20001 9.98254V6.57936Z" fill="black"/>
<circle cx="9.00002" cy="13.2333" r="1.06667" fill="black"/>
</svg>
