<svg width="50" height="31" viewBox="0 0 50 31" fill="none" xmlns="http://www.w3.org/2000/svg">
<rect x="1.16016" y="1" width="48" height="29" rx="6" stroke="#3B3937" stroke-opacity="0.2" stroke-width="0.6"/>
<path d="M20.9961 8.69635H29.3265V22.3025H20.9961V8.69635Z" fill="#DCDCDC"/>
<path d="M21.8542 15.5005C21.8532 14.1904 22.1502 12.8972 22.7228 11.7187C23.2953 10.5403 24.1284 9.50758 25.159 8.69867C23.8826 7.69551 22.3496 7.0717 20.7354 6.89854C19.1212 6.72539 17.4909 7.00986 16.0307 7.71946C14.5705 8.42907 13.3395 9.53516 12.4782 10.9113C11.6169 12.2875 11.1602 13.8782 11.1602 15.5017C11.1602 17.1252 11.6169 18.7159 12.4782 20.0921C13.3395 21.4683 14.5705 22.5743 16.0307 23.2839C17.4909 23.9935 19.1212 24.278 20.7354 24.1049C22.3496 23.9317 23.8826 23.3079 25.159 22.3047C24.1281 21.4956 23.2948 20.4625 22.7222 19.2836C22.1497 18.1047 21.8528 16.811 21.8542 15.5005V15.5005Z" fill="#CBCBCB"/>
<path d="M39.1603 15.5005C39.1603 17.1241 38.7034 18.715 37.842 20.0912C36.9805 21.4674 35.7493 22.5735 34.2889 23.283C32.8285 23.9925 31.198 24.2768 29.5837 24.1034C27.9694 23.9299 26.4365 23.3058 25.1602 22.3023C26.1903 21.4927 27.0232 20.4597 27.5959 19.2812C28.1686 18.1027 28.4662 16.8096 28.4662 15.4993C28.4662 14.189 28.1686 12.8959 27.5959 11.7174C27.0232 10.5389 26.1903 9.5059 25.1602 8.69627C26.4365 7.69279 27.9694 7.06867 29.5837 6.89526C31.198 6.72185 32.8286 7.00615 34.2889 7.71565C35.7493 8.42515 36.9805 9.53124 37.842 10.9075C38.7034 12.2837 39.1603 13.8745 39.1603 15.4981V15.5005Z" fill="#E6E6E6"/>
</svg>
