<svg width="50" height="31" viewBox="0 0 50 31" fill="none" xmlns="http://www.w3.org/2000/svg">
<rect x="1.16016" y="1" width="48" height="29" rx="6" fill="white"/>
<rect x="1.16016" y="1" width="48" height="29" rx="6" stroke="#3B3937" stroke-opacity="0.2" stroke-width="0.6"/>
<path d="M20.9951 8.69629H29.3255V22.3022H20.9951V8.69629Z" fill="#FF5F00"/>
<path d="M21.8542 15.5007C21.8532 14.1906 22.1502 12.8974 22.7228 11.719C23.2953 10.5406 24.1284 9.50785 25.159 8.69895C23.8826 7.6958 22.3496 7.072 20.7354 6.89885C19.1212 6.72569 17.4909 7.01017 16.0307 7.71976C14.5705 8.42935 13.3395 9.53543 12.4782 10.9116C11.6169 12.2877 11.1602 13.8784 11.1602 15.5019C11.1602 17.1254 11.6169 18.7161 12.4782 20.0922C13.3395 21.4684 14.5705 22.5744 16.0307 23.284C17.4909 23.9936 19.1212 24.2781 20.7354 24.1049C22.3496 23.9318 23.8826 23.308 25.159 22.3048C24.1281 21.4957 23.2948 20.4626 22.7222 19.2837C22.1497 18.1049 21.8529 16.8112 21.8542 15.5007V15.5007Z" fill="#EB001B"/>
<path d="M39.1603 15.5004C39.1603 17.1239 38.7034 18.7148 37.842 20.091C36.9805 21.4672 35.7493 22.5732 34.2889 23.2827C32.8285 23.9922 31.198 24.2765 29.5837 24.1031C27.9694 23.9297 26.4365 23.3056 25.1602 22.3021C26.1903 21.4925 27.0232 20.4595 27.5959 19.281C28.1686 18.1025 28.4662 16.8094 28.4662 15.4991C28.4662 14.1889 28.1686 12.8957 27.5959 11.7173C27.0232 10.5388 26.1903 9.50581 25.1602 8.69619C26.4365 7.69272 27.9694 7.06861 29.5837 6.8952C31.198 6.72179 32.8286 7.00608 34.2889 7.71558C35.7493 8.42507 36.9806 9.53114 37.842 10.9073C38.7034 12.2836 39.1603 13.8744 39.1603 15.498V15.5004Z" fill="#F79E1B"/>
</svg>
