<svg width="50" height="31" viewBox="0 0 50 31" fill="none" xmlns="http://www.w3.org/2000/svg">
<rect x="1.16016" y="1" width="48" height="29" rx="6" fill="white"/>
<rect x="1.16016" y="1" width="48" height="29" rx="6" stroke="#3B3937" stroke-opacity="0.2" stroke-width="0.6"/>
<path d="M30.6948 9.29395C31.8109 9.29395 32.7118 9.56133 33.4106 9.82812L32.894 12.3711C31.5943 11.73 30.4441 11.7832 30.0269 11.8359C29.1935 11.9607 28.8115 12.4246 28.7944 12.8506C28.7775 14.2556 32.8944 14.4336 32.8774 17.5986C32.8604 20.088 30.8773 21.7061 27.8276 21.7061C26.5269 21.6888 25.277 21.4032 24.5942 21.0654L25.1274 18.4346C25.7942 18.7723 26.6437 19.2164 28.1099 19.1992C28.9434 19.182 29.8273 18.8258 29.8442 18.0254C29.8442 17.4919 29.4606 17.1186 28.3267 16.5312C27.2276 15.9449 25.76 14.9841 25.7769 13.2598C25.7928 10.9306 27.8278 9.29399 30.6948 9.29395ZM12.1772 9.50684C12.8111 9.50691 13.3774 9.95141 13.5112 10.7334L14.7271 17.668L17.7778 9.50684H20.8276L16.1108 21.5098H13.0435L10.728 11.9434C10.5943 11.3563 10.4607 11.143 10.0435 10.8945C9.32666 10.4848 8.17673 10.0936 7.16064 9.8623L7.22705 9.50684H12.1772ZM22.5767 21.5098H19.6763L22.0767 9.50684H24.9771L22.5767 21.5098ZM43.1597 21.5098H40.4771V21.5088L40.1099 19.6963H36.3765L35.7769 21.4922H32.7271L37.0933 10.3799C37.2929 9.84527 37.7776 9.50684 38.3267 9.50684H40.8101L43.1597 21.5098ZM37.2271 17.2607H39.6431L38.7593 12.7617L37.2271 17.2607Z" fill="url(#paint0_linear_3295_3461)"/>
<defs>
<linearGradient id="paint0_linear_3295_3461" x1="7.16064" y1="21.7023" x2="43.1597" y2="21.7023" gradientUnits="userSpaceOnUse">
<stop stop-color="#1A1E5A"/>
<stop offset="1" stop-color="#122D98"/>
</linearGradient>
</defs>
</svg>
