<svg width="50" height="31" viewBox="0 0 50 31" fill="none" xmlns="http://www.w3.org/2000/svg">
<rect x="1.16016" y="1" width="48" height="29" rx="6" stroke="#3B3937" stroke-opacity="0.2" stroke-width="0.6"/>
<path d="M30.6943 9.29395C31.8102 9.29402 32.7105 9.56136 33.4092 9.82812L32.8936 12.3711C31.5942 11.7302 30.444 11.7832 30.0264 11.8359C29.1929 11.9607 28.8101 12.4246 28.793 12.8506C28.776 14.2556 32.8929 14.4335 32.876 17.5986C32.859 20.088 30.8767 21.7059 27.8271 21.7061C26.5267 21.6888 25.2767 21.4041 24.5938 21.0664L25.126 18.4346C25.7928 18.7724 26.6429 19.2165 28.1094 19.1992C28.9429 19.1819 29.8268 18.8258 29.8438 18.0254C29.8436 17.4919 29.4599 17.1185 28.3262 16.5312C27.2271 15.9449 25.7595 14.9843 25.7764 13.2598C25.7923 10.9305 27.8272 9.29395 30.6943 9.29395ZM12.1768 9.50684C12.8106 9.50691 13.377 9.95134 13.5107 10.7334L14.7266 17.668L17.7773 9.50684H20.8271L16.1104 21.5098H13.043L10.7275 11.9434C10.5938 11.3562 10.4602 11.143 10.043 10.8945C9.32618 10.4848 8.17626 10.0936 7.16016 9.8623L7.22656 9.50684H12.1768ZM22.5771 21.5098H19.6768L22.0762 9.50684H24.9766L22.5771 21.5098ZM43.1602 21.5098H40.4766V21.5088L40.1104 19.6963H36.376L35.7764 21.4922H32.7266L37.0928 10.3799C37.2924 9.84526 37.7771 9.50684 38.3262 9.50684H40.8096L43.1602 21.5098ZM37.2275 17.2607H39.6426L38.7598 12.7617L37.2275 17.2607Z" fill="#3B3935" fill-opacity="0.4"/>
</svg>
