<svg height="32" viewBox="0 0 32 32" width="32" xmlns="http://www.w3.org/2000/svg"><g fill="none" fill-rule="evenodd"><rect fill="#fff" height="32" rx="16" width="32"/><rect height="29.176" rx="14.588" stroke="#d90000" stroke-width="2.824" width="29.176" x="1.412" y="1.412"/><path d="m10.08 21.512h-2.02v-6.467c0-.703.036-1.512.106-2.427a9.58 9.58 0 0 1 -.388.46c-.223.256-.66.716-1.307 1.38l-1.146-1.252 2.932-2.713h1.824v11.019zm5.232-11.163c.859 0 1.545.244 2.057.731.513.488.769 1.151.769 1.99 0 .518-.12.986-.358 1.406-.239.42-.644.82-1.217 1.202.643.457 1.1.926 1.371 1.406.272.48.407 1.003.407 1.571 0 .9-.276 1.626-.829 2.178-.552.553-1.286.83-2.2.83-.95 0-1.694-.255-2.231-.765-.538-.51-.807-1.238-.807-2.182 0-.634.135-1.193.403-1.677.27-.485.685-.909 1.248-1.27-.523-.417-.896-.838-1.12-1.263a3.034 3.034 0 0 1 -.335-1.436c0-.824.265-1.483.795-1.978s1.212-.743 2.047-.743zm-1.093 8.261c0 .442.091.794.275 1.055.183.262.446.392.787.392.372 0 .65-.13.833-.392.184-.261.275-.613.275-1.055 0-.317-.073-.615-.218-.897-.146-.281-.427-.605-.844-.972l-.106-.106a2.59 2.59 0 0 0 -.746.826c-.17.309-.256.692-.256 1.149zm1.077-6.67c-.286 0-.502.104-.648.313-.145.208-.218.506-.218.893 0 .331.06.62.18.866.121.247.355.508.702.784.331-.256.559-.512.682-.769.123-.256.184-.55.184-.881 0-.804-.294-1.206-.882-1.206zm7.054 4.828h-2.49v-1.408h2.49v-2.51h1.41v2.51h2.49v1.408h-2.49v2.477h-1.41z" fill="#000"/></g></svg>