<svg height="80" viewBox="0 0 80 80" width="80" xmlns="http://www.w3.org/2000/svg"><g fill="none" fill-rule="evenodd"><circle cx="40" cy="40" fill="#ff5349" opacity=".8" r="40"/><g fill="#6b3a1f"><path d="m20.77 30c2.733.07 5.334.652 7.784 1.743a18.684 18.684 0 0 1 6.391 4.652 2.143 2.143 0 1 1 -3.194 2.857 14.4 14.4 0 0 0 -4.94-3.593 15.962 15.962 0 0 0 -6.152-1.374 2.143 2.143 0 1 1 .11-4.284zm38.238 0c-2.734.07-5.335.652-7.785 1.743a18.684 18.684 0 0 0 -6.391 4.652 2.143 2.143 0 1 0 3.194 2.857 14.4 14.4 0 0 1 4.94-3.593 15.962 15.962 0 0 1 6.152-1.374 2.143 2.143 0 1 0 -.11-4.284z" fill-rule="nonzero"/><ellipse cx="28.701" cy="46.429" rx="5.455" ry="6.558"/><ellipse cx="51.299" cy="46.429" rx="5.455" ry="6.558"/><path d="m28.545 62.246a2.643 2.643 0 1 0 2.91 4.412c2.634-1.737 5.338-2.587 8.167-2.587 2.877 0 5.895.88 9.076 2.68a2.643 2.643 0 0 0 2.604-4.599c-3.939-2.23-7.84-3.367-11.68-3.367-3.888 0-7.599 1.166-11.077 3.46z" fill-rule="nonzero"/></g></g></svg>