<svg width="50" height="31" viewBox="0 0 50 31" fill="none" xmlns="http://www.w3.org/2000/svg">
<rect x="0.666992" y="1" width="48.3333" height="29" rx="6" fill="white"/>
<rect x="0.666992" y="1" width="48.3333" height="29" rx="6" stroke="#3B3937" stroke-opacity="0.2" stroke-width="0.6"/>
<path d="M20.6699 8.69629H29.0003V22.3024H20.6699V8.69629Z" fill="#6C6BBD"/>
<path d="M21.5281 15.5005C21.527 14.1903 21.824 12.8971 22.3966 11.7187C22.9691 10.5403 23.8022 9.50752 24.8328 8.69861C23.5564 7.69545 22.0235 7.07164 20.4093 6.89848C18.7951 6.72532 17.1647 7.0098 15.7045 7.7194C14.2444 8.429 13.0133 9.5351 12.152 10.9113C11.2907 12.2874 10.834 13.8782 10.834 15.5016C10.834 17.1251 11.2907 18.7158 12.152 20.092C13.0133 21.4682 14.2444 22.5743 15.7045 23.2839C17.1647 23.9935 18.7951 24.278 20.4093 24.1048C22.0235 23.9317 23.5564 23.3078 24.8328 22.3047C23.8019 21.4955 22.9686 20.4624 22.3961 19.2835C21.8235 18.1047 21.5267 16.811 21.5281 15.5004V15.5005Z" fill="#EB001B"/>
<path d="M38.8341 15.5005C38.8341 17.1241 38.3772 18.7149 37.5158 20.0911C36.6544 21.4673 35.4231 22.5734 33.9627 23.2829C32.5024 23.9924 30.8719 24.2767 29.2576 24.1033C27.6433 23.9299 26.1103 23.3058 24.834 22.3023C25.8642 21.4927 26.697 20.4596 27.2697 19.2812C27.8424 18.1027 28.14 16.8095 28.14 15.4993C28.14 14.189 27.8424 12.8958 27.2697 11.7173C26.697 10.5389 25.8642 9.50584 24.834 8.69621C26.1103 7.69273 27.6433 7.06861 29.2576 6.8952C30.8719 6.72179 32.5024 7.00609 33.9627 7.71559C35.4231 8.42509 36.6544 9.53117 37.5158 10.9074C38.3773 12.2836 38.8341 13.8745 38.8341 15.4981V15.5005Z" fill="#0099DF"/>
</svg>
