<svg width="49" height="31" viewBox="0 0 49 31" fill="none" xmlns="http://www.w3.org/2000/svg">
<rect x="0.333008" y="1" width="48.3333" height="29" rx="6" fill="white"/>
<rect x="0.333008" y="1" width="48.3333" height="29" rx="6" stroke="#3B3937" stroke-opacity="0.2" stroke-width="0.6"/>
<path d="M20.335 8.69629H28.6654V22.3022H20.335V8.69629Z" fill="#FF5F00"/>
<path d="M21.1941 15.5008C21.1931 14.1907 21.4901 12.8975 22.0626 11.7191C22.6352 10.5407 23.4682 9.50797 24.4988 8.69907C23.2224 7.69592 21.6895 7.07213 20.0753 6.89897C18.4611 6.72581 16.8307 7.01029 15.3706 7.71988C13.9104 8.42947 12.6793 9.53555 11.818 10.9117C10.9567 12.2879 10.5 13.8786 10.5 15.502C10.5 17.1255 10.9567 18.7162 11.818 20.0923C12.6793 21.4685 13.9104 22.5746 15.3706 23.2842C16.8307 23.9938 18.4611 24.2782 20.0753 24.1051C21.6895 23.9319 23.2224 23.3081 24.4988 22.305C23.4679 21.4958 22.6346 20.4627 22.0621 19.2839C21.4895 18.105 21.1927 16.8113 21.1941 15.5008V15.5008Z" fill="#EB001B"/>
<path d="M38.5001 15.5004C38.5001 17.1239 38.0433 18.7148 37.1818 20.091C36.3204 21.4672 35.0891 22.5732 33.6287 23.2827C32.1684 23.9922 30.5379 24.2765 28.9236 24.1031C27.3093 23.9297 25.7763 23.3056 24.5 22.3021C25.5302 21.4925 26.363 20.4595 26.9357 19.281C27.5084 18.1025 27.806 16.8094 27.806 15.4991C27.806 14.1889 27.5084 12.8957 26.9357 11.7173C26.363 10.5388 25.5302 9.50581 24.5 8.69619C25.7764 7.69272 27.3093 7.06861 28.9236 6.8952C30.5379 6.72179 32.1684 7.00608 33.6288 7.71558C35.0891 8.42507 36.3204 9.53114 37.1818 10.9073C38.0433 12.2836 38.5001 13.8744 38.5001 15.498V15.5004Z" fill="#F79E1B"/>
</svg>
