<svg width="50" height="31" viewBox="0 0 50 31" fill="none" xmlns="http://www.w3.org/2000/svg">
<rect x="0.830078" y="1" width="48.3333" height="29" rx="6" fill="white"/>
<rect x="0.830078" y="1" width="48.3333" height="29" rx="6" stroke="#3B3937" stroke-opacity="0.2" stroke-width="0.6"/>
<path d="M30.5312 9.29395C31.6473 9.29395 32.5483 9.56133 33.2471 9.82812L32.7305 12.3711C31.4307 11.73 30.2806 11.7832 29.8633 11.8359C29.03 11.9607 28.648 12.4246 28.6309 12.8506C28.6139 14.2556 32.7308 14.4336 32.7139 17.5986C32.6968 20.088 30.7138 21.7061 27.6641 21.7061C26.3633 21.6888 25.1135 21.4032 24.4307 21.0654L24.9639 18.4346C25.6306 18.7723 26.4802 19.2164 27.9463 19.1992C28.7799 19.182 29.6637 18.8258 29.6807 18.0254C29.6806 17.4919 29.2971 17.1186 28.1631 16.5312C27.064 15.9449 25.5964 14.9841 25.6133 13.2598C25.6293 10.9306 27.6642 9.29399 30.5312 9.29395ZM12.0137 9.50684C12.6475 9.50691 13.2139 9.95141 13.3477 10.7334L14.5635 17.668L17.6143 9.50684H20.6641L15.9473 21.5098H12.8799L10.5645 11.9434C10.4307 11.3563 10.2971 11.143 9.87988 10.8945C9.16309 10.4848 8.01316 10.0936 6.99707 9.8623L7.06348 9.50684H12.0137ZM22.4131 21.5098H19.5127L21.9131 9.50684H24.8135L22.4131 21.5098ZM42.9961 21.5098H40.3135V21.5088L39.9463 19.6963H36.2129L35.6133 21.4922H32.5635L36.9297 10.3799C37.1293 9.84527 37.614 9.50684 38.1631 9.50684H40.6465L42.9961 21.5098ZM37.0635 17.2607H39.4795L38.5957 12.7617L37.0635 17.2607Z" fill="url(#paint0_linear_3295_3461)"/>
<defs>
<linearGradient id="paint0_linear_3295_3461" x1="6.99707" y1="21.7023" x2="42.9961" y2="21.7023" gradientUnits="userSpaceOnUse">
<stop stop-color="#1A1E5A"/>
<stop offset="1" stop-color="#122D98"/>
</linearGradient>
</defs>
</svg>
