<svg width="56" height="56" viewBox="0 0 56 56" fill="none" xmlns="http://www.w3.org/2000/svg">
<rect width="56" height="56" rx="28" fill="#E6E5E3" fill-opacity="0.3"/>
<circle cx="28" cy="28" r="13" fill="url(#paint0_linear_11286_20871)"/>
<mask id="path-3-inside-1_11286_20871" fill="white">
<path d="M33.2 21.245C31.9761 20.5383 30.5832 20.1775 29.1701 20.201C27.7571 20.2246 26.3769 20.6316 25.1772 21.3786C23.9775 22.1256 23.0033 23.1845 22.3587 24.4421C21.714 25.6998 21.4232 27.109 21.5173 28.5191C21.6114 29.9292 22.0868 31.2873 22.8927 32.4482C23.6987 33.6091 24.8049 34.5293 26.0932 35.1103C27.3815 35.6913 28.8035 35.9114 30.2072 35.747C31.6108 35.5827 32.9435 35.04 34.0627 34.1771L32.4749 32.1178C31.7288 32.693 30.8405 33.0548 29.9047 33.1643C28.969 33.2739 28.0211 33.1272 27.1623 32.7399C26.3035 32.3525 25.566 31.7392 25.0288 30.9653C24.4915 30.1914 24.1746 29.2861 24.1119 28.346C24.0492 27.406 24.243 26.4666 24.6727 25.6282C25.1025 24.7898 25.7519 24.0839 26.5517 23.586C27.3514 23.088 28.2714 22.8167 29.2134 22.801C30.1554 22.7853 31.0839 23.0259 31.8998 23.4969L33.2 21.245Z"/>
</mask>
<path d="M33.2 21.245C31.9761 20.5383 30.5832 20.1775 29.1701 20.201C27.7571 20.2246 26.3769 20.6316 25.1772 21.3786C23.9775 22.1256 23.0033 23.1845 22.3587 24.4421C21.714 25.6998 21.4232 27.109 21.5173 28.5191C21.6114 29.9292 22.0868 31.2873 22.8927 32.4482C23.6987 33.6091 24.8049 34.5293 26.0932 35.1103C27.3815 35.6913 28.8035 35.9114 30.2072 35.747C31.6108 35.5827 32.9435 35.04 34.0627 34.1771L32.4749 32.1178C31.7288 32.693 30.8405 33.0548 29.9047 33.1643C28.969 33.2739 28.0211 33.1272 27.1623 32.7399C26.3035 32.3525 25.566 31.7392 25.0288 30.9653C24.4915 30.1914 24.1746 29.2861 24.1119 28.346C24.0492 27.406 24.243 26.4666 24.6727 25.6282C25.1025 24.7898 25.7519 24.0839 26.5517 23.586C27.3514 23.088 28.2714 22.8167 29.2134 22.801C30.1554 22.7853 31.0839 23.0259 31.8998 23.4969L33.2 21.245Z" stroke="#FFD58A" stroke-width="6.11765" mask="url(#path-3-inside-1_11286_20871)"/>
<line x1="20.1992" y1="29.6249" x2="30.5992" y2="29.6249" stroke="#FFD588" stroke-width="1.95"/>
<line x1="20.1992" y1="27.025" x2="30.5992" y2="27.025" stroke="#FFD588" stroke-width="1.95"/>
<defs>
<linearGradient id="paint0_linear_11286_20871" x1="33.3529" y1="22.6471" x2="18.4412" y2="48.2647" gradientUnits="userSpaceOnUse">
<stop stop-color="#EDB559"/>
<stop offset="0.8125" stop-color="#BE711C"/>
</linearGradient>
</defs>
</svg>
