<svg width="336" height="123" viewBox="0 0 336 123" fill="none" xmlns="http://www.w3.org/2000/svg">
<path d="M132.636 38.3069C132.636 18.7724 148.466 2.97952 167.939 2.97952C187.412 2.97952 203.242 18.8209 203.242 38.3069C203.242 57.7928 187.412 73.6343 167.939 73.6343C148.466 73.6343 132.636 57.8414 132.636 38.3069ZM129.965 38.3069C129.965 59.2506 147.01 76.3069 167.939 76.3069C188.869 76.3069 205.913 59.2506 205.913 38.3069C205.913 17.3631 188.917 0.306885 167.939 0.306885C146.961 0.306885 129.965 17.3631 129.965 38.3069Z" fill="#009342"/>
<path d="M187.073 34.5166C189.356 30.0946 187.705 28.3452 190.035 24.9437C191.687 22.5626 191.784 22.9028 192.318 22.1739C192.706 21.5422 192.512 20.959 191.589 20.2301C190.57 19.5012 189.938 19.5012 189.453 20.2301C188.919 20.959 189.258 20.959 187.607 23.2915C185.228 26.6931 182.169 25.7698 178.672 30.7749L176.099 34.468H187.073V34.5166Z" fill="#AE2062"/>
<path d="M188.48 34.5165C191.345 34.5165 191.54 36.2659 193.094 36.2659C194.113 36.2659 194.405 35.6342 194.648 35.051C194.842 34.225 195.036 34.1278 195.764 33.9334C196.153 33.8362 196.687 33.3989 196.687 32.7186C196.687 31.2608 195.036 31.2608 195.036 30.5805C195.036 30.0459 195.57 29.7544 195.57 29.1227C195.57 28.4909 195.036 28.005 194.016 28.005C192.462 28.005 190.423 29.56 189.597 30.2889C189.5 31.4065 189.063 33.2531 188.286 34.6137H188.48V34.5165Z" fill="#B1C81B"/>
<path d="M146.282 54.1482C146.282 58.0357 148.565 60.3196 152.449 60.3196H183.479C187.364 60.3196 189.647 58.0357 189.647 54.1482V37.6265C189.647 36.4116 189.015 35.7799 187.801 35.7799H170.028V15.7595C170.028 14.6418 169.494 14.1073 168.377 14.1073H167.552C166.435 14.1073 165.901 14.6418 165.901 15.7595V35.7799H148.128C146.914 35.7799 146.282 36.4116 146.282 37.6265V54.1482Z" fill="#FCB300"/>
<path d="M174.545 34.5167L177.118 30.8236C178.041 29.5116 179.255 27.7622 181.246 26.4016C181.44 26.2072 181.877 25.4783 181.877 24.6522C181.877 23.729 181.052 22.7085 179.838 22.7085C178.187 22.7085 177.361 24.0205 176.438 24.0205C175.613 24.0205 174.982 23.0001 173.573 23.0001C172.165 23.0001 171.291 24.0205 171.291 26.0614V34.4681H174.545V34.5167Z" fill="#B1C81B"/>
<path d="M159.539 33.399C159.539 34.0307 159.636 34.5166 159.636 34.5166H164.686V29.3657C164.395 29.2686 163.958 29.2686 163.667 29.2686C161.19 29.2686 159.539 31.0179 159.539 33.399Z" fill="#DE462F"/>
<path d="M152.158 32.7672C152.158 33.3989 152.255 33.982 152.45 34.5166H158.422C158.422 34.5166 158.325 33.982 158.325 33.3989C158.325 31.2608 159.248 29.9974 160.608 29.0741C159.782 28.248 158.568 27.7621 157.208 27.7621C154.295 27.7621 152.158 29.9002 152.158 32.7672Z" fill="#DE462F"/>
<path d="M157.791 26.4987C159.345 26.6931 160.656 27.3248 161.676 28.4424C162.307 28.1509 162.987 28.0537 163.618 28.0537C164.25 28.0537 164.638 28.1509 164.638 28.1509V25.2839C164.104 24.4578 162.89 23.826 161.579 23.826C159.636 23.826 158.325 24.9923 157.791 26.4987Z" fill="#DE462F"/>
<path d="M142.397 34.8567C142.397 35.78 143.029 36.4117 143.951 36.4117C145.7 36.4117 145.165 34.5652 148.273 34.5652H151.138C151.041 34.2736 150.944 33.7391 150.944 33.0102C150.216 32.4757 148.565 31.4552 146.816 31.4552C145.602 31.4552 144.971 31.8439 144.534 32.5728C144.243 33.1074 142.397 32.9616 142.397 34.8567Z" fill="#B1C81B"/>
<path d="M146.186 21.7851C146.186 23.0971 147.497 23.4373 147.497 24.4577C147.497 24.9923 147.205 25.2838 147.205 25.9155C147.205 26.6444 147.934 26.7416 148.322 26.8388C150.605 27.3733 151.721 28.0537 152.304 28.7826C153.13 27.6649 154.684 26.6444 156.917 26.4987C155.995 25.4782 155.898 24.4577 155.898 22.7084C155.898 21.8823 155.606 20.8618 154.684 20.8618C154.052 20.8618 154.052 21.2506 153.567 21.2506C152.741 21.2506 152.741 20.1329 151.624 20.1329C150.702 20.1329 150.702 21.1534 149.973 21.1534C149.245 21.1534 148.856 20.2301 147.691 20.2301C146.72 20.2301 146.186 20.959 146.186 21.7851Z" fill="#B1C81B"/>
<path d="M139.338 27.1304C139.338 28.6854 141.183 28.2481 141.183 29.6087C141.183 29.8031 140.989 30.532 140.989 30.8235C140.989 31.7468 141.717 32.0384 142.3 32.0384C142.689 32.0384 143.126 31.9412 143.611 31.4067C144.097 30.8721 144.922 30.1918 146.671 30.1918C148.516 30.1918 149.875 31.0179 150.992 31.6496C151.187 30.6292 151.381 30.1918 151.624 29.8031C150.798 28.8798 149.778 28.3453 147.496 27.8593C146.67 27.665 145.942 27.2276 145.942 26.11C145.942 25.4783 146.136 25.1867 146.136 24.6522C146.136 24.0205 145.602 23 144.291 23C143.271 23 142.834 23.7289 142.64 24.4578C142.446 25.1867 142.252 25.4783 141.523 25.4783C139.921 25.4783 139.338 26.3043 139.338 27.1304Z" fill="#009342"/>
<path d="M317.596 99.5846H317.715L320.555 107.756H314.756L317.596 99.5846ZM167.941 99.5846H168.059L170.9 107.756H165.1L167.941 99.5846ZM199.955 96.5646H202.026C206.405 96.5646 208.535 99.8807 208.535 103.611C208.535 107.342 206.405 110.658 202.026 110.658H199.955V96.5646ZM235.224 103.611C235.224 99.2293 238.36 95.9132 242.68 95.9132C247 95.9132 250.136 99.2293 250.136 103.611C250.136 108.052 247 111.309 242.68 111.309C238.36 111.25 235.224 108.052 235.224 103.611ZM93.4977 95.4395H96.634C99.0011 95.4395 99.8295 97.1568 99.8295 98.5187C99.8295 99.8807 99.0011 101.598 96.634 101.598H93.4977V95.4395ZM188.061 116.284C188.061 119.777 190.487 122.146 193.978 122.146H198.476C204.867 122.146 210.488 121.317 214.986 117.29C218.773 113.915 220.962 109 220.962 103.611C220.962 98.2226 218.773 93.3077 214.986 89.9324C210.488 85.9057 204.867 85.0767 198.476 85.0767H193.978C190.487 85.0767 188.061 87.4453 188.061 90.9391V116.284ZM81.6034 116.58C81.6034 120.073 84.0296 122.501 87.521 122.501C91.0123 122.501 93.4385 120.073 93.4385 116.58V110.184H93.5569L101.368 119.777C102.197 120.843 103.794 122.501 106.457 122.501C109.771 122.501 112.375 120.133 112.375 116.757C112.375 114.803 111.428 113.441 110.422 112.316L106.99 108.526C109.771 106.394 111.724 102.96 111.724 98.4003C111.724 92.7155 108.883 88.452 104.031 86.3794C101.546 85.3136 98.9419 85.0767 94.8588 85.0767H87.6985C84.0888 85.0767 81.6034 87.5045 81.6034 91.1167V116.58ZM50.5361 116.284C50.5361 119.777 52.9623 122.146 56.4537 122.146H73.6738C76.751 122.146 78.9996 119.896 78.9996 116.816C78.9996 113.737 76.751 111.487 73.6738 111.487H62.608V108.585H71.721C74.6206 108.585 76.6918 106.513 76.6918 103.611C76.6918 100.71 74.6798 98.6371 71.721 98.6371H62.608V95.7356H73.2596C76.3367 95.7356 78.5854 93.4854 78.5854 90.4061C78.5854 87.3269 76.3367 85.0767 73.2596 85.0767H56.4537C52.9623 85.0767 50.5361 87.4453 50.5361 90.9391V116.284ZM299.489 116.757C299.489 120.014 302.092 122.56 305.347 122.56C308.542 122.56 310.436 120.369 310.909 118.83L311.501 117.172H323.987L324.579 118.83C325.112 120.369 327.005 122.56 330.142 122.56C333.396 122.56 336 119.896 336 116.639C336 115.336 335.586 114.389 334.816 112.553L325.94 91.5312C324.046 87.09 321.975 84.6622 317.655 84.6622C313.336 84.6622 311.264 87.09 309.43 91.5312L300.672 112.553C299.962 114.211 299.489 115.395 299.489 116.757ZM264.812 116.58C264.812 120.073 267.297 122.501 270.729 122.501C274.161 122.501 276.647 120.073 276.647 116.58V105.861H276.765L284.931 118.238C286.766 121.021 288.541 122.501 291.559 122.501C295.11 122.501 297.654 120.014 297.654 116.461V90.5838C297.654 87.09 295.169 84.6622 291.737 84.6622C288.304 84.6622 285.819 87.09 285.819 90.5838V101.302H285.701L277.534 88.9257C275.7 86.1426 273.925 84.6622 270.907 84.6622C267.356 84.6622 264.812 87.1492 264.812 90.7022V116.58ZM149.774 116.757C149.774 120.014 152.378 122.56 155.632 122.56C158.828 122.56 160.721 120.369 161.195 118.83L161.787 117.172H174.273L174.864 118.83C175.397 120.369 177.291 122.56 180.427 122.56C183.682 122.56 186.285 119.896 186.285 116.639C186.285 115.336 185.871 114.389 185.102 112.553L176.344 91.5312C174.45 87.09 172.379 84.6622 168.059 84.6622C163.739 84.6622 161.668 87.09 159.834 91.5312L151.076 112.553C150.306 114.211 149.774 115.395 149.774 116.757ZM0 116.52C0 120.488 2.84044 122.501 5.91758 122.501C9.11307 122.501 11.5393 120.429 12.0719 116.343L13.4329 105.506H13.5513L17.2202 117.586C18.3445 121.139 20.8299 122.56 23.7295 122.56C26.6291 122.56 29.1737 121.139 30.2388 117.586L33.9077 105.506H34.0261L35.3871 116.343C35.9197 120.429 38.3459 122.501 41.5414 122.501C44.6185 122.501 47.459 120.488 47.459 116.52C47.459 116.165 47.3998 115.632 47.3406 115.218L43.435 91.2944C42.7841 87.09 40.1212 84.603 36.0972 84.603C32.1916 84.603 29.6471 86.794 28.4044 90.8206L23.7887 105.625H23.6703L19.0546 90.8206C17.8119 86.794 15.2674 84.603 11.3617 84.603C7.3378 84.603 4.67489 87.0308 4.02395 91.2944L0.118354 115.218C0.0591785 115.632 0 116.165 0 116.52ZM222.974 103.611C222.974 114.507 231.555 122.916 242.621 122.916C253.746 122.916 262.267 114.507 262.267 103.611C262.267 92.7156 253.687 84.3069 242.621 84.3069C231.555 84.3069 222.974 92.7156 222.974 103.611ZM113.854 103.611C113.854 114.862 122.02 122.916 132.968 122.916C138.59 122.916 144.093 120.784 147.111 116.876C148.294 115.395 148.886 113.915 148.886 112.198C148.886 108.763 146.223 106.394 143.087 106.394C138.412 106.394 138.353 110.836 132.968 110.836C129.358 110.836 126.163 108.408 126.104 103.611C126.163 98.874 129.417 96.3869 132.968 96.3869C138.353 96.3869 138.412 100.828 143.087 100.828C146.223 100.828 148.886 98.4595 148.886 95.025C148.886 93.3077 148.294 91.7681 147.111 90.3469C144.093 86.4386 138.59 84.3069 132.968 84.3069C122.08 84.3069 113.854 92.3603 113.854 103.611Z" fill="#009342"/>
</svg>
