<svg height="16" viewBox="0 0 16 16" width="16" xmlns="http://www.w3.org/2000/svg"><g fill="none" fill-rule="evenodd" transform="translate(0 1.067)"><path d="m9.024.623 6.818 12.444c.326.595.132 1.356-.433 1.7-.18.109-.384.166-.591.166h-13.636c-.653 0-1.182-.557-1.182-1.243 0-.219.055-.433.158-.622l6.818-12.445c.326-.596 1.05-.8 1.615-.456.18.11.329.266.433.456z" fill="#fcb831"/><path d="m9.491.367 6.819 12.443c.462.843.188 1.918-.624 2.412a1.67 1.67 0 0 1 -.867.244h-13.637c-.954 0-1.715-.802-1.715-1.778 0-.308.077-.61.223-.878l6.818-12.443c.471-.86 1.531-1.16 2.36-.656.26.158.475.385.623.656z" stroke="#fff" stroke-width="1.067"/><g fill="#000"><rect height="5.029" rx=".813" width="1.625" x="7.2" y="4.267"/><circle cx="8" cy="11.733" r="1.067"/></g></g></svg>