<?xml version="1.0" encoding="UTF-8"?>
<svg width="224px" height="30px" viewBox="0 0 224 30" version="1.1" xmlns="http://www.w3.org/2000/svg" xmlns:xlink="http://www.w3.org/1999/xlink">
    <title>Group</title>
    <g id="Symbols" stroke="none" stroke-width="1" fill="none" fill-rule="evenodd">
        <g id="Bars/-navigation/-top/-main/-large" transform="translate(-24.000000, -23.000000)">
            <g id="Group" transform="translate(24.000000, 23.000000)">
                <g id="logo-horizontal" fill-rule="nonzero">
                    <g id="letras" transform="translate(33.714130, 4.580153)" fill="#009C57">
                        <path d="M11.6161922,9.07433588 L8.7390237,2.66143511 C8.18698348,1.35563359 6.90836935,0.514030534 5.54260304,0.514030534 C3.8860237,0.514030534 2.72368891,1.64578626 2.4037487,3.50280916 L0.19512913,15.8934962 C0.166001957,16.1547939 0.136874783,16.4158626 0.136874783,16.6769313 C0.136874783,18.708229 1.47374326,20.1592214 3.3628813,20.1592214 C5.0192313,20.1592214 6.24004978,19.0274656 6.5595313,17.1704427 L7.0826737,14.0944122 L8.36151717,17.5476183 C9.02983674,19.3464733 10.046765,20.1592214 11.6161922,20.1592214 C13.127365,20.1592214 14.2605726,19.2596794 14.8999943,17.5185344 L16.14994,14.0944122 L16.8762846,17.7218931 C17.1377411,19.1726565 18.4163552,20.1592214 20.0438074,20.1592214 C21.7875389,20.1592214 23.1824324,18.7952519 23.1824324,17.0543359 C23.1824324,16.7641832 23.1535346,16.3870076 23.066153,15.9805191 L20.8575335,3.50280916 C20.6832291,2.45830534 20.4217726,1.90685496 19.869503,1.38448855 C19.3174628,0.862351145 18.4454824,0.514030534 17.6608835,0.514030534 C16.4694215,0.514030534 15.3359846,1.21044275 14.8419693,2.2260916 L11.6161922,9.07433588 Z" id="Fill-1"></path>
                        <path d="M30.8368473,14.0364733 L30.8368473,12.5854809 L33.132619,12.5854809 C34.1497766,12.5854809 34.614894,12.469374 35.1086799,12.0921985 C35.6318223,11.656855 35.9515332,10.9895267 35.9515332,10.2640305 C35.9515332,8.90006107 34.9343755,7.97189313 33.3649484,7.97189313 L30.8368473,7.97189313 L30.8368473,6.63677863 L34.0334973,6.63677863 C35.2249592,6.63677863 35.8935082,6.43387786 36.4746755,5.94036641 C37.1429951,5.38914504 37.5209603,4.51845802 37.5209603,3.59006107 C37.5209603,2.25517557 36.6489799,1.15250382 35.3123408,0.804183206 C34.8761212,0.688076336 34.7020462,0.658992366 32.8709332,0.658992366 L29.0350908,0.658992366 C27.1459527,0.658992366 27.0005462,0.688076336 26.2739723,0.978229008 C25.6056527,1.26861069 24.9953582,1.84891603 24.7339016,2.57441221 C24.4724451,3.18357252 24.4433179,3.3869313 24.4433179,5.01174046 L24.4433179,15.5163206 C24.4433179,16.8512061 24.4724451,17.0254809 24.5595973,17.4315115 C24.7630288,18.5632672 25.4024505,19.3464733 26.390481,19.7529618 C26.9427505,19.9560916 27.3493842,20.0142595 28.8316592,20.0142595 L33.8011679,20.0142595 C35.2540864,20.0142595 35.8061266,19.8690687 36.4455484,19.3464733 C37.0849701,18.7952519 37.4918332,17.9247939 37.4918332,17.0254809 C37.4918332,16.1547939 37.1138679,15.3422748 36.4455484,14.7619695 C35.7772288,14.2105191 35.1669342,14.0364733 33.7720408,14.0364733 L30.8368473,14.0364733 Z" id="Fill-5"></path>
                        <path d="M45.9729093,6.57874809 C46.263493,6.60783206 46.4958224,6.60783206 46.6412289,6.60783206 C47.6003615,6.57874809 48.1232746,6.95592366 48.1232746,7.65233588 C48.1232746,8.34874809 47.6294887,8.6970687 46.6703561,8.66821374 L46.2345952,8.66821374 L45.9729093,8.66821374 L45.9729093,6.57874809 Z M52.3373115,12.5567634 C53.8193572,10.9026412 54.4005246,9.48073282 54.4005246,7.62348092 C54.4005246,4.48951145 52.3081843,1.7908855 49.3147365,0.949282443 C48.4721126,0.746152672 47.7744365,0.659129771 46.205468,0.659129771 L43.5315017,0.659129771 C41.9914311,0.659129771 41.3522387,0.862259542 40.6256648,1.50073282 C39.8699637,2.16806107 39.57938,2.95149618 39.57938,4.34432061 L39.57938,16.2708092 C39.57938,17.4895878 39.8119387,18.3309618 40.3350811,18.9985191 C40.9162485,19.7237863 41.8753811,20.1593588 42.834055,20.1593588 C44.6069137,20.1593588 45.9729093,18.7663053 45.9729093,16.9381374 L45.9729093,14.2974504 L48.6172898,18.6792824 C49.1984572,19.6369924 50.1284626,20.1593588 51.2621289,20.1593588 C53.0636561,20.1593588 54.4587789,18.7953893 54.4587789,17.0253893 C54.4587789,16.3578321 54.255118,15.6032519 53.8484843,14.9650076 L52.3373115,12.5567634 Z" id="Fill-9"></path>
                        <path d="M75.2053539,14.3846794 C75.2053539,12.7305573 73.6941811,11.2504809 72.0087039,11.2504809 C71.1949778,11.2504809 70.3229974,11.6278855 69.8000843,12.1793359 L69.1315354,12.8757481 C68.3760637,13.6882672 67.3297789,14.1524656 66.2837235,14.1524656 C64.1911539,14.1524656 62.5056767,12.4694885 62.5056767,10.3802519 C62.5056767,8.2619313 64.1911539,6.60780916 66.3126213,6.60780916 C67.3586767,6.60780916 68.3760637,7.0140687 69.0735104,7.76841985 L70.0032865,8.78429771 C70.4392767,9.24849618 71.2530028,9.56773282 72.0087039,9.56773282 C73.7813333,9.56773282 75.2053539,8.11674046 75.2053539,6.37559542 C75.2053539,5.09887786 74.4205257,3.79307634 72.8513278,2.54521374 C70.991317,1.00719847 68.7246724,0.194908397 66.3706463,0.194908397 C60.7039202,0.194908397 56.0830202,4.75078626 56.0830202,10.3802519 C56.0830202,15.9806336 60.674793,20.5074275 66.3417485,20.5074275 C68.8118246,20.5074275 71.2238757,19.5790305 73.1127843,17.9537634 C74.47878,16.7642977 75.2053539,15.5452901 75.2053539,14.3846794" id="Fill-13"></path>
                        <path d="M85.4594952,12.875771 L86.4475257,10.5540916 L87.4355561,12.875771 L85.4594952,12.875771 Z M83.5123322,17.4893588 L89.4407441,17.4893588 C90.3416224,19.4627176 91.2136028,20.1593588 92.6956485,20.1593588 C94.4682778,20.1593588 95.9214257,18.7374504 95.9214257,16.9963053 C95.9214257,16.5030229 95.8051463,15.9515725 95.5436898,15.4582901 L89.4407441,2.45821374 C88.8595767,1.23943511 87.755267,0.514167939 86.4475257,0.514167939 C85.1686822,0.514167939 84.0643724,1.23943511 83.5123322,2.42912977 L77.4385137,15.2842443 C77.1770572,15.8354656 77.0316507,16.415771 77.0316507,16.9672214 C77.0316507,18.7663053 78.4265441,20.1593588 80.1994028,20.1593588 C81.7394735,20.1593588 82.6986061,19.3756947 83.5123322,17.4893588 L83.5123322,17.4893588 Z" id="Fill-17"></path>
                        <path d="M103.847182,6.60780916 L104.370324,6.60780916 C105.562016,6.60780916 106.230335,6.72391603 106.84063,7.0140687 C108.090117,7.62345802 108.903843,8.92925954 108.903843,10.3511679 C108.903843,11.5408626 108.293778,12.7305573 107.334645,13.4269695 C106.578944,13.9495649 106.056031,14.0363588 103.847182,14.0652137 L103.847182,6.60780916 Z M101.115649,0.65910687 C99.2554091,0.65910687 98.0641765,1.38460305 97.5990591,2.77742748 C97.453882,3.21277099 97.453882,3.38681679 97.453882,5.01185496 L97.453882,15.6613969 C97.453882,16.9962824 97.453882,17.3155191 97.5701613,17.7506336 C97.7735928,18.5052137 98.1804559,19.0273511 98.9070298,19.4917786 C99.4881972,19.8980382 100.098262,20.014145 101.609435,20.014145 L104.31207,20.014145 C105.648938,20.014145 106.811503,19.9271221 107.596331,19.7819313 C109.281579,19.4338397 110.909031,18.5922366 112.158747,17.431626 C114.134808,15.603229 115.268245,12.991855 115.268245,10.322313 C115.268245,7.56551908 114.105681,4.92483206 112.071595,3.12574809 C110.182457,1.44254198 107.94471,0.65910687 105.038644,0.65910687 L101.115649,0.65910687 Z" id="Fill-21"></path>
                        <path d="M123.453967,10.3222672 C123.453967,8.2618855 125.168571,6.60776336 127.260912,6.60776336 C129.353481,6.60776336 131.067856,8.29096947 131.067856,10.3511221 C131.067856,12.4403588 129.353481,14.1815038 127.260912,14.1815038 C125.168571,14.1815038 123.453967,12.4403588 123.453967,10.3222672 M117.031311,10.2350153 C117.031311,15.9515038 121.565058,20.5076107 127.260912,20.5076107 C132.869842,20.5076107 137.461386,15.9226489 137.461386,10.3222672 C137.461386,4.72165649 132.898969,0.194862595 127.231784,0.194862595 C121.565058,0.194862595 117.031311,4.66371756 117.031311,10.2350153" id="Fill-25"></path>
                        <path d="M150.08047,8.02971756 L144.994911,1.7908626 C144.268337,0.891320611 143.541763,0.514145038 142.611987,0.514145038 C140.60657,0.514145038 139.269701,1.8778855 139.269701,3.93803817 L139.269701,16.1837634 C139.269701,17.6054427 139.415108,18.1859771 139.93825,18.9114733 C140.548316,19.6949084 141.507448,20.1593359 142.495708,20.1593359 C143.454611,20.1593359 144.355489,19.7237634 144.965784,18.9984962 C145.517824,18.301855 145.692358,17.7217786 145.692358,16.4448321 L145.692358,12.3824656 L150.749019,18.8535344 C151.417338,19.7237634 152.260192,20.1593359 153.27712,20.1593359 C154.26538,20.1593359 155.195385,19.7237634 155.776553,18.9696412 C156.328593,18.244145 156.473999,17.6054427 156.473999,16.0678855 L156.473999,4.22841985 C156.473999,3.03872519 156.270568,2.37116794 155.718528,1.67475573 C155.108233,0.949259542 154.236253,0.514145038 153.27712,0.514145038 C152.231064,0.514145038 151.213907,1.06536641 150.661867,1.90696947 C150.196749,2.57429771 150.08047,3.15460305 150.08047,4.43154962 L150.08047,8.02971756 Z" id="Fill-29"></path>
                        <path d="M166.754103,12.875771 L167.742133,10.5540916 L168.730164,12.875771 L166.754103,12.875771 Z M164.80694,17.4893588 L170.735352,17.4893588 C171.63623,19.4627176 172.50821,20.1593588 173.990256,20.1593588 C175.762885,20.1593588 177.216033,18.7374504 177.216033,16.9963053 C177.216033,16.5030229 177.099754,15.9515725 176.838297,15.4582901 L170.735352,2.45821374 C170.154184,1.23943511 169.049874,0.514167939 167.742133,0.514167939 C166.46329,0.514167939 165.359209,1.23943511 164.80694,2.42912977 L158.733121,15.2842443 C158.471665,15.8354656 158.326487,16.415771 158.326487,16.9672214 C158.326487,18.7663053 159.721381,20.1593588 161.49401,20.1593588 C163.034081,20.1593588 163.993214,19.3756947 164.80694,17.4893588 L164.80694,17.4893588 Z" id="Fill-33"></path>
                    </g>
                    <g id="cesta">
                        <path d="M14.9533865,28.817313 C7.27298652,28.817313 1.04688109,22.6006718 1.04688109,14.9312061 C1.04688109,7.26219847 7.27298652,1.04532824 14.9533865,1.04532824 C22.6337865,1.04532824 28.8601213,7.26219847 28.8601213,14.9312061 C28.8601213,22.6006718 22.6337865,28.817313 14.9533865,28.817313 M14.9533865,0.00013740458 C6.69480065,0.00013740458 0.000137608696,6.68487023 0.000137608696,14.9312061 C0.000137608696,23.177771 6.69480065,29.8625038 14.9533865,29.8625038 C23.2122017,29.8625038 29.9068648,23.177771 29.9068648,14.9312061 C29.9068648,6.68487023 23.2122017,0.00013740458 14.9533865,0.00013740458" id="Fill-37" fill="#009C57"></path>
                        <path d="M22.6110123,13.9242137 L15.8152068,13.902916 L15.8413525,5.53726718 C15.8429579,5.07719084 15.4672862,4.69955725 15.0062971,4.69817944 C14.5455373,4.69680916 14.1673427,5.07192366 14.1659666,5.532 L14.1395916,13.8978779 L7.34585033,13.8765802 C6.75803185,13.8747481 6.27548402,14.353374 6.27387859,14.9403206 L6.25001977,22.5296336 C6.24796228,23.1168092 6.72752859,23.5984122 7.31534707,23.6002443 L22.580509,23.6481121 C23.1685568,23.6499389 23.6508753,23.171084 23.6527101,22.5841374 L23.6765663,14.9948244 C23.6781677,14.4076489 23.1988308,13.9262748 22.6110123,13.9242137" id="Fill-39" fill="#FBBA16"></path>
                        <path d="M25.0361821,7.23936641 C25.3093353,7.46150382 25.2187429,7.56478626 25.0455853,7.80387023 C24.4768027,8.5889084 23.4848734,9.73944275 23.4089592,10.4230305 C23.3231832,11.1945573 23.5642277,12.3306641 22.6849082,13.1182214 C22.3207038,13.0964656 18.0238723,13.1035649 18.0238723,13.1035649 C18.8820918,12.0185267 19.9299821,10.077 21.5819745,9.64715267 C22.6039484,9.38150382 23.3202016,8.20303053 23.9763658,7.257 C24.3155712,6.76761069 24.5715234,6.86127481 25.0361821,7.23936641" id="Fill-41" fill="#A71E59"></path>
                        <path d="M20.5970632,9.21467176 C19.9012218,9.64314504 19.4783045,10.1135267 19.0840555,10.5953588 C18.1909751,11.6877252 17.2263382,13.0997863 17.2263382,13.0997863 L16.7823208,13.0981832 C17.3921566,10.9652061 16.4174284,9.49703817 17.3671577,8.9249771 C18.0045153,8.5409313 18.2973925,9.14459542 19.1985001,8.69825954 C20.3289555,8.13833588 20.5970632,9.21467176 20.5970632,9.21467176" id="Fill-43" fill="#BBD43A"></path>
                        <path d="M25.6480821,11.1611221 C25.7987636,11.2401298 25.8661918,11.4295191 25.8327071,11.5960076 C25.7022082,12.2418092 26.6494147,12.7699008 25.9558668,13.257687 C25.266906,13.7422672 25.4455679,14.0587557 25.0421451,14.0573861 C24.5414788,14.0560076 24.7967429,13.4518855 23.6740853,13.1221145 C23.9169647,12.6936412 24.0525092,12.5207405 24.1048005,11.2426489 C24.6059255,10.977 25.2409897,10.947916 25.6480821,11.1611221" id="Fill-45" fill="#BBD43A"></path>
                        <path d="M8.082355,7.19532824 C9.18827022,6.50738931 8.99378326,8.10128244 9.51830174,7.79029008 C9.79810609,7.62425954 10.0646083,7.76051908 10.096717,7.97166412 C10.1763007,8.49036641 9.51027457,9.40525191 9.53366804,9.97456489 C9.53504413,10.0047939 9.5114213,10.0281527 9.48137674,10.0244885 C9.369455,10.0112061 9.28688978,10.0118931 8.88186152,10.1119695 C8.52040935,10.2012824 8.0871713,10.4907481 8.0871713,10.4907481 C7.55187348,10.3061679 7.05877565,10.008687 6.51201043,9.70754198 C6.10858761,9.48540458 6.00928,9.3150229 6.00629848,8.98845802 C6.00285826,8.59021374 6.31775283,8.51189313 6.19596913,8.25128244 C6.02785717,7.89059542 5.85928652,7.46601527 6.05400283,7.11792366 C6.16202565,6.94639695 6.383805,6.75838168 6.60168543,6.76754198 C7.35371696,6.75242748 7.45875826,7.58326718 8.082355,7.19532824" id="Fill-47" fill="#BBD43A"></path>
                        <path d="M5.17117424,8.65591603 C5.22071337,8.7569084 5.24410685,8.80751908 5.18332967,8.91812977 C4.98150359,9.28385496 5.14273511,9.67729008 5.40763185,10.0430153 C5.84614489,10.6473664 7.11306228,10.9982061 7.69010141,11.1839313 L7.52932859,11.6813359 C6.22479815,11.3394275 5.40763185,11.4477481 4.42441772,11.685 C4.42441772,11.685 3.87444163,11.9192748 3.53225467,11.6091985 C3.18846228,11.2972901 3.35221663,10.9093511 3.53569489,10.7531679 C3.53569489,10.7531679 2.76485685,10.2717939 3.11163076,9.56805344 C3.38271989,9.01751908 3.90494489,9.0990458 3.90494489,9.0990458 C3.90494489,9.0990458 3.78476663,8.49148855 4.34070576,8.21278626 C4.67692967,8.04446565 4.96820141,8.25515267 4.96820141,8.25515267 C5.05627098,8.45026718 5.11957098,8.55125954 5.17117424,8.65591603" id="Fill-49" fill="#BBD43A"></path>
                        <path d="M7.32578239,12.5157252 L7.32417696,13.0687786 C6.09510196,13.0245802 5.54283239,13.4521374 5.2258737,14.400916 C4.88001717,15.6664122 2.81061174,15.1268702 3.51356283,13.4219084 C4.05069543,12.2207634 5.98432696,12.0959542 7.32578239,12.5157252" id="Fill-51" fill="#BBD43A"></path>
                        <path d="M13.2588272,10.4921221 C12.7907283,10.4676183 12.3097859,10.5814351 11.9726446,10.8269313 C10.9797978,10.2024275 10.2410685,10.3576947 10.3192761,10.2427328 C10.7437989,9.61754198 12.0696587,9.08922137 13.2682304,9.64914504 C13.2682304,9.64914504 13.2808446,10.2999847 13.2588272,10.4921221" id="Fill-53" fill="#F05C2B"></path>
                        <path d="M11.3080175,11.2675878 C11.2428827,11.3323969 11.1821055,11.394229 11.125686,11.454458 C10.5282349,12.0943053 10.4695218,13.0167481 10.4695218,13.0167481 L8.15975989,13.0094198 C8.10471641,12.6936183 8.10540446,12.3336183 8.16205337,12.0869771 C8.35791641,11.2355267 8.92876315,10.8169008 9.86037402,10.8203149 C10.3729664,10.8223969 10.8979436,10.9584275 11.3022838,11.1961374 C11.3270534,11.2107939 11.3282001,11.2472061 11.3080175,11.2675878" id="Fill-55" fill="#F05C2B"></path>
                        <path d="M13.2621757,13.0873511 L11.3163887,13.0813969 C11.3744137,12.0453664 12.0246148,11.4348321 12.5216115,11.2848321 C12.6959159,11.2321603 12.9947561,11.1852137 13.2681387,11.1879618 L13.2621757,13.0873511 Z" id="Fill-57" fill="#F05C2B"></path>
                    </g>
                </g>
                <path d="M214.994192,11.5 C216.417498,11.5 217.961896,11.9297605 219.057671,12.9512846 C219.947967,13.7812544 220.559037,15.0000587 220.559037,16.721648 C220.559037,18.0212432 219.811943,19.5947752 218.193037,21.4962229 C219.444053,22.5547464 220.89399,23.7548855 222.509337,25.0688113 L222.509337,25.0688113 L219.98594,28.7127968 C218.016377,27.233329 216.441576,25.9601567 215.115001,24.7861489 C214.297823,25.3972029 213.512388,26.0111976 212.715149,26.6343604 C211.918576,27.2570016 211.110312,27.8887524 210.247581,28.5358492 L210.247581,28.5358492 L207.276381,25.2438244 C209.079282,23.7770161 210.55025,22.5598057 211.806543,21.4958955 C210.188038,19.5941572 209.440963,18.0212151 209.440963,16.721648 C209.440963,15.0012843 210.051185,13.7829984 210.939355,12.9531078 C212.034173,11.9301296 213.57682,11.5 214.994192,11.5 Z M214.997451,15.5085744 C214.079703,15.5115814 213.342064,15.5873241 212.807747,15.6951389 C212.617607,15.7335055 212.458152,15.7778797 212.25065,15.8926692 C212.480436,16.2214376 213.175199,16.9534264 215.000364,18.58757 C216.653757,17.1253817 217.691404,16.2428016 217.677931,15.819534 C217.545449,15.7754512 217.382701,15.7337188 217.191386,15.6951293 C216.656898,15.5873191 215.918971,15.5115814 214.997451,15.5085744 Z" id="crespon" stroke="#FFFFFF" fill="#000000"></path>
            </g>
        </g>
    </g>
</svg>