<svg height="287" viewBox="0 0 773 287" width="773" xmlns="http://www.w3.org/2000/svg"><g fill="#fff" fill-rule="evenodd"><g transform="translate(0 197)"><path d="m50.2111 39.7512-12.544-28.003c-2.407-5.702-7.982-9.377-13.938-9.377-7.223 0-12.291 4.942-13.685 13.052l-9.63 54.105c-.127 1.141-.254 2.281-.254 3.421 0 8.87 5.829 15.206 14.066 15.206 7.222 0 12.544-4.942 13.937-13.051l2.281-13.432 5.576 15.079c2.915 7.855 7.349 11.404 14.191 11.404 6.59 0 11.531-3.928 14.319-11.531l5.449-14.952 3.168 15.839c1.14 6.336 6.715 10.644 13.811 10.644 7.603 0 13.685-5.956 13.685-13.558 0-1.267-.127-2.914-.507-4.689l-9.63-54.485c-.761-4.563-1.901-6.97-4.309-9.251-2.407-2.28-6.209-3.801-9.63-3.801-5.195 0-10.136 3.041-12.291 7.476z"/><path d="m134.0167 61.4192v-6.336h10.011c4.434 0 6.462-.507 8.616-2.154 2.28-1.901 3.675-4.815 3.675-7.983 0-5.956-4.436-10.01-11.278-10.01h-11.024v-5.829h13.938c5.196 0 8.11-.886 10.644-3.041 2.915-2.408 4.562-6.209 4.562-10.263 0-5.829-3.801-10.644-9.63-12.165-1.901-.507-2.661-.634-10.644-.634h-16.725c-8.238 0-8.871.127-12.039 1.394-2.914 1.268-5.575 3.802-6.715 6.969-1.141 2.661-1.267 3.549-1.267 10.644v45.87c0 5.829.126 6.589.507 8.363.887 4.942 3.675 8.362 7.982 10.137 2.408.887 4.182 1.141 10.644 1.141h21.668c6.335 0 8.743-.634 11.531-2.916 2.787-2.407 4.561-6.208 4.561-10.136 0-3.801-1.647-7.35-4.561-9.884-2.915-2.407-5.576-3.167-11.658-3.167z"/><path d="m200.0128 28.8537c1.268.127 2.281.127 2.915.127 4.181-.127 6.462 1.52 6.462 4.561s-2.154 4.562-6.336 4.436h-1.9-1.141zm27.75 26.103c6.462-7.222 8.996-13.432 8.996-21.541 0-13.685-9.123-25.469-22.174-29.144-3.675-.887-6.716-1.268-13.558-1.268h-11.658c-6.715 0-9.502.888-12.67 3.675-3.295 2.915-4.562 6.336-4.562 12.418v52.079c0 5.322 1.014 8.996 3.294 11.911 2.534 3.167 6.716 5.069 10.897 5.069 7.73 0 13.685-6.083 13.685-14.066v-11.531l11.531 19.134c2.534 4.182 6.589 6.463 11.531 6.463 7.856 0 13.938-5.956 13.938-13.686 0-2.914-.887-6.209-2.661-8.996z"/><path d="m327.4718 62.9397c0-7.223-6.589-13.686-13.938-13.686-3.548 0-7.35 1.648-9.63 4.056l-2.914 3.041c-3.295 3.548-7.857 5.575-12.418 5.575-9.123 0-16.473-7.349-16.473-16.472 0-9.25 7.35-16.473 16.6-16.473 4.561 0 8.996 1.774 12.037 5.068l4.054 4.435c1.901 2.028 5.45 3.422 8.744 3.422 7.729 0 13.938-6.336 13.938-13.939 0-5.575-3.421-11.277-10.264-16.725-8.109-6.716-17.993-10.264-28.257-10.264-24.708 0-44.855 19.894-44.855 44.476 0 24.455 20.02 44.221 44.73 44.221 10.769 0 21.287-4.053 29.523-11.15 5.955-5.194 9.123-10.517 9.123-15.585"/><path d="m372.1818 56.3508 4.309-10.138 4.307 10.138zm-8.489 20.146h25.848c3.929 8.617 7.73 11.659 14.193 11.659 7.729 0 14.064-6.209 14.064-13.813 0-2.153-.507-4.56-1.647-6.716l-26.61-56.766c-2.534-5.322-7.348-8.49-13.05-8.49-5.576 0-10.391 3.168-12.798 8.364l-26.484 56.133c-1.139 2.407-1.773 4.941-1.773 7.349 0 7.856 6.082 13.939 13.811 13.939 6.716 0 10.897-3.422 14.446-11.659z"/><path d="m452.3566 28.9807h2.281c5.195 0 8.11.507 10.77 1.774 5.449 2.661 8.997 8.363 8.997 14.572 0 5.195-2.661 10.39-6.843 13.431-3.294 2.281-5.575 2.661-15.205 2.787zm-11.911-25.977c-8.11 0-13.305 3.168-15.332 9.25-.634 1.902-.634 2.663-.634 9.757v46.504c0 5.828 0 7.223.507 9.123.887 3.295 2.661 5.575 5.829 7.603 2.534 1.774 5.195 2.281 11.784 2.281h11.784c5.829 0 10.898-.381 14.319-1.014 7.349-1.52 14.445-5.195 19.893-10.263 8.616-7.984 13.559-19.387 13.559-31.045 0-12.037-5.069-23.569-13.939-31.424-8.236-7.35-17.993-10.772-30.664-10.772z"/><path d="m537.8448 45.1994c0-8.996 7.476-16.219 16.6-16.219 9.123 0 16.599 7.35 16.599 16.346 0 9.123-7.476 16.726-16.599 16.726-9.124 0-16.6-7.603-16.6-16.853m-28.003-.38c0 24.963 19.767 44.856 44.603 44.856 24.455 0 44.475-20.02 44.475-44.476 0-24.455-19.893-44.222-44.602-44.222s-44.476 19.514-44.476 43.842"/><path d="m653.9425 35.1897-22.175-27.243c-3.168-3.928-6.335-5.575-10.39-5.575-8.743 0-14.572 5.955-14.572 14.952v53.471c0 6.209.634 8.744 2.914 11.912 2.661 3.421 6.843 5.449 11.151 5.449 4.181 0 8.109-1.902 10.771-5.069 2.407-3.041 3.167-5.576 3.167-11.151v-17.739l22.048 28.257c2.915 3.8 6.589 5.702 11.024 5.702 4.308 0 8.363-1.902 10.897-5.195 2.408-3.168 3.042-5.957 3.042-12.671v-51.7c0-5.195-.888-8.109-3.295-11.15-2.661-3.168-6.462-5.068-10.644-5.068-4.561 0-8.997 2.407-11.404 6.082-2.027 2.914-2.534 5.448-2.534 11.023z"/><path d="m726.6417 56.3508 4.309-10.138 4.307 10.138zm-8.489 20.146h25.848c3.929 8.617 7.73 11.659 14.193 11.659 7.729 0 14.065-6.209 14.065-13.813 0-2.153-.508-4.56-1.647-6.716l-26.611-56.766c-2.534-5.322-7.348-8.49-13.05-8.49-5.576 0-10.391 3.168-12.798 8.364l-26.483 56.133c-1.14 2.407-1.774 4.941-1.774 7.349 0 7.856 6.082 13.939 13.811 13.939 6.716 0 10.898-3.422 14.446-11.659z"/></g><g transform="translate(300)"><path d="m88.5099 170.1467c-45.28 0-81.987-36.707-81.987-81.987 0-45.281 36.707-81.988 81.987-81.988 45.281 0 81.987 36.707 81.987 81.988 0 45.28-36.706 81.987-81.987 81.987m0-170.146c-48.689 0-88.159 39.469-88.159 88.159 0 48.689 39.47 88.159 88.159 88.159s88.159-39.47 88.159-88.159c0-48.69-39.47-88.159-88.159-88.159"/><path d="m133.6564 82.2136-40.065-.125.154-49.395c.009-2.716-2.207-4.946-4.924-4.955-2.717-.008-4.946 2.208-4.954 4.925l-.155 49.393-40.053-.125c-3.466-.011-6.31 2.816-6.32 6.281l-.141 44.811c-.011 3.465 2.815 6.309 6.281 6.32l89.997.282c3.466.01 6.31-2.816 6.321-6.281l.14-44.811c.011-3.465-2.815-6.309-6.281-6.32"/><path d="m147.9542 42.7434c1.61 1.312 1.076 1.921.055 3.334-3.354 4.634-9.201 11.428-9.649 15.464-.506 4.556.915 11.264-4.268 15.912-2.149-.127-27.48-.085-27.48-.085 5.059-6.406 11.238-17.871 20.978-20.408 6.023-1.57 10.246-8.528 14.115-14.113 2-2.889 3.508-2.336 6.249-.104"/><path d="m121.7823 54.4065c-4.103 2.53-6.596 5.307-8.92 8.152-5.267 6.451-10.953 14.787-10.953 14.787l-2.617-.008c3.595-12.596-2.151-21.264 3.448-24.642 3.758-2.268 5.484 1.298 10.798-1.338 6.664-3.306 8.244 3.049 8.244 3.049"/><path d="m151.5607 65.8991c.89.466 1.287 1.584 1.088 2.569-.768 3.811 4.816 6.93.726 9.809-4.061 2.86-3.007 4.73-5.385 4.723-2.952-.01-1.448-3.576-8.067-5.523 1.433-2.529 2.232-3.551 2.539-11.097 2.954-1.568 6.699-1.739 9.099-.481"/><path d="m48.0011 42.4831c6.521-4.062 5.372 5.349 8.465 3.513 1.651-.981 3.221-.176 3.411 1.071.469 3.062-3.458 8.464-3.319 11.826.007.178-.131.316-.309.295-.66-.079-1.146-.074-3.534.517-2.131.527-4.687 2.236-4.687 2.236-3.156-1.09-6.061-2.847-9.284-4.624-2.38-1.312-2.965-2.319-2.982-4.247-.022-2.35 1.836-2.813 1.119-4.352-.992-2.13-1.986-4.636-.837-6.692.636-1.013 1.943-2.122 3.228-2.069 4.433-.089 5.052 4.817 8.729 2.526"/><path d="m30.837 51.1076c.294.596.432.894.072 1.547-1.189 2.16-.239 4.484 1.324 6.642 2.584 3.569 10.054 5.64 13.456 6.738l-.948 2.936c-7.691-2.019-12.508-1.379-18.305.02 0 0-3.244 1.384-5.26-.447-2.027-1.84-1.062-4.131.019-5.054 0 0-4.545-2.841-2.5-6.997 1.599-3.251 4.677-2.77 4.677-2.77s-.708-3.587 2.57-5.231c1.982-.995 3.7.249 3.7.249.518 1.152.891 1.749 1.195 2.367"/><path d="m43.5411 73.8972-.01 3.265c-7.247-.262-10.503 2.263-12.371 7.865-2.039 7.472-14.239 4.287-10.095-5.78 3.167-7.093 14.568-7.829 22.476-5.35"/><path d="m78.5197 61.9485c-2.761-.145-5.595.527-7.584 1.978-5.852-3.687-10.208-2.771-9.748-3.451 2.504-3.691 10.322-6.811 17.387-3.504 0 0 .074 3.843-.055 4.977"/><path d="m67.0177 66.5276c-.383.383-.742.747-1.074 1.104-3.524 3.777-3.869 9.224-3.869 9.224l-13.617-.043c-.325-1.866-.32-3.99.014-5.447 1.154-5.027 4.52-7.499 10.011-7.479 3.022.012 6.118.816 8.501 2.22.146.086.154.301.034.421"/><path d="m78.5402 77.2722-11.474-.036c.342-6.117 4.176-9.72 7.106-10.607 1.029-.311 2.79-.588 4.403-.571z"/></g></g></svg>