<svg height="131" viewBox="0 0 920 131" width="920" xmlns="http://www.w3.org/2000/svg"><g fill="#fff" fill-rule="evenodd"><g transform="translate(147 20)"><path d="m50.6488 39.6246-12.545-28.003c-2.407-5.702-7.982-9.377-13.937-9.377-7.223 0-12.291 4.942-13.686 13.051l-9.63 54.106c-.127 1.141-.254 2.281-.254 3.421 0 8.87 5.829 15.206 14.066 15.206 7.222 0 12.545-4.942 13.938-13.051l2.281-13.432 5.576 15.079c2.914 7.855 7.348 11.404 14.191 11.404 6.589 0 11.53-3.928 14.318-11.531l5.45-14.952 3.167 15.84c1.14 6.335 6.715 10.643 13.811 10.643 7.603 0 13.685-5.956 13.685-13.558 0-1.267-.126-2.914-.507-4.689l-9.63-54.486c-.76-4.561-1.9-6.969-4.308-9.25-2.407-2.28-6.209-3.801-9.63-3.801-5.195 0-10.137 3.041-12.291 7.476z"/><path d="m134.4545 61.2926v-6.336h10.01c4.435 0 6.463-.507 8.616-2.154 2.281-1.901 3.675-4.815 3.675-7.983 0-5.956-4.435-10.009-11.278-10.009h-11.023v-5.83h13.938c5.195 0 8.11-.886 10.644-3.041 2.914-2.407 4.562-6.209 4.562-10.263 0-5.829-3.802-10.644-9.63-12.165-1.902-.507-2.661-.634-10.645-.634h-16.725c-8.237 0-8.871.127-12.039 1.394-2.914 1.268-5.575 3.802-6.715 6.97-1.14 2.66-1.267 3.548-1.267 10.643v45.87c0 5.829.127 6.59.507 8.363.887 4.942 3.675 8.362 7.983 10.137 2.408.887 4.181 1.141 10.644 1.141h21.668c6.335 0 8.742-.634 11.53-2.916 2.788-2.407 4.562-6.208 4.562-10.135 0-3.802-1.648-7.35-4.562-9.884-2.914-2.408-5.575-3.168-11.657-3.168z"/><path d="m200.4506 28.7272c1.267.127 2.28.127 2.914.127 4.182-.127 6.462 1.52 6.462 4.561s-2.153 4.562-6.335 4.436h-1.9-1.141zm27.75 26.104c6.462-7.223 8.996-13.432 8.996-21.542 0-13.685-9.123-25.469-22.175-29.144-3.674-.887-6.716-1.267-13.557-1.267h-11.659c-6.715 0-9.502.887-12.67 3.675-3.295 2.914-4.562 6.335-4.562 12.417v52.079c0 5.322 1.014 8.996 3.295 11.911 2.534 3.167 6.716 5.069 10.896 5.069 7.73 0 13.686-6.083 13.686-14.066v-11.531l11.53 19.134c2.534 4.182 6.589 6.463 11.532 6.463 7.855 0 13.938-5.956 13.938-13.685 0-2.915-.888-6.21-2.661-8.997z"/><path d="m327.9096 62.8131c0-7.223-6.589-13.686-13.938-13.686-3.548 0-7.35 1.648-9.63 4.056l-2.915 3.041c-3.294 3.548-7.856 5.575-12.417 5.575-9.124 0-16.473-7.349-16.473-16.472 0-9.25 7.349-16.473 16.599-16.473 4.561 0 8.997 1.774 12.038 5.068l4.054 4.436c1.901 2.027 5.449 3.421 8.744 3.421 7.729 0 13.938-6.336 13.938-13.939 0-5.575-3.422-11.277-10.264-16.726-8.11-6.716-17.993-10.263-28.257-10.263-24.708 0-44.856 19.894-44.856 44.476 0 24.455 20.021 44.222 44.73 44.222 10.77 0 21.287-4.054 29.523-11.151 5.956-5.194 9.124-10.517 9.124-15.585"/><path d="m372.6196 56.2242 4.308-10.138 4.308 10.138zm-8.49 20.146h25.849c3.928 8.617 7.73 11.659 14.192 11.659 7.729 0 14.065-6.209 14.065-13.812 0-2.154-.507-4.562-1.647-6.716l-26.61-56.767c-2.534-5.322-7.349-8.489-13.051-8.489-5.576 0-10.391 3.167-12.798 8.362l-26.483 56.134c-1.14 2.407-1.774 4.941-1.774 7.349 0 7.856 6.082 13.939 13.812 13.939 6.715 0 10.897-3.422 14.445-11.659z"/><path d="m452.7934 28.8541h2.281c5.196 0 8.11.507 10.771 1.774 5.448 2.661 8.996 8.363 8.996 14.572 0 5.195-2.66 10.39-6.842 13.431-3.295 2.282-5.575 2.661-15.206 2.787zm-11.91-25.976c-8.111 0-13.305 3.168-15.333 9.25-.633 1.901-.633 2.661-.633 9.757v46.503c0 5.829 0 7.223.507 9.123.887 3.295 2.661 5.575 5.829 7.603 2.534 1.774 5.194 2.281 11.783 2.281h11.784c5.829 0 10.898-.38 14.32-1.014 7.348-1.52 14.444-5.195 19.893-10.263 8.616-7.984 13.558-19.387 13.558-31.044 0-12.038-5.069-23.569-13.938-31.425-8.237-7.35-17.994-10.771-30.665-10.771z"/><path d="m538.2827 45.0739c0-8.997 7.476-16.22 16.599-16.22 9.124 0 16.599 7.35 16.599 16.346 0 9.123-7.475 16.726-16.599 16.726-9.123 0-16.599-7.603-16.599-16.852m-28.004-.381c0 24.962 19.768 44.857 44.603 44.857 24.456 0 44.476-20.021 44.476-44.476 0-24.456-19.893-44.223-44.603-44.223-24.708 0-44.476 19.514-44.476 43.842"/><path d="m654.3793 35.0631-22.174-27.243c-3.168-3.928-6.336-5.575-10.39-5.575-8.744 0-14.573 5.955-14.573 14.951v53.473c0 6.208.634 8.743 2.915 11.911 2.66 3.421 6.842 5.449 11.151 5.449 4.181 0 8.109-1.902 10.77-5.069 2.407-3.042 3.168-5.575 3.168-11.151v-17.739l22.048 28.257c2.914 3.8 6.589 5.702 11.023 5.702 4.309 0 8.364-1.902 10.898-5.195 2.407-3.168 3.041-5.957 3.041-12.671v-51.699c0-5.195-.887-8.11-3.294-11.151-2.661-3.168-6.463-5.068-10.645-5.068-4.561 0-8.996 2.407-11.403 6.082-2.028 2.914-2.535 5.448-2.535 11.024z"/><path d="m727.0795 56.2242 4.308-10.138 4.308 10.138zm-8.49 20.146h25.849c3.928 8.617 7.73 11.659 14.192 11.659 7.729 0 14.065-6.209 14.065-13.812 0-2.154-.507-4.562-1.647-6.716l-26.61-56.767c-2.534-5.322-7.349-8.489-13.051-8.489-5.576 0-10.39 3.167-12.798 8.362l-26.483 56.134c-1.14 2.407-1.773 4.941-1.773 7.349 0 7.856 6.082 13.939 13.811 13.939 6.715 0 10.897-3.422 14.445-11.659z"/></g><path d="m65.1996 125.8356c-33.488 0-60.635-27.146-60.635-60.636 0-33.488 27.147-60.635 60.635-60.635s60.636 27.147 60.636 60.635c0 33.49-27.148 60.636-60.636 60.636m0-125.835c-36.009 0-65.199 29.19-65.199 65.199 0 36.01 29.19 65.2 65.199 65.2 36.01 0 65.2-29.19 65.2-65.2 0-36.009-29.19-65.199-65.2-65.199"/><path d="m98.5883 60.8024-29.631-.093.114-36.53c.007-2.009-1.631-3.658-3.641-3.664-2.009-.006-3.658 1.632-3.664 3.641l-.115 36.531-29.622-.093c-2.563-.008-4.667 2.082-4.674 4.645l-.104 33.14c-.009 2.564 2.082 4.667 4.645 4.675l66.559.209c2.564.008 4.667-2.083 4.675-4.646l.104-33.14c.007-2.564-2.083-4.666-4.646-4.675"/><path d="m109.1625 31.6119c1.191.97.796 1.421.041 2.465-2.48 3.428-6.805 8.452-7.136 11.437-.374 3.369.677 8.33-3.157 11.769-1.588-.095-20.323-.064-20.323-.064 3.742-4.738 8.311-13.216 15.514-15.093 4.456-1.16 7.579-6.306 10.44-10.437 1.479-2.137 2.595-1.728 4.621-.077"/><path d="m89.8071 40.2374c-3.034 1.871-4.878 3.925-6.597 6.029-3.894 4.77-8.1 10.936-8.1 10.936l-1.936-.007c2.659-9.314-1.591-15.725 2.55-18.223 2.779-1.677 4.056.959 7.985-.99 4.929-2.445 6.098 2.255 6.098 2.255"/><path d="m111.8305 48.7369c.657.345.951 1.172.805 1.899-.569 2.82 3.561 5.126.537 7.256-3.004 2.116-2.225 3.498-3.984 3.492-2.183-.006-1.07-2.644-5.965-4.084 1.059-1.871 1.65-2.626 1.878-8.207 2.185-1.16 4.954-1.287 6.729-.356"/><path d="m35.2406 31.4196c4.822-3.004 3.974 3.956 6.261 2.598 1.22-.725 2.382-.13 2.522.792.347 2.265-2.557 6.26-2.455 8.746.006.132-.097.234-.228.218-.488-.058-.848-.055-2.614.382-1.576.39-3.465 1.654-3.465 1.654-2.334-.806-4.484-2.105-6.868-3.42-1.759-.97-2.192-1.714-2.205-3.14-.015-1.739 1.358-2.081.827-3.219-.733-1.575-1.468-3.429-.619-4.949.471-.749 1.438-1.57 2.388-1.53 3.279-.066 3.737 3.562 6.456 1.868"/><path d="m22.5473 37.7975c.216.441.318.662.053 1.145-.88 1.597-.177 3.315.978 4.912 1.912 2.639 7.436 4.171 9.952 4.982l-.701 2.172c-5.688-1.493-9.251-1.02-13.538.016 0 0-2.398 1.023-3.89-.331-1.499-1.362-.785-3.056.015-3.738 0 0-3.361-2.102-1.849-5.175 1.182-2.404 3.459-2.048 3.459-2.048s-.524-2.653 1.9-3.87c1.466-.735 2.736.185 2.736.185.384.852.66 1.293.885 1.75"/><path d="m31.9418 54.652-.007 2.415c-5.359-.193-7.767 1.674-9.149 5.817-1.508 5.526-10.531 3.17-7.466-4.275 2.342-5.245 10.773-5.79 16.622-3.957"/><path d="m57.811 45.8156c-2.041-.107-4.138.39-5.608 1.462-4.329-2.727-7.55-2.049-7.209-2.551 1.851-2.73 7.632-5.037 12.858-2.592 0 0 .055 2.842-.041 3.681"/><path d="m49.3051 49.2018c-.284.283-.549.553-.795.816-2.605 2.794-2.861 6.822-2.861 6.822l-10.071-.032c-.24-1.379-.237-2.951.01-4.028.854-3.718 3.343-5.546 7.405-5.531 2.235.009 4.524.603 6.287 1.641.108.064.113.223.025.312"/><path d="m57.8256 57.1481-8.484-.026c.253-4.524 3.088-7.19 5.255-7.845.76-.23 2.063-.435 3.255-.423z"/></g></svg>