<svg height="35" viewBox="0 0 242 35" width="242" xmlns="http://www.w3.org/2000/svg"><g fill="none" fill-rule="evenodd"><path d="m4.363 1.539c-1.859 0-3.37 1.553-3.37 3.461v25.178c0 1.908 1.511 3.461 3.37 3.461h24.515c1.859 0 3.37-1.553 3.37-3.461v-25.178c0-1.908-1.511-3.461-3.37-3.461zm24.515 33.119h-24.515c-2.406 0-4.363-2.01-4.363-4.48v-25.178c0-2.47 1.957-4.48 4.363-4.48h24.515c2.406 0 4.363 2.01 4.363 4.48v25.178c0 2.47-1.957 4.48-4.363 4.48z" fill="#4ea77a"/><path d="m25.765 17.269h-8.121v-10.282c0-.566-.45-1.029-1-1.029-.551 0-1.002.463-1.002 1.029v10.282h-8.118c-.703 0-1.278.59-1.278 1.311v9.328c0 .721.575 1.312 1.278 1.312h18.241c.703 0 1.277-.59 1.277-1.312v-9.328c0-.721-.574-1.311-1.277-1.311" fill="#fbbb17"/><path d="m16.699 20.039c-.646 0-1.247.223-1.789.66-.584-.437-1.196-.66-1.817-.66-1.533 0-2.827 1.3-2.827 2.838v2.833c0 .686.423 1.164 1.03 1.164.609 0 1.028-.466 1.043-1.164v-2.385c0-.378.014-.511.07-.684a.722.722 0 0 1 .71-.525c.322 0 .614.219.697.526.031.105.069.31.069.683v2.385c0 .686.429 1.164 1.043 1.164.616 0 1.03-.468 1.03-1.164v-2.385c0-.455.044-.624.135-.812a.684.684 0 0 1 .619-.37c.298 0 .577.179.677.434.063.163.09.303.09.748v2.385c0 .686.428 1.164 1.043 1.164.61 0 1.014-.455 1.03-1.164v-2.714c0-1.63-1.28-2.957-2.853-2.957m5.042.041c-.6 0-1.015.465-1.03 1.162v4.469c0 .684.429 1.163 1.043 1.163.602 0 1.015-.466 1.03-1.163v-4.469c0-.685-.428-1.163-1.043-1.163" fill="#fff"/><path d="m29.147 9.042c.327.27.22.399.013.693-.677.967-1.857 2.385-1.945 3.225-.1.95.192 2.345-.856 3.316-.435-.026-5.57 0-5.57 0 1.022-1.337 2.266-3.727 4.24-4.262 1.219-.33 2.071-1.782 2.851-2.947.404-.603.71-.489 1.267-.025" fill="#a71e59"/><path d="m23.34 11.488c-.829.53-1.333 1.109-1.802 1.703-1.063 1.346-2.21 3.085-2.21 3.085h-.531c.721-2.625-.45-4.425.683-5.132.76-.474 1.113.267 2.188-.285 1.348-.693 1.673.629 1.673.629m6.878 2.37c.18.097.262.33.222.534-.153.794.98 1.44.154 2.041-.822.599-.607.987-1.089.987-.598 0-.296-.743-1.639-1.144.289-.527.45-.74.508-2.312.598-.328 1.357-.366 1.844-.106m-21.84-4.804c1.318-.85 1.092 1.11 1.718.726.333-.205.652-.039.692.22.097.638-.696 1.765-.666 2.465.002.036-.026.066-.062.06-.134-.015-.233-.014-.716.111-.431.111-.948.468-.948.468-.64-.225-1.231-.589-1.886-.956-.483-.272-.602-.481-.607-.882-.005-.49.37-.587.225-.907-.203-.443-.406-.964-.175-1.392.129-.211.393-.444.654-.433.898-.022 1.027 1 1.77.52m-3.473 1.806c.06.124.088.186.016.323-.24.45-.046.933.272 1.381.526.742 2.041 1.167 2.732 1.394l-.19.612c-1.56-.415-2.537-.279-3.71.016 0 0-.658.29-1.067-.09-.412-.381-.218-.859 0-1.052 0 0-.922-.588-.51-1.454.322-.678.946-.58.946-.58s-.146-.747.517-1.09c.401-.209.75.049.75.049.106.24.182.363.244.491m2.59 4.736v.68c-1.47-.05-2.128.478-2.503 1.645-.409 1.557-2.883.902-2.05-1.197.637-1.478 2.948-1.638 4.553-1.128" fill="#bbd43a"/><path d="m14.577 13.086c-.56-.028-1.134.114-1.536.417-1.189-.764-2.071-.57-1.978-.712.505-.77 2.088-1.425 3.522-.74 0 0 .017.799-.008 1.035m-2.329.961c-.077.08-.15.156-.217.23-.711.79-.778 1.923-.778 1.923h-2.76c-.067-.388-.068-.83 0-1.134.23-1.048.91-1.564 2.024-1.563.612 0 1.24.165 1.724.456.03.018.032.063.007.088m2.342 2.229h-2.325c.066-1.273.84-2.026 1.433-2.213.21-.065.565-.124.893-.122v2.335z" fill="#f05c2c"/><path d="m54.615 16.11-3.255-7.46c-.625-1.52-2.07-2.498-3.616-2.498-1.873 0-3.188 1.316-3.55 3.476l-2.497 14.414a8.487 8.487 0 0 0 -.066.912c0 2.363 1.512 4.05 3.648 4.05 1.874 0 3.254-1.316 3.616-3.477l.591-3.578 1.447 4.017c.756 2.093 1.906 3.039 3.68 3.039 1.71 0 2.992-1.047 3.715-3.072l1.413-3.984.822 4.22c.296 1.687 1.742 2.836 3.582 2.836 1.973 0 3.55-1.587 3.55-3.613 0-.337-.032-.776-.131-1.249l-2.497-14.515c-.197-1.215-.493-1.856-1.117-2.464-.625-.607-1.611-1.012-2.498-1.012-1.348 0-2.63.81-3.188 1.991l-3.65 7.966zm21.739 5.772v-1.688h2.596c1.15 0 1.677-.135 2.235-.574a2.794 2.794 0 0 0 .953-2.126c0-1.587-1.15-2.667-2.925-2.667h-2.86v-1.553h3.616c1.348 0 2.103-.237 2.761-.81.756-.642 1.183-1.654 1.183-2.734 0-1.553-.986-2.836-2.498-3.24-.493-.136-.69-.17-2.76-.17h-4.34c-2.136 0-2.3.034-3.122.372-.756.338-1.446 1.012-1.742 1.856-.296.71-.329.946-.329 2.836v12.22c0 1.552.033 1.754.132 2.227.23 1.317.953 2.228 2.07 2.7.625.237 1.085.304 2.762.304h5.62c1.643 0 2.268-.168 2.991-.776.723-.642 1.183-1.654 1.183-2.7a3.51 3.51 0 0 0 -1.183-2.634c-.756-.64-1.446-.843-3.024-.843h-3.32zm17.118-8.675c.329.033.592.033.756.033 1.085-.033 1.677.405 1.677 1.216 0 .81-.559 1.215-1.644 1.18h-.789v-2.43zm7.199 6.953c1.676-1.924 2.334-3.578 2.334-5.738 0-3.646-2.367-6.785-5.753-7.764-.953-.237-1.742-.337-3.516-.337h-3.024c-1.742 0-2.465.236-3.287.979-.855.776-1.184 1.687-1.184 3.307v13.874c0 1.417.264 2.396.855 3.173.658.844 1.742 1.35 2.827 1.35 2.005 0 3.55-1.62 3.55-3.747v-3.071l2.99 5.096c.658 1.115 1.71 1.723 2.992 1.723 2.037 0 3.615-1.587 3.615-3.646a4.67 4.67 0 0 0 -.69-2.397l-1.71-2.802zm25.864 2.127c0-1.924-1.71-3.646-3.616-3.646-.92 0-1.906.439-2.498 1.08l-.755.81c-.855.945-2.039 1.485-3.222 1.485-2.366 0-4.273-1.957-4.273-4.387 0-2.464 1.907-4.389 4.306-4.389 1.183 0 2.334.473 3.123 1.35l1.051 1.182c.493.54 1.414.911 2.268.911 2.005 0 3.616-1.687 3.616-3.713 0-1.485-.888-3.004-2.663-4.455-2.103-1.79-4.667-2.735-7.33-2.735-6.409 0-11.635 5.3-11.635 11.849 0 6.514 5.193 11.78 11.603 11.78 2.794 0 5.522-1.08 7.658-2.97 1.545-1.385 2.367-2.802 2.367-4.152m11.597-1.755 1.118-2.7 1.117 2.7zm-2.202 5.366h6.705c1.02 2.296 2.005 3.106 3.682 3.106 2.005 0 3.648-1.654 3.648-3.68 0-.573-.132-1.214-.427-1.788l-6.903-15.123c-.657-1.417-1.906-2.26-3.385-2.26-1.446 0-2.695.843-3.32 2.226l-6.87 14.954c-.295.642-.46 1.317-.46 1.958 0 2.093 1.578 3.713 3.583 3.713 1.742 0 2.827-.911 3.747-3.106zm23-12.658h.59c1.349 0 2.105.135 2.795.473 1.413.708 2.333 2.228 2.333 3.882 0 1.384-.69 2.768-1.774 3.578-.855.608-1.447.709-3.945.743v-8.676zm-3.09-6.92c-2.104 0-3.451.844-3.977 2.465-.165.506-.165.708-.165 2.599v12.388c0 1.553 0 1.924.132 2.43.23.878.69 1.486 1.511 2.025.658.473 1.348.608 3.057.608h3.057c1.512 0 2.827-.1 3.714-.27a10.87 10.87 0 0 0 5.16-2.734c2.235-2.127 3.517-5.165 3.517-8.27 0-3.207-1.314-6.279-3.615-8.371-2.136-1.958-4.667-2.87-7.954-2.87h-4.438zm25.264 11.241a4.315 4.315 0 0 1 4.306-4.321c2.367 0 4.306 1.958 4.306 4.354 0 2.431-1.94 4.457-4.306 4.457s-4.306-2.026-4.306-4.49m-7.264-.101c0 6.65 5.128 11.949 11.57 11.949 6.344 0 11.537-5.334 11.537-11.848 0-6.515-5.16-11.78-11.57-11.78-6.409 0-11.537 5.198-11.537 11.679m37.38-2.566-5.752-7.257c-.822-1.047-1.644-1.485-2.696-1.485-2.268 0-3.78 1.586-3.78 3.983v14.245c0 1.654.165 2.329.756 3.173a3.659 3.659 0 0 0 2.893 1.452c1.085 0 2.103-.507 2.794-1.351.625-.81.821-1.485.821-2.97v-4.726l5.72 7.527c.756 1.013 1.709 1.52 2.86 1.52 1.117 0 2.168-.507 2.826-1.385.624-.843.789-1.586.789-3.375v-13.773c0-1.384-.23-2.16-.855-2.97-.69-.844-1.676-1.35-2.76-1.35a3.576 3.576 0 0 0 -2.96 1.62c-.525.777-.657 1.451-.657 2.936v4.186zm18.858 5.638 1.117-2.7 1.118 2.7zm-2.203 5.366h6.705c1.02 2.296 2.005 3.106 3.682 3.106 2.004 0 3.648-1.654 3.648-3.68 0-.573-.131-1.214-.427-1.788l-6.903-15.123c-.657-1.417-1.906-2.26-3.385-2.26-1.446 0-2.695.843-3.32 2.226l-6.869 14.954c-.296.642-.46 1.317-.46 1.958 0 2.093 1.577 3.713 3.582 3.713 1.742 0 2.827-.911 3.747-3.106z" fill="#4ea77a"/></g></svg>