<svg enable-background="new 0 0 511 511" height="512" viewBox="0 0 511 511" width="512" xmlns="http://www.w3.org/2000/svg"><g fill="#d80027"><path d="m471.5 28h-432c-21.78 0-39.5 17.72-39.5 39.5v256c0 21.78 17.72 39.5 39.5 39.5h160c4.142 0 7.5-3.358 7.5-7.5s-3.358-7.5-7.5-7.5h-160c-13.509 0-24.5-10.991-24.5-24.5v-256c0-13.509 10.991-24.5 24.5-24.5h432c13.509 0 24.5 10.991 24.5 24.5v256c0 4.142 3.358 7.5 7.5 7.5s7.5-3.358 7.5-7.5v-256c0-21.78-17.72-39.5-39.5-39.5z"/><path d="m207.5 292h-144c-4.142 0-7.5 3.358-7.5 7.5s3.358 7.5 7.5 7.5h144c4.142 0 7.5-3.358 7.5-7.5s-3.358-7.5-7.5-7.5z"/><path d="m151 155.5v-32c0-12.958-10.542-23.5-23.5-23.5h-48c-12.958 0-23.5 10.542-23.5 23.5v32c0 12.958 10.542 23.5 23.5 23.5h48c12.958 0 23.5-10.542 23.5-23.5zm-80 0v-8.5h8.5c4.142 0 7.5-3.358 7.5-7.5s-3.358-7.5-7.5-7.5h-8.5v-8.5c0-4.687 3.813-8.5 8.5-8.5h16.5v49h-16.5c-4.687 0-8.5-3.813-8.5-8.5zm56.5 8.5h-16.5v-49h16.5c4.687 0 8.5 3.813 8.5 8.5v8.5h-8.5c-4.142 0-7.5 3.358-7.5 7.5s3.358 7.5 7.5 7.5h8.5v8.5c0 4.687-3.813 8.5-8.5 8.5z"/><path d="m56 251.5c0 4.142 3.358 7.5 7.5 7.5s7.5-3.358 7.5-7.5v-16c0-4.142-3.358-7.5-7.5-7.5s-7.5 3.358-7.5 7.5z"/><path d="m80 235.5v16c0 4.142 3.358 7.5 7.5 7.5s7.5-3.358 7.5-7.5v-16c0-4.142-3.358-7.5-7.5-7.5s-7.5 3.358-7.5 7.5z"/><path d="m104 235.5v16c0 4.142 3.358 7.5 7.5 7.5s7.5-3.358 7.5-7.5v-16c0-4.142-3.358-7.5-7.5-7.5s-7.5 3.358-7.5 7.5z"/><path d="m128 235.5v16c0 4.142 3.358 7.5 7.5 7.5s7.5-3.358 7.5-7.5v-16c0-4.142-3.358-7.5-7.5-7.5s-7.5 3.358-7.5 7.5z"/><path d="m175 251.5v-16c0-4.142-3.358-7.5-7.5-7.5s-7.5 3.358-7.5 7.5v16c0 4.142 3.358 7.5 7.5 7.5s7.5-3.358 7.5-7.5z"/><path d="m199 251.5v-16c0-4.142-3.358-7.5-7.5-7.5s-7.5 3.358-7.5 7.5v16c0 4.142 3.358 7.5 7.5 7.5s7.5-3.358 7.5-7.5z"/><path d="m215.5 228c-4.142 0-7.5 3.358-7.5 7.5v16c0 4.142 3.358 7.5 7.5 7.5s7.5-3.358 7.5-7.5v-16c0-4.142-3.358-7.5-7.5-7.5z"/><path d="m247 251.5v-16c0-4.142-3.358-7.5-7.5-7.5s-7.5 3.358-7.5 7.5v16c0 4.142 3.358 7.5 7.5 7.5s7.5-3.358 7.5-7.5z"/><path d="m415.5 179c21.78 0 39.5-17.72 39.5-39.5s-17.72-39.5-39.5-39.5h-48c-21.78 0-39.5 17.72-39.5 39.5s17.72 39.5 39.5 39.5zm-72.5-39.5c0-13.509 10.991-24.5 24.5-24.5h48c13.509 0 24.5 10.991 24.5 24.5s-10.991 24.5-24.5 24.5h-48c-13.509 0-24.5-10.991-24.5-24.5z"/><path d="m351.5 228c-70.304 0-127.5 57.196-127.5 127.5s57.196 127.5 127.5 127.5 127.5-57.196 127.5-127.5-57.196-127.5-127.5-127.5zm0 240c-62.033 0-112.5-50.467-112.5-112.5s50.467-112.5 112.5-112.5 112.5 50.467 112.5 112.5-50.467 112.5-112.5 112.5z"/><path d="m412.803 294.197c-2.929-2.929-7.678-2.929-10.606 0l-50.697 50.697-50.697-50.697c-2.929-2.929-7.678-2.929-10.606 0-2.929 2.929-2.929 7.678 0 10.606l50.697 50.697-50.697 50.697c-2.929 2.929-2.929 7.678 0 10.606 1.464 1.464 3.384 2.197 5.303 2.197s3.839-.732 5.303-2.197l50.697-50.697 50.697 50.697c1.464 1.464 3.384 2.197 5.303 2.197s3.839-.732 5.303-2.197c2.929-2.929 2.929-7.678 0-10.606l-50.697-50.697 50.697-50.697c2.929-2.928 2.929-7.678 0-10.606z"/></g></svg>