<svg width="330" height="24" viewBox="0 0 330 24" fill="none" xmlns="http://www.w3.org/2000/svg">
<path d="M14 10H300C301.105 10 302 10.8954 302 12C302 13.1046 301.105 14 300 14H14V10Z" fill="#E6E5E3"/>
<path d="M24 10H169C170.105 10 171 10.8954 171 12C171 13.1046 170.105 14 169 14H24V10Z" fill="#00AB61"/>
<circle cx="12" cy="12" r="12" fill="#00AB61"/>
<path d="M10.2215 14.5467L7.41354 11.7005C7.02663 11.3084 6.39776 11.3084 6.01086 11.7005C5.62601 12.0906 5.62601 12.7215 6.01086 13.1116L10.0397 17.1951C10.0941 17.2503 10.1692 17.2802 10.2468 17.2776C10.3243 17.275 10.3972 17.2401 10.4478 17.1813L17.9962 8.42015C18.374 8.02955 18.3716 7.40401 17.9891 7.01634C17.6022 6.62418 16.9734 6.62418 16.5865 7.01634C16.5815 7.02142 16.5766 7.02669 16.572 7.03213L10.2215 14.5467Z" fill="white" stroke="white" stroke-width="0.555556" stroke-linejoin="round"/>
<circle cx="117.333" cy="12" r="12" fill="#00AB61"/>
<path d="M115.555 14.5467L112.747 11.7005C112.36 11.3084 111.731 11.3084 111.344 11.7005C110.959 12.0906 110.959 12.7215 111.344 13.1116L115.373 17.1951C115.427 17.2503 115.502 17.2802 115.58 17.2776C115.657 17.275 115.73 17.2401 115.781 17.1813L123.329 8.42015C123.707 8.02955 123.705 7.40401 123.322 7.01634C122.935 6.62418 122.306 6.62418 121.919 7.01634C121.914 7.02142 121.91 7.02669 121.905 7.03213L115.555 14.5467Z" fill="white" stroke="white" stroke-width="0.555556" stroke-linejoin="round"/>
<circle cx="215.667" cy="12" r="5" fill="#E6E5E3"/>
<path fill-rule="evenodd" clip-rule="evenodd" d="M322.542 2.99329H319.392L318.711 6.99554H323.081L323.53 4.14895C323.626 3.54208 323.156 2.99329 322.542 2.99329ZM307.726 3C307.186 3 306.726 3.39486 306.645 3.92934L304.074 20.7933C303.973 21.4556 304.486 22.0524 305.156 22.0524C305.697 22.0524 306.156 21.6575 306.238 21.123L308.808 4.25911C308.909 3.59674 308.396 3 307.726 3ZM315.001 3H310.681L310 7.00226H314.37L315.001 3ZM309.391 11.0074H313.711L313.08 15.0097H308.71L309.391 11.0074ZM322.397 11.0053H318.078L317.397 15.0076H320.912C321.404 15.0076 321.823 14.6494 321.9 14.1632L322.397 11.0053ZM314.384 7H318.704L318.073 11.0023H313.703L314.384 7Z" fill="#E6E5E3"/>
</svg>
