<svg width="330" height="24" viewBox="0 0 330 24" fill="none" xmlns="http://www.w3.org/2000/svg">
<g clip-path="url(#clip0_2561_2574)">
<path d="M14 10H300C301.105 10 302 10.8954 302 12C302 13.1046 301.105 14 300 14H14V10Z" fill="#E6E5E3"/>
<path d="M24 10H110C111.105 10 112 10.8954 112 12C112 13.1046 111.105 14 110 14H24V10Z" fill="#00AB61"/>
<circle cx="12" cy="12" r="12" fill="#00AB61"/>
<path d="M10.2215 14.5467L7.41354 11.7005C7.02663 11.3084 6.39776 11.3084 6.01086 11.7005C5.62601 12.0906 5.62601 12.7215 6.01086 13.1116L10.0397 17.1951C10.0941 17.2503 10.1692 17.2802 10.2468 17.2776C10.3243 17.275 10.3972 17.2401 10.4478 17.1813L17.9962 8.42015C18.374 8.02955 18.3716 7.40401 17.9891 7.01634C17.6022 6.62418 16.9734 6.62418 16.5865 7.01634C16.5815 7.02142 16.5766 7.02669 16.572 7.03213L10.2215 14.5467Z" fill="white" stroke="white" stroke-width="0.555556" stroke-linejoin="round"/>
<path d="M128.732 18.1536L119.357 1.48745C119.154 1.12687 118.861 0.825244 118.505 0.614737C117.379 -0.0516826 115.948 0.352047 115.309 1.48745L105.934 18.1536C105.732 18.5134 105.626 18.9202 105.626 19.3332C105.626 20.6273 106.653 21.7071 107.958 21.7071H126.708C127.12 21.7071 127.525 21.5957 127.88 21.3855C128.995 20.7256 129.365 19.2789 128.732 18.1536Z" fill="#FCB831" stroke="white" stroke-width="1.41429"/>
<path fill-rule="evenodd" clip-rule="evenodd" d="M116.076 7.30273C116.076 6.59741 116.648 6.02563 117.353 6.02563C118.059 6.02563 118.63 6.59741 118.63 7.30273V12.4848C118.63 13.1901 118.059 13.7619 117.353 13.7619C116.648 13.7619 116.076 13.1901 116.076 12.4848V7.30273Z" fill="black"/>
<ellipse cx="117.333" cy="17.5128" rx="1.67619" ry="1.64103" fill="black"/>
<circle cx="215.667" cy="12" r="5" fill="#E6E5E3"/>
<path fill-rule="evenodd" clip-rule="evenodd" d="M322.542 2.99329H319.392L318.711 6.99554H323.081L323.53 4.14895C323.626 3.54208 323.156 2.99329 322.542 2.99329ZM307.726 3C307.186 3 306.726 3.39486 306.645 3.92934L304.074 20.7933C303.973 21.4556 304.486 22.0524 305.156 22.0524C305.697 22.0524 306.156 21.6575 306.238 21.123L308.808 4.25911C308.909 3.59674 308.396 3 307.726 3ZM315.001 3H310.681L310 7.00226H314.37L315.001 3ZM309.391 11.0074H313.711L313.08 15.0097H308.71L309.391 11.0074ZM322.397 11.0053H318.078L317.397 15.0076H320.912C321.404 15.0076 321.823 14.6494 321.9 14.1632L322.397 11.0053ZM314.384 7H318.704L318.073 11.0023H313.703L314.384 7Z" fill="#E6E5E3"/>
</g>
<defs>
<clipPath id="clip0_2561_2574">
<rect width="330" height="24" fill="white"/>
</clipPath>
</defs>
</svg>
