<svg width="330" height="24" viewBox="0 0 330 24" fill="none" xmlns="http://www.w3.org/2000/svg">
<g clip-path="url(#clip0_2561_2572)">
<path d="M14 10H300C301.105 10 302 10.8954 302 12C302 13.1046 301.105 14 300 14H14V10Z" fill="#E6E5E3"/>
<path d="M23.8193 10H213.429C214.534 10 215.429 10.8954 215.429 12C215.429 13.1046 214.534 14 213.429 14H23.8193V10Z" fill="#00AB61"/>
<circle cx="12" cy="12" r="12" fill="#00AB61"/>
<path d="M10.2215 14.5467L7.41354 11.7005C7.02663 11.3084 6.39776 11.3084 6.01086 11.7005C5.62601 12.0906 5.62601 12.7215 6.01086 13.1116L10.0397 17.1951C10.0941 17.2503 10.1692 17.2802 10.2468 17.2776C10.3243 17.275 10.3972 17.2401 10.4478 17.1813L17.9962 8.42015C18.374 8.02955 18.3716 7.40401 17.9891 7.01634C17.6022 6.62418 16.9734 6.62418 16.5865 7.01634C16.5815 7.02142 16.5766 7.02669 16.572 7.03213L10.2215 14.5467Z" fill="white" stroke="white" stroke-width="0.555556" stroke-linejoin="round"/>
<circle cx="112.667" cy="12" r="12" fill="#00AB61"/>
<path d="M110.889 14.5467L108.081 11.7005C107.694 11.3084 107.065 11.3084 106.678 11.7005C106.293 12.0906 106.293 12.7215 106.678 13.1116L110.707 17.1951C110.761 17.2503 110.836 17.2802 110.914 17.2776C110.991 17.275 111.064 17.2401 111.115 17.1813L118.663 8.42015C119.041 8.02955 119.039 7.40401 118.656 7.01634C118.269 6.62418 117.64 6.62418 117.253 7.01634C117.248 7.02142 117.244 7.02669 117.239 7.03213L110.889 14.5467Z" fill="white" stroke="white" stroke-width="0.555556" stroke-linejoin="round"/>
<path d="M224.732 18.1536L215.357 1.48745C215.154 1.12687 214.861 0.825244 214.505 0.614737C213.379 -0.0516826 211.948 0.352047 211.309 1.48745L201.934 18.1536C201.732 18.5134 201.626 18.9202 201.626 19.3332C201.626 20.6273 202.653 21.7071 203.958 21.7071H222.708C223.12 21.7071 223.525 21.5957 223.88 21.3855C224.995 20.7256 225.365 19.2789 224.732 18.1536Z" fill="#FCB831" stroke="white" stroke-width="1.41429"/>
<path fill-rule="evenodd" clip-rule="evenodd" d="M212.076 7.30273C212.076 6.59741 212.648 6.02563 213.353 6.02563C214.059 6.02563 214.63 6.59741 214.63 7.30273V12.4848C214.63 13.1901 214.059 13.7619 213.353 13.7619C212.648 13.7619 212.076 13.1901 212.076 12.4848V7.30273Z" fill="black"/>
<ellipse cx="213.333" cy="17.5128" rx="1.67619" ry="1.64103" fill="black"/>
<path fill-rule="evenodd" clip-rule="evenodd" d="M322.542 2.99329H319.392L318.711 6.99554H323.081L323.53 4.14895C323.626 3.54208 323.156 2.99329 322.542 2.99329ZM307.726 3C307.186 3 306.726 3.39486 306.645 3.92934L304.074 20.7933C303.973 21.4556 304.486 22.0524 305.156 22.0524C305.697 22.0524 306.156 21.6575 306.238 21.123L308.808 4.25911C308.909 3.59674 308.396 3 307.726 3ZM315.001 3H310.681L310 7.00226H314.37L315.001 3ZM309.391 11.0074H313.711L313.08 15.0097H308.71L309.391 11.0074ZM322.397 11.0053H318.078L317.397 15.0076H320.912C321.404 15.0076 321.823 14.6494 321.9 14.1632L322.397 11.0053ZM314.384 7H318.704L318.073 11.0023H313.703L314.384 7Z" fill="#E6E5E3"/>
</g>
<defs>
<clipPath id="clip0_2561_2572">
<rect width="330" height="24" fill="white"/>
</clipPath>
</defs>
</svg>
