<svg height="81" width="362" xmlns="http://www.w3.org/2000/svg" xmlns:xlink="http://www.w3.org/1999/xlink">
  <linearGradient id="h" x1="100%" x2="-121.588%" y1="50%" y2="50%">
    <stop offset="0" stop-color="#3cb431"/>
    <stop offset="1" stop-color="#003e2a"/>
  </linearGradient>
  <linearGradient id="i" x1="100%" x2="8.3%" y1="50%" y2="50%">
    <stop offset="0" stop-color="#b2bdc6"/>
    <stop offset="1" stop-color="#7f8b8d"/>
  </linearGradient>
  <linearGradient id="a">
    <stop offset="0" stop-color="#cfcfcf"/>
    <stop offset="1" stop-color="#eaeaea"/>
  </linearGradient>
  <linearGradient id="j" x1=".26%" x2="99.74%" xlink:href="#a" y1="50.26%" y2="50.26%"/>
  <radialGradient id="k" gradientTransform="matrix(0 -.35714 .6271 0 .186 .679)" r="119.916%">
    <stop offset="0" stop-color="#6d1d1d"/>
    <stop offset="1" stop-color="#310000"/>
  </radialGradient>
  <linearGradient id="l" x1="100%" x2="0%" y1="19.895%" y2="19.895%">
    <stop offset="0" stop-color="#bc793d"/>
    <stop offset="1" stop-color="#e9b56f"/>
  </linearGradient>
  <linearGradient id="m" x1="62.005%" x2="62.005%" y1="97.163%" y2="2.561%">
    <stop offset="0" stop-color="#a7cfdf"/>
    <stop offset="1" stop-color="#cde9f4"/>
  </linearGradient>
  <linearGradient id="n" x1="100%" x2="0%" y1="60.9%" y2="60.9%">
    <stop offset="0" stop-color="#ffb9b9"/>
    <stop offset="1" stop-color="#ffd1d1"/>
  </linearGradient>
  <linearGradient id="o" x1="50%" x2="50%" y1="3.538%" y2="96.73%">
    <stop offset="0" stop-color="#e89e7e"/>
    <stop offset="1" stop-color="#e38862"/>
  </linearGradient>
  <linearGradient id="b">
    <stop offset="0" stop-color="#bc793d"/>
    <stop offset="1" stop-color="#e7ae61"/>
  </linearGradient>
  <linearGradient id="p" x1="42.429%" x2="42.429%" xlink:href="#b" y1="105.349%" y2="-1.656%"/>
  <linearGradient id="c">
    <stop offset="0" stop-color="#bc653d"/>
    <stop offset="1" stop-color="#e79f61"/>
  </linearGradient>
  <linearGradient id="q" x1="100%" x2="38.234%" xlink:href="#c" y1="29.703%" y2="62.596%"/>
  <linearGradient id="r" x1="76.145%" x2="50%" xlink:href="#c" y1="33.647%" y2="75.244%"/>
  <linearGradient id="s" x1="90.73%" x2="31.226%" xlink:href="#c" y1="3.465%" y2="50%"/>
  <linearGradient id="t" x1="83.62%" x2="56.571%" xlink:href="#c" y1="26.509%" y2="63.742%"/>
  <linearGradient id="u" x1="95.281%" x2="9.684%" xlink:href="#c" y1="50%" y2="50%"/>
  <linearGradient id="v" x1="39.669%" x2="60.331%" y1="58.18%" y2="77.066%">
    <stop offset="0" stop-color="#be504b"/>
    <stop offset="1" stop-color="#97120d"/>
  </linearGradient>
  <linearGradient id="w" x1="50%" x2="50%" y1="4.932%" y2="96.73%">
    <stop offset="0" stop-color="#f08585"/>
    <stop offset="1" stop-color="#ef5b5b"/>
  </linearGradient>
  <linearGradient id="x" x1="50%" x2="50%" y1="0%" y2="100%">
    <stop offset="0" stop-color="#5a3131"/>
    <stop offset="1" stop-color="#311e1e"/>
  </linearGradient>
  <linearGradient id="y" x1="77.069%" x2="32.994%" y1="25.964%" y2="78.34%">
    <stop offset="0" stop-color="#f8e6b6"/>
    <stop offset="1" stop-color="#efc778"/>
  </linearGradient>
  <linearGradient id="z" x1="50%" x2="50%" y1="0%" y2="100%">
    <stop offset="0" stop-color="#9f3a07"/>
    <stop offset="1" stop-color="#702701"/>
  </linearGradient>
  <linearGradient id="A" x1="35.584%" x2="35.584%" y1="100%" y2="0%">
    <stop offset="0" stop-color="#cf2e2e"/>
    <stop offset="1" stop-color="#941010"/>
  </linearGradient>
  <linearGradient id="B" x1="31.85%" x2="29.505%" y1="53.858%" y2="46.142%">
    <stop offset="0" stop-color="#e3e0e0"/>
    <stop offset="1" stop-color="#c3bebe"/>
  </linearGradient>
  <linearGradient id="C" x1="50%" x2="50%" y1="1.57%" y2="99.362%">
    <stop offset="0" stop-color="#febb56"/>
    <stop offset="1" stop-color="#e39720"/>
  </linearGradient>
  <linearGradient id="D" x1="30.734%" x2="71.021%" y1="27.492%" y2="100%">
    <stop offset="0" stop-color="#b86b0f"/>
    <stop offset="1" stop-color="#702701"/>
  </linearGradient>
  <linearGradient id="E" x1="0%" x2="69.735%" y1="58.331%" y2="44.551%">
    <stop offset="0" stop-color="#55898f"/>
    <stop offset="1" stop-color="#93bfba"/>
  </linearGradient>
  <linearGradient id="F" x1="99.161%" x2="3.976%" y1="54.675%" y2="54.675%">
    <stop offset="0" stop-color="#1083b1"/>
    <stop offset="1" stop-color="#1faee6"/>
  </linearGradient>
  <linearGradient id="d">
    <stop offset="0" stop-color="#f9b051"/>
    <stop offset="1" stop-color="#f96824"/>
  </linearGradient>
  <linearGradient id="G" x1="61.616%" x2="61.616%" xlink:href="#d" y1="0%" y2="100%"/>
  <linearGradient id="H" x1="50%" x2="50%" y1="0%" y2="100%">
    <stop offset="0" stop-color="#4e4e4e"/>
    <stop offset="1"/>
  </linearGradient>
  <linearGradient id="I" x1="54.457%" x2="42.586%" y1="51.524%" y2="50%">
    <stop offset="0" stop-color="#c9c8c8"/>
    <stop offset="1" stop-color="#8c8585"/>
  </linearGradient>
  <linearGradient id="J" x1="100%" x2="0%" y1="100%" y2="100%">
    <stop offset="0" stop-color="#727272"/>
    <stop offset="1" stop-color="#222"/>
  </linearGradient>
  <linearGradient id="K" x1="50%" x2="50%" y1="93.313%" y2="-20.387%">
    <stop offset="0" stop-color="#d2d1d1"/>
    <stop offset="1" stop-color="#eaeaea"/>
  </linearGradient>
  <linearGradient id="L" x1="61.616%" x2="61.616%" xlink:href="#d" y1="-125.308%" y2="100%"/>
  <linearGradient id="M" x1="50%" x2="50%" y1="0%" y2="98.98%">
    <stop offset="0" stop-color="#ffc84f"/>
    <stop offset="1" stop-color="#fcaf42"/>
  </linearGradient>
  <linearGradient id="N" x1="50%" x2="50%" y1="2.562%" y2="100%">
    <stop offset="0" stop-color="#f99a4a"/>
    <stop offset="1" stop-color="#f88437"/>
  </linearGradient>
  <linearGradient id="O" x1="28.344%" x2="28.344%" y1="0%" y2="89.92%">
    <stop offset="0" stop-color="#f7970d"/>
    <stop offset="1" stop-color="#feac01"/>
  </linearGradient>
  <linearGradient id="P" x1="50%" x2="50%" xlink:href="#a" y1="100%" y2=".52%"/>
  <linearGradient id="Q" x1="50%" x2="50%" xlink:href="#a" y1="100%" y2="-51.089%"/>
  <linearGradient id="R" x1="50%" x2="50%" y1="100%" y2="0%">
    <stop offset="0" stop-color="#bebcbc"/>
    <stop offset="1" stop-color="#e1e1e1"/>
  </linearGradient>
  <linearGradient id="S" x1="50%" x2="50%" y1="0%" y2="100%">
    <stop offset="0" stop-color="#afbd41"/>
    <stop offset="1" stop-color="#96a335"/>
  </linearGradient>
  <linearGradient id="T" x1="50%" x2="50%" y1="0%" y2="100%">
    <stop offset="0" stop-color="#ed4a4a"/>
    <stop offset="1" stop-color="#cc1212"/>
  </linearGradient>
  <linearGradient id="U" x1="81.844%" x2="11.084%" xlink:href="#d" y1="14.308%" y2="80.184%"/>
  <linearGradient id="V" x1="50%" x2="50%" y1="69.844%" y2="30.035%">
    <stop offset="0" stop-color="#6d013e"/>
    <stop offset="1" stop-color="#c11c79"/>
  </linearGradient>
  <linearGradient id="e">
    <stop offset="0" stop-color="#ffdd70"/>
    <stop offset="1" stop-color="#fda921"/>
  </linearGradient>
  <linearGradient id="W" x1="67.241%" x2="44.862%" xlink:href="#e" y1="39.628%" y2="60.239%"/>
  <linearGradient id="X" x1="64.139%" x2="64.139%" xlink:href="#e" y1="0%" y2="100%"/>
  <linearGradient id="f">
    <stop offset="0" stop-color="#00ab61"/>
    <stop offset="1" stop-color="#04854d"/>
  </linearGradient>
  <linearGradient id="Y" x1="11.939%" x2="55.661%" xlink:href="#f" y1="18.779%" y2="60.263%"/>
  <linearGradient id="Z" x1="50%" x2="50%" y1="3.538%" y2="96.73%">
    <stop offset="0" stop-color="#ea786c"/>
    <stop offset="1" stop-color="#db4949"/>
  </linearGradient>
  <linearGradient id="aa" x1="50%" x2="50%" xlink:href="#a" y1=".52%" y2="100%"/>
  <linearGradient id="ab" x1="1.527%" x2="97.73%" xlink:href="#f" y1="50%" y2="50%"/>
  <linearGradient id="ac" x1="106.396%" x2="28.344%" y1="25.762%" y2="82.991%">
    <stop offset="0" stop-color="silver"/>
    <stop offset="1" stop-color="#eaeaea"/>
  </linearGradient>
  <radialGradient id="ad" cy="0%" gradientTransform="matrix(0 .75 -1 0 .5 -.375)" r="133.333%">
    <stop offset="0" stop-color="#eab089"/>
    <stop offset="1" stop-color="#c87c48"/>
  </radialGradient>
  <linearGradient id="ae" x1="50%" x2="50%" y1="0%" y2="100%">
    <stop offset="0" stop-color="#dac604"/>
    <stop offset="1" stop-color="#b29501"/>
  </linearGradient>
  <linearGradient id="af" x1="1.527%" x2="97.73%" y1="50%" y2="50%">
    <stop offset="0" stop-color="#626a0f"/>
    <stop offset="1" stop-color="#232802"/>
  </linearGradient>
  <linearGradient id="ag" x1="50%" x2="50%" y1="0%" y2="100%">
    <stop offset="0" stop-color="#c47cda"/>
    <stop offset="1" stop-color="#8a3d91"/>
  </linearGradient>
  <linearGradient id="ah" x1="50%" x2="50%" y1="0%" y2="100%">
    <stop offset="0" stop-color="#30a9d7"/>
    <stop offset="1" stop-color="#0d93b7"/>
  </linearGradient>
  <linearGradient id="ai" x1="63.858%" x2="73.788%" xlink:href="#b" y1="28.957%" y2="20.262%"/>
  <linearGradient id="aj" x1="71.613%" x2="22.571%" y1="32.379%" y2="90.245%">
    <stop offset="0" stop-color="#ffdd70"/>
    <stop offset="1" stop-color="#ffb53b"/>
  </linearGradient>
  <linearGradient id="g">
    <stop offset="0" stop-color="#e66d56"/>
    <stop offset="1" stop-color="#d82f2f"/>
  </linearGradient>
  <linearGradient id="ak" x1="0%" x2="80.279%" xlink:href="#g" y1="15.802%" y2="97.881%"/>
  <linearGradient id="al" x1="50%" x2="50%" xlink:href="#g" y1="100%" y2="0%"/>
  <linearGradient id="am" x1="72.741%" x2="-6.118%" y1="39.162%" y2="56.196%">
    <stop offset="0" stop-color="#9c762a"/>
    <stop offset="1" stop-color="#b78a34"/>
  </linearGradient>
  <linearGradient id="an" x1="34.741%" x2="88.219%" y1="50%" y2="71.794%">
    <stop offset="0" stop-color="#ecbf9e"/>
    <stop offset="1" stop-color="#ecbe9d"/>
  </linearGradient>
  <linearGradient id="ao" x1="52.508%" x2="35.48%" y1="82.982%" y2="4.123%">
    <stop offset="0" stop-color="#b3ab9b"/>
    <stop offset="1" stop-color="#e4ded2"/>
  </linearGradient>
  <linearGradient id="ap" x1="-.013%" x2="98.043%" y1="50%" y2="50%">
    <stop offset="0" stop-color="#f0c652"/>
    <stop offset=".479" stop-color="#c57900"/>
    <stop offset="1" stop-color="#f0c652"/>
  </linearGradient>
  <linearGradient id="aq" x1="50%" x2="67.632%" y1="82.368%" y2="9.989%">
    <stop offset="0" stop-color="#fee088"/>
    <stop offset="1" stop-color="#eacc69"/>
  </linearGradient>
  <linearGradient id="ar" x1="50%" x2="50%" y1="100%" y2="0%">
    <stop offset="0" stop-color="#9b9124"/>
    <stop offset="1" stop-color="#b0b402"/>
  </linearGradient>
  <linearGradient id="as" x1="64.59%" x2="30.47%" y1="21.875%" y2="151.515%">
    <stop offset="0" stop-color="#7f771e"/>
    <stop offset="1" stop-color="#92950d"/>
  </linearGradient>
  <linearGradient id="at" x1="50%" x2="50%" y1="0%" y2="100%">
    <stop offset="0" stop-color="#f2ddb0"/>
    <stop offset="1" stop-color="#e5b98e"/>
  </linearGradient>
  <linearGradient id="au" x1="50%" x2="50%" y1="0%" y2="100%">
    <stop offset="0" stop-color="#e26400"/>
    <stop offset="1" stop-color="#f2a24b"/>
  </linearGradient>
  <linearGradient id="av" x1="100%" x2="11.807%" y1="50%" y2="50%">
    <stop offset="0" stop-color="#ed674a"/>
    <stop offset="1" stop-color="#b00707"/>
  </linearGradient>
  <radialGradient id="aw" gradientTransform="matrix(0 -.44 .6271 0 .186 .72)" r="97.334%">
    <stop offset="0" stop-color="#deedf3"/>
    <stop offset="1" stop-color="#95cae0"/>
  </radialGradient>
  <linearGradient id="ax" x1="81.156%" x2="50%" y1="23.048%" y2="62.766%">
    <stop offset="0" stop-color="#cfd5da"/>
    <stop offset="1" stop-color="#9ea4a5"/>
  </linearGradient>
  <linearGradient id="ay" x1="40.428%" x2="50%" y1="78.515%" y2="14.4%">
    <stop offset="0" stop-color="#f7a3a3"/>
    <stop offset="1" stop-color="#ffdbdb"/>
  </linearGradient>
  <linearGradient id="az" x1="31.363%" x2="86.345%" y1="50%" y2="50%">
    <stop offset="0" stop-color="#e454a7"/>
    <stop offset="1" stop-color="#c42a6e"/>
  </linearGradient>
  <g fill="none" fill-rule="evenodd">
    <g transform="translate(15 13)">
      <path d="M.359 2.191L1 1h8l.641 1.191A3 3 0 0110 3.613V14H0V3.613a3 3 0 01.359-1.422z" fill="url(#h)"/>
      <path d="M1.118 15h7.764a1 1 0 00.894-.553L10 14H0l.224.447a1 1 0 00.894.553zM1 0h8a.5.5 0 010 1H1a.5.5 0 110-1z" fill="url(#i)"/>
      <ellipse cx="5" cy="7.5" fill="#00231b" rx="4" ry="5.5"/>
      <rect fill="url(#j)" height="1.5" opacity=".791" rx=".75" width="6" x="2" y="6"/>
      <g fill="#912828">
        <path d="M2.979 9.356L7.02 8.144a.372.372 0 01.48.356.672.672 0 01-.479.644L2.98 10.356A.372.372 0 012.5 10c0-.297.195-.558.479-.644z"/>
        <circle cx="5" cy="4" r="1"/>
      </g>
    </g>
    <path d="M7.705 8.794A4.996 4.996 0 0110 13v13.5c0 1-.948 1.5-1.5 1.5h-7C.948 28 0 27.5 0 26.5V13a5 5 0 012.3-4.21c.222-.142.7-.433.7-1.29V1a1 1 0 011-1h2a1 1 0 011 1v6.5c0 .727.482 1.15.705 1.294z" fill="url(#k)" transform="translate(2)"/>
    <path d="M9 10a1 1 0 011 1v16H8V11a1 1 0 011-1z" fill="#a85f5f"/>
    <path d="M3 6V1a1 1 0 011-1h2a1 1 0 011 1v5z" fill="url(#l)" transform="translate(2)"/>
    <path d="M0 13h10v10H0z" fill="url(#j)" transform="translate(2)"/>
    <g fill="#767676" transform="translate(2)">
      <path d="M2 18h6v1H2z"/>
      <circle cx="5" cy="16" opacity=".504" r="1"/>
      <path d="M3 20h4v1H3z" opacity=".504"/>
    </g>
    <path d="M8.692 16h10.154A6.79 6.79 0 0122 21.735V25a2 2 0 01-2 2H8a2 2 0 01-2-2v-3.646A6.67 6.67 0 018.692 16z" fill="url(#m)" transform="translate(27)"/>
    <path d="M42.5 20h4a.5.5 0 110 1h-4a.5.5 0 110-1zm2 3h2a.5.5 0 110 1h-2a.5.5 0 110-1z" fill="#337483"/>
    <path d="M7 10h14v6H7z" fill="url(#n)" transform="translate(27)"/>
    <path d="M10.5 4c0-1.5 1.004-3.5 3.5-3.5 2.495 0 3.5 2 3.5 3.5S17 6 17 7s2 1.924 2 3H9c0-1.572 2-2 2-3s-.5-1.5-.5-3z" fill="url(#o)" transform="translate(27)"/>
    <path d="M20.992 1c5.592 0 4.97 6.56 4.97 13s.622 13-4.97 13c-5.593 0-4.971-6.425-4.971-12.73C16.02 7.968 15.399 1 20.99 1z" fill="url(#p)" transform="matrix(-1 0 0 1 83 0)"/>
    <path d="M65 22.69c-1.5.832-6-1.59-6-3.51 1.5-.926 6 1.935 6 3.51zm0-7c-1.5.832-6-1.59-6-3.51 1.5-.926 6 1.935 6 3.51zm0-7c-1.5.832-6-1.59-6-3.51 1.5-.926 6 1.935 6 3.51z" fill="#f9d38f"/>
    <path d="M8.047.441c3.106-1.377 7.35.562 2.855 4.532-.369.326-.695.622-.977.887l-.442.211-4.26-3.633c-.188-.413.753-1.08 2.824-1.997z" fill="url(#q)" transform="matrix(-1 0 0 1 82 2)"/>
    <path d="M5.096 1.54a1.288 1.288 0 011.567.089l3.788 3.259c.476.41.597 1.104.288 1.653a6 6 0 00-.332.686c-.207.511-.322 1.29-.344 2.333L1.3 8.136c.328-1.581.802-2.949 1.424-4.102.499-.926 1.29-1.757 2.372-2.494z" fill="url(#r)" transform="matrix(-1 0 0 1 82 2)"/>
    <path d="M8.047 17.642c3.106-1.675 7.35.684 2.855 5.514a45.33 45.33 0 00-.977 1.08l-.442.256-4.26-4.42c-.188-.503.753-1.313 2.824-2.43z" fill="url(#s)" transform="rotate(180 41 21.799)"/>
    <path d="M5.096 14.698a1.288 1.288 0 011.567.089l3.788 3.259c.476.41.597 1.103.288 1.653a6 6 0 00-.332.686c-.207.511-.322 1.29-.344 2.333L1.3 21.294c.328-1.581.802-2.949 1.424-4.102.499-.926 1.29-1.757 2.372-2.494z" fill="url(#t)" transform="rotate(180 41 19.596)"/>
    <path d="M.306 9.285A21.662 21.662 0 000 12.952c0 1.166.088 2.27.264 3.315a2.6 2.6 0 003.213 2.086l6.272-1.618a2.6 2.6 0 001.951-2.517V11.33a2.6 2.6 0 00-1.95-2.517L3.517 7.207A2.6 2.6 0 00.306 9.285z" fill="url(#u)" transform="matrix(-1 0 0 1 82 2)"/>
    <g transform="translate(85)">
      <circle cx="5" cy="1" fill="#642724" r="1"/>
      <path d="M5 1a5 5 0 015 5v15L0 23V6a5 5 0 015-5z" fill="url(#v)"/>
      <path d="M2.02 27.082C-.197 25.89-.66 22.77.985 20.114c1.646-2.656 4.778-3.843 6.995-2.65s2.68 4.313 1.035 6.969c-1.646 2.656-4.778 3.842-6.995 2.65z" fill="url(#w)"/>
      <g fill="#ffbfbf">
        <rect height="1" rx=".5" width="1" x="3" y="20"/>
        <rect height="2" rx="1" width="2" x="5" y="19"/>
        <rect height="1" rx=".5" width="1" x="5" y="23"/>
        <rect height="1" rx=".5" width="1" x="7" y="22"/>
        <rect height="2" rx="1" width="2" x="1" y="23"/>
        <rect height="1" rx=".5" width="1" x="4" y="25"/>
      </g>
      <ellipse cx="8.865" cy="6.228" fill="url(#x)" rx="2.499" ry="4.122" transform="rotate(-15 8.865 6.228)"/>
      <path d="M13.582 11.097l11 1.833a.5.5 0 01.418.494v11.152a.5.5 0 01-.418.494L13 27V11.59a.5.5 0 01.582-.493z" fill="url(#y)"/>
      <path d="M13.278 11.046l11.304 1.884a.5.5 0 01.418.494v.152a.5.5 0 01-.418.494l-10.557 1.76-.039.006A1.18 1.18 0 0013 17v10c-.64-.64-1-1.509-1-2.414V15c0-1.78.264-3.031.792-3.755a.5.5 0 01.486-.199z" fill="#ab7540"/>
      <rect fill="#dcb86e" height="2" rx="1" width="2" x="21" y="16"/>
      <rect fill="#dcb86e" height="2" rx="1" width="2" x="22" y="20"/>
      <rect fill="#dcb86e" height="2" rx="1" width="2" x="19" y="19"/>
    </g>
    <path d="M7 3h8a1 1 0 011 1c0 3.333 1.667 5 5 5a1 1 0 011 1v3H6V4a1 1 0 011-1z" fill="url(#z)" transform="translate(111)"/>
    <path d="M6 15h16v9a1 1 0 01-1 1H7a1 1 0 01-1-1z" fill="url(#A)" transform="translate(111)"/>
    <path d="M6 13h16a1 1 0 011 1v1.272h-6c-2.767 0-3.918 2.728-7 2.728-2.055 0-3.721-.333-5-1v-3a1 1 0 011-1z" fill="url(#B)" transform="translate(111)"/>
    <path d="M10 20c5.523 0 10-4.477 10-10 0-2.864-4.09.455-7.273-3.636C9.545 2.273 12.66 0 10 0 4.477 0 0 4.477 0 10s4.477 10 10 10z" fill="url(#C)" transform="translate(143 4)"/>
    <path d="M146.5 11c.828 0 1-.672 1-1.5s-.172-1.5-1-1.5a1.5 1.5 0 000 3zm4-4.5c.828 0 1.5-.172 1.5-1a1.5 1.5 0 00-3 0c0 .828.672 1 1.5 1zm-5 12.5c.828 0 1-.672 1-1.5s-.172-1.5-1-1.5a1.5 1.5 0 000 3zm14 3a1.5 1.5 0 001.5-1.5c0-.828-.672-1-1.5-1s-1.5.172-1.5 1a1.5 1.5 0 001.5 1.5zm-5.5-2a2 2 0 002-2c0-1.105-.895-1.5-2-1.5s-2 .395-2 1.5a2 2 0 002 2zm-1.5-7.5c.828 0 1.5-.172 1.5-1a1.5 1.5 0 00-3 0c0 .828.672 1 1.5 1zm-3 11.5a1.5 1.5 0 001.5-1.5c0-.828-.672-1-1.5-1s-1.5.172-1.5 1a1.5 1.5 0 001.5 1.5zm10-9.5c.828 0 1.5-.172 1.5-1a1.5 1.5 0 00-3 0c0 .828.672 1 1.5 1z" fill="#714000"/>
    <path d="M4.073 5.441C7.934 1.351 13.19-.18 16.657 1.697c.166.09.524.386.408.778-.176.597.002 1.223.598 1.634.373.257.98.338 1.268.132.287-.206.335.105.41.272 1.49 3.326.321 8.27-3.223 12.026-4.033 4.272-9.682 5.65-13.132 3.371-.264-.175-.812-.24-.512-.987.124-.637.056-1.082-.204-1.334-.39-.378-.925-.2-1.338-.128-.176.03-.266-.562-.385-.895a5.887 5.887 0 01-.203-.717c-.629-3.17.686-7.184 3.729-10.408z" fill="url(#D)" transform="translate(171 3.5)"/>
    <path d="M188.76 7.255c.5.383.92.548 1.262.496-1.05 2.348-2.44 4.36-4.249 5.638-.953.673-1.168.777-4.129 2.111-4.026 1.815-6.702 4.03-8.23 7.157-.035.074-.137-.587-.533-1.123-.397-.535-1.128-.417-1.022-.627 1.756-3.474 4.046-5.52 8.44-7.5 2.705-1.218 2.916-1.32 3.644-1.835 1.764-1.246 3.137-3.148 4.095-5.732.06-.162-.027.84.722 1.415z" fill="#3d2407" fill-rule="nonzero"/>
    <g transform="translate(195)">
      <path d="M16.881 19.95c5.351 0 9.119-3.585 9.119-5.975S22.232 8 16.881 8c-3.097 0-5.098.583-9.118 3.585-.216.161-5.48-2.56-5.7-2.39-.266.207.304 1.8 1.71 4.78-1.4 2.984-1.97 4.577-1.71 4.78.326.253 5.38-2.624 5.7-2.39 3.902 2.86 6.096 3.585 9.118 3.585z" fill="url(#E)"/>
      <circle cx="20.5" cy="13.45" fill="#346e78" fill-opacity=".72" r="1.5"/>
    </g>
    <path d="M15 12.285l3.345-1.931V8.276a1 1 0 112 0V9.2l.964-.557a1 1 0 011 1.732l-.962.556.775.447a1 1 0 11-1 1.732l-1.775-1.025-3.337 1.927 3.325 1.92 1.799-1.039a1 1 0 011 1.732l-.8.462.965.556a1 1 0 01-1 1.732l-.962-.555v.895a1 1 0 11-2 0v-2.05L15 15.738v3.84l1.799 1.038a1 1 0 01-1 1.732L15 21.887V23a1 1 0 01-2 0v-1.11l-.775.447a1 1 0 01-1-1.732L13 19.58v-3.831l-3.303 1.906v2.056a1 1 0 01-2 0v-.9l-.977.563a1 1 0 11-1-1.732l.975-.563-.794-.458a1 1 0 011-1.733l1.794 1.037 3.315-1.914-3.322-1.918-1.78 1.028a1 1 0 01-1-1.732l.78-.45-.977-.565a1 1 0 111-1.732l.975.563v-.917a1 1 0 112 0v2.072L13 12.273V8.438L11.22 7.41a1 1 0 111-1.732l.78.45V5a1 1 0 012 0v1.126l.795-.459a1 1 0 011 1.732L15 8.435z" fill="url(#F)" transform="translate(223)"/>
    <path d="M13.474 26c5.526 0 9.473-4 9.473-9.375 0-4.432-2.04-8.099-6.384-9.25A12.122 12.122 0 0013.473 7C7 7 4 11.25 4 16.625S7.947 26 13.474 26z" fill="url(#G)" transform="translate(251)"/>
    <path d="M272.316 9.316c-1.9 1.9-4.334 2.792-7.303 2.674-.134-2.985.75-5.427 2.65-7.328 1.9-1.9 4.342-2.783 7.327-2.649.118 2.969-.773 5.403-2.674 7.303z" fill="#029b3b"/>
    <path d="M.172 1.082C.057 2.94 0 5.284 0 8.112c0 5.112.438 7.13.438 10.716S-1 26 2.624 26c1.312 0 2.096-1.497 2.188-1.793a.654.654 0 000-.448c-.817-1.554-1.13-3.028-1.13-4.07 0-1.77-.059-2.953.68-3.643.404-.378 1.067-.637 1.99-.77.502-.074.633-.396.627-.554-.121-2.903-.182-5.106-.182-6.61 0-1.488.157-3.935.178-7.422.003-.415-.21-.645-.64-.69H1.323C.713 0 .21.474.173 1.082z" fill="url(#H)" transform="translate(296 1)"/>
    <path d="M6.97 1.186l-4.443.25a.576.576 0 00-.544.575v11.45c0 .313.25.569.562.576l4.412.106a475.828 475.828 0 01-.118-3.522 137.52 137.52 0 01-.04-2.59c.019-1.02.075-2.68.12-4.241.013-.444.038-1.062.052-2.05v-.554z" fill="url(#I)" transform="translate(296 1)"/>
    <g fill="url(#J)">
      <path d="M297.99 3.339h4.965l-.025 1.17h-4.94zM297.99 5.678h4.901l-.039 1.17h-4.861zM297.99 8.016h4.83l-.025 1.17h-4.805zM297.99 10.355h4.817l.025 1.17h-4.841zM297.99 12.694h4.88l.041 1.17h-4.92z"/>
    </g>
    <path d="M2.533 0h5.921a2 2 0 011.944 1.527c.404 1.664.607 2.862.607 3.593 0 2.88-.5 4.92-.5 7.88 0 3.624.115 7.248.346 10.873A2 2 0 018.855 26H2.148a2 2 0 01-1.996-2.13C.387 20.247.505 16.623.505 13c0-2.96-.345-4.92-.5-7.88-.038-.718.159-1.923.59-3.615A2 2 0 012.533 0z" fill="url(#K)" transform="translate(283 1)"/>
    <path d="M5 11h4v8H5z" fill="url(#L)" transform="translate(283 1)"/>
    <path d="M2.521 0h5.938a2 2 0 011.94 1.518C10.8 3.128 11 4.289 11 5H0c-.035-.698.16-1.865.585-3.503A2 2 0 012.521 0z" fill="url(#G)" transform="translate(283 1)"/>
    <path d="M285 12h2v3h-2z" fill="#313131"/>
    <path d="M285 16h2v4h-2zm3-6h4v1h-4z" fill="#949494"/>
    <path d="M325 2h2a1 1 0 011 1v2.5c0 .25-.325.407-.976.47a1 1 0 00-.896 1.113l.583 4.953a.796.796 0 01-.434.805.803.803 0 01-.995-.227c-.343-.444-.678-1.119-1.005-2.023-.482-1.333-.908-2.53-1.277-3.591l1-1zm-9 7h6v3h-6z" fill="#00aa60"/>
    <path d="M7 0h6c0 .5.346 1.134.5 1.5 2.383 5.68 2.494 5.764 2.5 11.541a.958.958 0 01-.958.959H2a2 2 0 01-2-2C0 7.5 2.702 4.534 6.5 1c.275-.255.441-.589.5-1z" fill="url(#M)" transform="matrix(-1 0 0 1 329 12)"/>
    <path d="M315 25.987V24c0-2.667 1.667-4.167 5-4.5 5-.5 6.5 1.766 7 3.766.333 1.333.333 2.24 0 2.721z" fill="#aaa800" fill-opacity=".716"/>
    <path d="M18 2v2.333a2 2 0 01-.4 1.2L15 9H6.28a1 1 0 01-.96-1.279C6.426 3.907 8.486 2 11.5 2z" fill="url(#N)" transform="translate(307)"/>
    <path d="M316.278 18.825c-.144-1.095 1.444-3.448 5.24-2.655 2.247.47 2.342 2.769-.841 3.318-3.183.55-4.256.432-4.4-.663z" fill="#017580"/>
    <path d="M353.014 10.982V9.159a2 2 0 011.036-1.753l5.96-3.274" stroke="#e9b0b0" stroke-width="1.5"/>
    <path d="M2.5 0h6v1.426a2 2 0 00.304 1.06L9.75 4A8.224 8.224 0 0111 8.358V13H0V8.358C0 6.818.433 5.307 1.25 4l.946-1.514a2 2 0 00.304-1.06z" fill="url(#O)" transform="translate(337 3)"/>
    <path d="M2.5 0h6v1.426a2 2 0 00.304 1.06l.32.513L1.876 3l.321-.514a2 2 0 00.304-1.06V0z" fill="url(#P)" transform="translate(337 3)"/>
    <path d="M3-3h5a1 1 0 011 1v2H2v-2a1 1 0 011-1z" fill="url(#Q)" transform="translate(337 3)"/>
    <path d="M.438 15.024l.155-.56A2 2 0 012.52 13h5.96a2 2 0 011.927 1.465l.155.559A12 12 0 0111 18.236V25H0v-6.764a12 12 0 01.438-3.212z" fill="url(#O)" transform="matrix(1 0 0 -1 337 41)"/>
    <path d="M2 13h11v8H2z" fill="url(#j)" transform="translate(335)"/>
    <path d="M342.5 17a3.5 3.5 0 003.465-3.996h-6.93A3.5 3.5 0 00342.5 17z" fill="#fc8610"/>
    <path d="M340 19h5v1h-5z" fill="#df5757"/>
    <path d="M16 11h10v17H16z" fill="url(#R)" transform="translate(335)"/>
    <path d="M23.766 16H24c.71 0 1.387.148 1.999.416l.001 9.74a4.454 4.454 0 01-1.034.222l-.308.029a5 5 0 01-5.11-3.127l-.759-1.902A3.925 3.925 0 0122.435 16z" fill="url(#S)" transform="translate(335)"/>
    <path d="M355.342 15.658c.95.95 2.167 1.396 3.651 1.337.067-1.492-.374-2.714-1.324-3.664s-2.172-1.391-3.664-1.324c-.059 1.484.387 2.701 1.337 3.651z" fill="#7ca436"/>
    <path d="M351 18h10v3h-10z" fill="#727324"/>
    <g transform="translate(-1 28)">
      <path d="M3 16h10v8a2 2 0 01-2 2H5a2 2 0 01-2-2z" fill="url(#l)"/>
      <path d="M9 16h2v7a1 1 0 01-2 0z" fill="#e8b36e"/>
      <path d="M15 14h10v10a2 2 0 01-2 2h-6a2 2 0 01-2-2z" fill="url(#l)"/>
      <path d="M16.07 7.017c2.287-3.283 3.998-4.924 5.13-4.924 1.699 0 2.8 2.918 2.8 4.924V14h-8z" fill="url(#T)"/>
      <ellipse cx="19.243" cy="5.243" fill="#ff8787" rx="4" ry="2" transform="rotate(-45 19.243 5.243)"/>
      <path d="M21 14h2v9a1 1 0 01-2 0z" fill="#e8b36e"/>
    </g>
    <path d="M13.416 14.829c2.74 0 4.926-2.234 4.926-4.927 0-2.22-1.01-4.056-3.164-4.633a5.913 5.913 0 00-1.531-.188c-3.209 0-5.038 2.425-4.99 4.99.05 2.563 2.02 4.758 4.76 4.758z" fill="url(#U)" transform="rotate(45 -54.598 36.748)"/>
    <path d="M18.12 9.425l1.41-2.054V2.537c0-.655.53-1.186 1.186-1.186h1.057c.655 0 1.186.531 1.186 1.186v4.834l1.38 2.081c.642.971.985 2.11.985 3.274v7.914l-8.242 1.854v-9.716a5.93 5.93 0 011.039-3.353z" fill="url(#V)" transform="rotate(25 -105.597 37.667)"/>
    <path d="M25.493 15.014l-1.547 6.152A5.071 5.071 0 0119.028 25H8.97a5.071 5.071 0 01-4.919-3.835l-1.55-6.17z" fill="url(#W)" transform="translate(-1 56)"/>
    <path d="M27 15.996V16a2 2 0 01-2 2H4.089a2 2 0 01-2-2v-.004a2 2 0 012-2H25a2 2 0 012 2z" fill="url(#X)" transform="translate(-1 56)"/>
    <path d="M6.515 8.484c-4.076-1.58-5.588.628-5.087 1.693.502 1.064 1.388 1 1.548 1.793.16.791-3.296 3.242-1.349 5.637s5.7-.969 6.588-.456c.889.512.135 2.041 1.253 2.64.649.348 2.57.74 4.532-2.004.641-.897 1.19-2.16 1.645-3.787-5.261-.354-5.053-3.936-9.13-5.516z" fill="url(#Y)" transform="translate(-1 56)"/>
    <path d="M6.725 18.383a9 9 0 1114.826-7.656c.085.927 1.548 4.799 1.946 6.04a7 7 0 01-12.04 6.621c-.772-.925-3.82-4.22-4.732-5.005z" fill="url(#Z)" transform="translate(27 28)"/>
    <path d="M34.376 45.624c.857.737 3.878 3.96 4.848 5.123a6 6 0 0010.32-5.675c-.073-.23-.187-.56-.378-1.102a921.783 921.783 0 00-.539-1.535l-.093-.27c-.612-1.768-.929-2.799-.98-3.346a8.003 8.003 0 00-15.696-1.339 8 8 0 002.518 8.144z" stroke="#f1a9a9" stroke-width="2"/>
    <path d="M39.775 39.385c1.937-.895 3.047-1.375 3.617-.744.57.632.12 1.204-.867 2.27s1.808 3.175.534 4.349c-1.275 1.173-2.286-2.42-3.562-2.47s-1.693.583-2.47-.105c-.775-.687.811-2.405 2.748-3.3z" fill="#f2d5d5"/>
    <path d="M2 3h7l-.294 1.176A2 2 0 008.95 5.72L9.75 7A8.224 8.224 0 0111 11.358V16H0v-4.642C0 9.818.433 8.307 1.25 7l.8-1.28a2 2 0 00.244-1.544z" fill="url(#aa)" transform="translate(58 28)"/>
    <path d="M3 0h5a1 1 0 011 1v2H2V1a1 1 0 011-1zM0 14c.667-.667 1.5-.833 2.5-.5.865.288 1.975 1.5 2.5 1.5h6v3H0z" fill="url(#ab)" transform="translate(58 28)"/>
    <path d="M.5 19.5l.044-.132A2 2 0 012.442 18h6.116a2 2 0 011.898 1.368l.044.132c.331.994.5 2.034.5 3.081V28H0v-5.419A9.75 9.75 0 01.5 19.5z" fill="url(#ac)" transform="matrix(1 0 0 -1 58 74)"/>
    <g fill="#015a34" transform="translate(58 28)">
      <path d="M0 18h11v1H0z"/>
      <rect height="3" rx="1.5" width="3" x="6" y="13"/>
    </g>
    <path d="M19 28c3.314 0 6-3.115 6-6.957S23 12 19 12s-6 5.201-6 9.043S15.686 28 19 28z" fill="url(#ad)" transform="translate(55 28)"/>
    <path d="M11 3h6l1.94 1.94c.678.678 1.06 1.6 1.06 2.56v1.028a2 2 0 01-.211.894l-.183.367a1 1 0 00-.106.447v.528a1 1 0 00.106.447l.288.578a1 1 0 01.106.447V13H8v-.764a1 1 0 01.106-.447l.288-.578a1 1 0 00.106-.447v-.528a1 1 0 00-.106-.447l-.183-.367A2 2 0 018 8.528V7.5c0-.96.382-1.882 1.06-2.56z" fill="url(#ae)" transform="translate(83 28)"/>
    <path d="M11 3h6l1.94 1.94c.024.024.04.033.065.058H8.998c.022-.024.04-.036.063-.059z" fill="url(#P)" transform="translate(83 28)"/>
    <path d="M12 0h4a1 1 0 011 1v2h-6V1a1 1 0 011-1zM8 13h12v10H8z" fill="url(#af)" transform="translate(83 28)"/>
    <path d="M97 42c-1.116 2.062-1.782 3.41-2 4.044-.5 1.456 0 3.456 2 3.456s2.5-2 2-3.456c-.223-.65-.89-1.998-2-4.044z" fill="#b0b402"/>
    <path d="M8.154 25.538l.618-1.854A1 1 0 019.721 23h8.558a1 1 0 01.949.684l.618 1.854a3 3 0 01.154.949V28H8v-1.513a3 3 0 01.154-.949z" fill="url(#ae)" transform="matrix(1 0 0 -1 83 79)"/>
    <path d="M20.852 21.262c.564 4.365-4.136 2.203-6.957 2.203-2.82 0-7.47 2.162-6.963-2.203.508-4.365 4.648-7.526 6.988-7.526s6.369 3.16 6.932 7.526zm-10.535-10.09C8.844 11.301 7.5 10.1 7.318 8.017c-.182-2.081 1.52-3.88 2.993-4.009 1.472-.129 2.159 1.461 2.34 3.543.183 2.081-.862 3.492-2.334 3.621zm-3.881 5.806c-1.104.424-2.688-.776-3.223-2.17-.535-1.392-.044-3.35 1.06-3.774s2.144.006 3.156 1.694c1.222 2.04.111 3.827-.993 4.25zm15.128 0c-1.104-.423-2.215-2.21-.993-4.25 1.012-1.688 2.052-2.118 3.156-1.694 1.104.423 1.595 2.382 1.06 3.775s-2.119 2.593-3.223 2.17zm-4.42-5.806c-1.473-.129-2.518-1.54-2.336-3.621.182-2.082.869-3.672 2.341-3.543 1.473.129 3.175 1.928 2.992 4.01-.182 2.08-1.525 3.283-2.998 3.154z" fill="url(#ag)" transform="translate(111 28)"/>
    <path d="M18 10h5a1 1 0 011 1v6a1 1 0 01-1 1h-5v5a1 1 0 01-1 1h-6a1 1 0 01-1-1v-5H5a1 1 0 01-1-1v-6a1 1 0 011-1h5V5a1 1 0 011-1h6a1 1 0 011 1z" fill="url(#ah)" transform="translate(139 28)"/>
    <path d="M3.786 23.124v-.119c0-.589.103-1.173.306-1.727l6.484-17.736c.14-.498.44-.834.899-1.009.688-.261 1.198-.082 1.462 0 3.054.95 5.583 2.423 7.586 4.419 2 1.993 3.477 4.507 4.43 7.543.026.084.203.683.064 1.305-.084.424-.431.775-1.04 1.052l-15.96 5.954a5.062 5.062 0 00-2.455 1.953c-.169.256-.423.384-.763.384-1.013 0-1.013-1.648-1.013-2.019z" fill="url(#ai)" transform="translate(167 28)"/>
    <path d="M3.786 23.124v-.119c0-.589.103-1.173.306-1.727l6.067-16.6c1.167.262 2.53.8 4.087 1.613 2.336 1.22 4.598 3.143 6.174 5.657 1.214 1.936 2.013 3.715 2.397 5.337l-14.8 5.52a5.062 5.062 0 00-2.455 1.954c-.169.256-.423.384-.763.384-1.013 0-1.013-1.648-1.013-2.019z" fill="url(#aj)" transform="translate(167 28)"/>
    <g transform="translate(171.799 33.966)">
      <ellipse cx="9.266" cy="4.287" fill="url(#ak)" rx="2.818" ry="2.758" transform="rotate(-135 9.266 4.287)"/>
      <g fill="url(#al)">
        <ellipse cx="2.063" cy="13.121" rx="2.063" ry="2.019"/>
        <ellipse cx="4.052" cy="7.029" rx="2.026" ry="1.983"/>
        <ellipse cx="8.656" cy="12.616" rx="2.579" ry="2.523"/>
        <ellipse cx="14.182" cy="10.147" rx="2.026" ry="1.983"/>
      </g>
    </g>
    <g transform="translate(195 28)">
      <path d="M14 26c5.523 0 10-2.686 10-6v-7H4v7c0 3.314 4.477 6 10 6z" fill="url(#F)"/>
      <ellipse cx="14" cy="13" fill="url(#am)" rx="10" ry="6"/>
      <path d="M14 19c5.523 0 10-2.686 10-6 0-1.991-1.616-3.756-4.105-4.847C18.242 7.428 16.205 7 14 7c-1.5 0 1 2.186 1 5.5 0 1.873-1.146 3.98-3.437 6.32 1.064.12 1.877.18 2.437.18z" fill="url(#an)"/>
      <path d="M11.528 18.832C17.176 14.447 20 10.61 20 7.322c0-2.39-3.419-4.39-5.69-3.47A2.803 2.803 0 0014 4c-.141.078-2.472-2.51-3.613-1.412-1.385 1.333 2.57 2.144 2.343 2.41C10.531 7.573 14 11.344 14 13.821c0 1.88-.824 3.551-2.472 5.011z" fill="url(#ao)"/>
    </g>
    <path d="M238.288 45.5c.608-.724 1.87-.607 2.594 0l1.834 1.615c.724.608 1.423 2.061.816 2.785-.608.724-2.109.254-2.833-.353l-1.86-1.627c-.724-.608-1.158-1.696-.55-2.42zm5.699 8.142c-.765-.556-.737-1.824-.181-2.59l1.484-1.943c.556-.765 1.958-1.565 2.723-1.009s.4 2.087-.155 2.853l-1.494 1.97c-.556.766-1.612 1.275-2.377.719zm-11.341-.706c-.3-.923.488-1.959 1.41-2.258l2.405-.719c.923-.3 2.569-.118 2.869.805s-.926 1.974-1.85 2.274l-2.428.735c-.923.3-2.106.085-2.406-.837z" fill="#dacfc0"/>
    <path d="M229.296 47.354c-1.353-.952-.226-2.976-.482-4.002s-2.669-.37-3.132-2.228 1.878-2.8 1.68-3.594c-.195-.784-2.666-2.427-1.452-3.76.861-.947 4.55-1.337 7.155-.238 2.303.971 3.233 2.285 3.636 2.185.402-.1.608-1.697 2.185-3.637 1.578-1.939 4.732-3.756 6.43-3.149 1.697.608.167 3.248.363 4.032.198.795 2.827.497 3.29 2.355s-2.46 2.532-2.205 3.558c.256 1.027 2.412 2.168 1.938 3.64-.416 1.294-4.61 2.18-6.913 1.208s-3.243-2.282-3.636-2.185c-.404.1-.608 1.697-2.185 3.636-1.578 1.94-5.737 2.836-6.672 2.179z" fill="#f0c652"/>
    <path d="M12.189 9.657c1.28-.32 2.152-1.44 3.514-2.423 2.184-1.575 4.746-.711 5.47 1.27.685 1.875-2.078 4.068-4.26 3.582-1.689-.376-3.084-.777-4.24-.489-1.456.363-1.824.97-3.522 2.424-1.7 1.454-4.894 1.395-5.443-1.161-.546-2.54 1.565-4.056 4.233-3.69 1.675.23 2.793.85 4.248.487z" fill="url(#ap)" fill-rule="nonzero" transform="translate(225 28)"/>
    <g transform="translate(253 31)">
      <path d="M14.286 17.619c3.492-2.222 5.714-4.286 6.666-6.19C22.381 8.57 22.381 0 16.19 0 10 0 9.724 8.095 8.772 11.429c-.952 3.333-2.799 3.254-6.132 3.254-2.222 0 1.66.979 11.646 2.936z" fill="url(#aq)" transform="rotate(5 -21.856 34.404)"/>
      <path d="M15.562 4.266c-.024 3.253-.303 6.04-.84 8.362-.42 1.816-1.085 3.467-1.836 4.685a18.56 18.56 0 01-.545-.203 14.947 14.947 0 01-.493-.212l.032-.048c.73-1.145 1.371-2.724 1.776-4.473.464-2.007.73-4.393.796-7.157.203-.21.356-.36.458-.452.21-.187.428-.354.652-.502zm2.275-.813c-.037 3.335-.324 6.195-.864 8.581-.538 2.377-1.466 4.479-2.465 5.749-.26-.057-.452-.102-.575-.135a15.194 15.194 0 01-.601-.18c.24-.252.509-.601.78-1.039.736-1.189 1.383-2.828 1.794-4.64.508-2.246.786-4.946.832-8.101.233-.065.404-.11.516-.134.132-.028.327-.062.583-.101zm2.182.163c-.035 3.347-.322 6.216-.864 8.609-.544 2.405-1.488 4.529-2.5 5.794a11.08 11.08 0 01-.654-.02c-.17-.012-.423-.04-.76-.084.296-.242.673-.681 1.053-1.295.736-1.189 1.383-2.828 1.794-4.641.53-2.347.81-5.192.837-8.534a6.1 6.1 0 01.53.051c.124.02.312.06.564.12zm2.21 1.262c-.122 2.646-.403 4.973-.842 6.983-.496 2.266-1.306 4.294-2.198 5.654a9.47 9.47 0 01-.835.268 8.747 8.747 0 01-.89.167c.876-.741 2.19-3.295 2.853-6.327.466-2.131.75-4.648.848-7.55.25.143.444.266.582.37.098.075.26.22.482.435z" fill="#d7994c" fill-rule="nonzero" opacity=".319"/>
      <path d="M8.478 14.95c-1.815-1.114-3.369-1.569-4.661-1.363-1.94.308-3.051 2.78-.913 5.014.932.974 4.621 4.12 10.727 3.015 3.561-.645 6.615-2.768 9.16-6.369-2.284 2.03-4.594 2.944-6.93 2.74-2.337-.205-4.798-1.217-7.383-3.036z" fill="#e8b63e"/>
      <path d="M2.255 10.168C-.197 8.563-.732 5.172 1.06 2.593 2.852.015 6.292-.774 8.745.832c2.452 1.605 2.987 4.996 1.195 7.575-1.792 2.578-5.232 3.367-7.685 1.761z" fill="url(#ar)"/>
      <ellipse cx="7" cy="3.5" fill="url(#as)" rx="2" ry="1.5" transform="rotate(34 7 3.5)"/>
      <path d="M5.88 9.658c.611.411 1.679-.698 2.173-1.43.494-.733.675-1.475.065-1.887-.61-.411-1.23.036-1.723.768-.494.733-1.125 2.137-.514 2.549z" fill="#dbd97d" opacity=".42"/>
    </g>
    <g transform="translate(279 28)">
      <path d="M11.429 4.75h5.142c.71 0 1.286.576 1.286 1.286V8.5h-7.714V6.036c0-.71.575-1.286 1.286-1.286z" fill="#3b372b"/>
      <path d="M12.714 3.5h2.571v1.25h-2.571z" fill="#000"/>
      <path d="M13.679 1h.854c.5 0 .996.073 1.474.216l3.457 1.034a.638.638 0 01-.183 1.25H10.68a.687.687 0 01-.394-1.25l.469-.328A5.098 5.098 0 0113.679 1z" fill="#3b372b"/>
      <path d="M10.786 8.5h6.428c.252.362.466.578.643.648C21.137 10.452 23 13.605 23 17.259V24c0 1.5-1 2-2 2H7c-1 0-2-1-2-2v-6.791c0-3.725 1.75-6.827 5.143-8.061.136-.05.35-.266.643-.648z" fill="url(#at)"/>
      <rect fill="#aa9070" height="2.5" rx="1.25" width="10.286" x="8.857" y="13.5"/>
      <path d="M8.857 18.5c.857-.833 1.929-1.25 3.214-1.25 1.929 0 3.454.625 4.5.625.698 0 1.555-.208 2.572-.625v5H8.857z" fill="url(#au)"/>
    </g>
    <path d="M1.118 15h7.764a1 1 0 00.894-.553L10 14H0l.224.447a1 1 0 00.894.553zM1 0h8a.5.5 0 010 1H1a.5.5 0 110-1z" fill="url(#i)" transform="translate(323 41)"/>
    <path d="M.359 2.191L1 1h8l.641 1.191A3 3 0 0110 3.613V14H0V3.613a3 3 0 01.359-1.422z" fill="url(#av)" transform="translate(323 41)"/>
    <path d="M332 48a2.01 2.01 0 001-.26v-2.739c0-.278-.006-.526-.02-.744A2 2 0 10332 48zm-4.238-2.647a1 1 0 10-.114 1.409l.472.895a2 2 0 11.126-3.222zM325.5 49v4h3v-1h-2v-3zm4.5 4l2-4 1.003 2.006L333 53z" fill="#e0cccc"/>
    <path d="M11 18.236v6.277a3 3 0 01-.154.949l-.618 1.854a1 1 0 01-.949.684H1.721a1 1 0 01-.949-.684l-.618-1.854A3 3 0 010 24.513v-6.277a1 1 0 01.106-.447l.288-.578a1 1 0 00.106-.447v-.528a1 1 0 00-.106-.447l-.183-.367A2 2 0 010 14.528V7.657a4 4 0 011.172-2.829L3 3h5l1.828 1.828A4 4 0 0111 7.657v6.87a2 2 0 01-.211.895l-.183.367a1 1 0 00-.106.447v.528a1 1 0 00.106.447l.288.578a1 1 0 01.106.447z" fill="url(#aw)" transform="translate(310 28)"/>
    <path d="M0 8h11v6H0z" fill="url(#j)" transform="translate(310 28)"/>
    <path d="M311 38h9v2h-9z" fill="#0a66ad"/>
    <path d="M312 36h7v2h-7z" fill="#05b7e5"/>
    <path d="M312 40h7v2h-7z" fill="#73ab2c"/>
    <path d="M313.5 28h4a1 1 0 011 1v2h-6v-2a1 1 0 011-1z" fill="#0955c2"/>
    <path d="M18.402.65c3.684-1.766 5.192.428 1.357 2.288-2.556 1.24-4.466 2.477-5.728 3.708-.678 1.945-1.78 3.133-3.307 3.563-2.29.646-5.677 1.901-4.472-1.314 1.204-3.215 5.145-2.494 6.512-3.408 1.368-.913 1.953-3.072 5.638-4.837z" fill="url(#ax)" transform="translate(340 29)"/>
    <path d="M7.36 9.083c.65.282 1.514.037 2.588-.734 1.613-1.156 1.016-2.33.527-2.704-.49-.374-2.89-2.731-4.878-1.345-1.99 1.385-2.348 5.28-1.263 5.623.723.229 1.732-.051 3.026-.84z" fill="url(#ay)" transform="translate(340 29)"/>
    <path d="M340 38h17v1h-17z" fill="#c6c9cb"/>
    <path d="M1 10h15l-1.265 14.844A1.263 1.263 0 0113.476 26H3.524a1.263 1.263 0 01-1.259-1.156z" fill="url(#Q)" transform="translate(340 29)"/>
    <path d="M1.254 13h14.49l-.768 9H2.02z" fill="url(#az)" transform="translate(340 29)"/>
  </g>
</svg>