<svg width="30" height="30" viewBox="0 0 30 30" fill="none" xmlns="http://www.w3.org/2000/svg">
<path d="M1.06214 15C1.06214 7.30491 7.30491 1.06214 15 1.06214C22.6951 1.06214 28.9379 7.30491 28.9379 15C28.9379 22.6951 22.6951 28.9379 15 28.9379C7.30491 28.9379 1.06214 22.6951 1.06214 15ZM0 15C0 23.2587 6.71965 30 15 30C23.2803 30 30 23.2803 30 15C30 6.71965 23.2803 0 15 0C6.71965 0 0 6.71965 0 15Z" fill="#009342"/>
<path d="M22.5271 13.5043C23.4161 11.7702 22.7656 11.0765 23.6979 9.73261C24.3484 8.80053 24.3918 8.93059 24.5869 8.6488C24.7387 8.41036 24.6736 8.17192 24.305 7.86845C23.8931 7.58666 23.6546 7.58666 23.4594 7.86845C23.2643 8.15024 23.3727 8.15024 22.7222 9.08232C21.7899 10.4263 20.5757 10.0578 19.188 12.0303L18.1689 13.4826H22.5271V13.5043Z" fill="#AE2062"/>
<path d="M23.1129 13.5043C24.2404 13.5043 24.3271 14.1979 24.9342 14.1979C25.3462 14.1979 25.4546 13.9595 25.5413 13.721C25.628 13.3959 25.6931 13.3526 25.9966 13.2658C26.1484 13.2225 26.3652 13.0708 26.3652 12.789C26.3652 12.2254 25.7148 12.2254 25.7148 11.9436C25.7148 11.7485 25.9099 11.6184 25.9099 11.38C25.9099 11.1416 25.7148 10.9248 25.3028 10.9248C24.6957 10.9248 23.8935 11.5317 23.5682 11.8135C23.5249 12.2687 23.3731 12.9841 23.0479 13.526H23.1129V13.5043Z" fill="#B1C81B"/>
<path d="M6.43945 21.2428C6.43945 22.7818 7.32843 23.6705 8.86788 23.6705H21.1184C22.6578 23.6705 23.5468 22.7818 23.5468 21.2428V14.7182C23.5468 14.2413 23.3083 13.9812 22.8096 13.9812H15.8062V6.06936C15.8062 5.61415 15.6111 5.41907 15.1558 5.41907H14.8305C14.3752 5.41907 14.18 5.61415 14.18 6.06936V13.9812H7.17665C6.69964 13.9812 6.43945 14.2196 6.43945 14.7182V21.2428Z" fill="#FCB300"/>
<path d="M17.5839 13.5043L18.603 12.052C18.9716 11.5317 19.4486 10.8381 20.2292 10.3179C20.3159 10.2312 20.4677 9.94936 20.4677 9.62422C20.4677 9.25572 20.1425 8.84387 19.6654 8.84387C19.015 8.84387 18.6897 9.3641 18.3211 9.3641C17.9959 9.3641 17.7574 8.95225 17.1937 8.95225C16.6299 8.95225 16.3047 9.3641 16.3047 10.1661V13.4826H17.5839V13.5043Z" fill="#B1C81B"/>
<path d="M11.665 13.0491C11.665 13.2876 11.7084 13.5043 11.7084 13.5043H13.7032V11.4884C13.5731 11.4451 13.4213 11.4451 13.2912 11.4451C12.3155 11.4234 11.665 12.117 11.665 13.0491Z" fill="#DE462F"/>
<path d="M8.75879 12.8106C8.75879 13.0491 8.80215 13.2875 8.88888 13.5043H11.2306C11.2306 13.5043 11.1872 13.3092 11.1872 13.0491C11.1872 12.2037 11.5558 11.7051 12.0762 11.3366C11.751 11.0115 11.2739 10.8164 10.7319 10.8164C9.6044 10.8164 8.75879 11.6618 8.75879 12.8106Z" fill="#DE462F"/>
<path d="M10.9922 10.3396C11.5993 10.4263 12.1197 10.6648 12.5316 11.12C12.7701 10.9899 13.052 10.9682 13.3122 10.9682C13.5507 10.9682 13.7242 11.0116 13.7242 11.0116V9.88443C13.529 9.55929 13.0303 9.32085 12.51 9.32085C11.7077 9.2775 11.1873 9.7327 10.9922 10.3396Z" fill="#DE462F"/>
<path d="M4.89941 13.6127C4.89941 13.9812 5.13792 14.2197 5.50652 14.2197C6.20035 14.2197 5.98353 13.4827 7.21942 13.4827H8.3469C8.30354 13.3526 8.26018 13.1575 8.26018 12.8757C7.9783 12.6806 7.32784 12.2688 6.634 12.2688C6.15699 12.2688 5.8968 12.4205 5.74503 12.724C5.63661 12.9191 4.89941 12.8974 4.89941 13.6127Z" fill="#B1C81B"/>
<path d="M6.39551 8.47548C6.39551 8.99572 6.91588 9.12577 6.91588 9.53762C6.91588 9.73271 6.78579 9.86277 6.78579 10.1012C6.78579 10.383 7.06766 10.4264 7.24112 10.4697C8.13009 10.6648 8.58542 10.9466 8.82393 11.2501C9.14916 10.7948 9.75627 10.4047 10.6452 10.3613C10.2766 9.94947 10.2333 9.5593 10.2333 8.86566C10.2333 8.54051 10.1032 8.12866 9.75627 8.12866C9.51776 8.12866 9.51776 8.2804 9.30094 8.2804C8.97571 8.2804 8.9757 7.8252 8.52038 7.8252C8.15178 7.8252 8.15178 8.23705 7.86991 8.23705C7.58803 8.23705 7.41458 7.86855 6.98093 7.86855C6.61233 7.86855 6.39551 8.15034 6.39551 8.47548Z" fill="#B1C81B"/>
<path d="M3.68555 10.5781C3.68555 11.185 4.42275 11.0333 4.42275 11.5535C4.42275 11.6402 4.33602 11.922 4.33602 12.0304C4.33602 12.3989 4.61789 12.5073 4.85639 12.5073C5.00817 12.5073 5.18163 12.4639 5.37677 12.2688C5.57191 12.0737 5.89714 11.7919 6.59098 11.7919C7.32818 11.7919 7.84855 12.1171 8.30388 12.3555C8.39061 11.9437 8.45566 11.7919 8.54239 11.6185C8.21715 11.25 7.80519 11.0549 6.91621 10.8382C6.59098 10.7515 6.30911 10.5997 6.30911 10.1445C6.30911 9.9061 6.39584 9.77604 6.39584 9.58095C6.39584 9.34251 6.2007 8.93066 5.65864 8.93066C5.24667 8.93066 5.0949 9.21246 5.00817 9.49425C4.92144 9.77604 4.85639 9.9061 4.55284 9.9061C3.92405 9.92777 3.68555 10.2529 3.68555 10.5781Z" fill="#009342"/>
</svg>
