<svg height="80" viewBox="0 0 24 80" width="24" xmlns="http://www.w3.org/2000/svg"><g fill="none" fill-rule="evenodd" transform=""><path d="m10 39h4v23h-4z" fill="#3b3937" fill-opacity=".2"/><path d="m10 23h4v21c0 1.1045695-.8954305 2-2 2-1.1045695 0-2-.8954305-2-2z" fill="#cdcccc"/><circle cx="12" cy="12" fill="#cdcccc" r="12"/><g stroke-linejoin="round"><path d="m10.2373994 14.9582451-3.02160103-3.0626323c-.2781307-.2819075-.72906965-.2819075-1.00720035 0-.27813069.2819075-.27813069.7389699 0 1.0208774l4.02880138 4.0835098 7.5540026-8.76769192c.2781307-.28190752.2781307-.73896992 0-1.02087744s-.7290697-.28190752-1.0072004 0z" fill="#fff" fill-rule="evenodd"/><path d="m10.22156 14.5466773 6.364903-7.53033615c.3869046-.39215857 1.015773-.39215857 1.4026777 0 .3848495.39007549.3848495 1.02098093.0127046 1.39727911l-7.7506233 8.99590334-4.24036265-4.2979439c-.3848495-.3900755-.3848495-1.0209809 0-1.4110564.38690466-.3921586 1.01577303-.3921586 1.40267769 0z" stroke="#fff" stroke-width=".555556"/></g><g transform="translate(0 56)"><circle cx="12" cy="12" fill="#d90000" r="12"/><g fill="#fff" transform="matrix(.70710678 -.70710678 .70710678 .70710678 3 12.192388)"><rect height="2.119586" rx="1.059793" width="12.717514" y="5.298964"/><rect height="2.119586" rx="1.059793" transform="matrix(0 -1 1 0 0 12.717514)" width="12.717514" y="5.298964"/></g></g></g></svg>