<svg height="192" viewBox="0 0 24 192" width="24" xmlns="http://www.w3.org/2000/svg"><g fill="none" fill-rule="evenodd" transform=""><path d="m10 39h4v113h-4z" fill="#e7e9eb"/><path d="m10 23h4v148c0 1.104569-.8954305 2-2 2-1.1045695 0-2-.895431-2-2z" fill="#346e78"/><circle cx="12" cy="12" fill="#346e78" r="12"/><g stroke-linejoin="round"><path d="m10.2373994 14.9582451-3.02160103-3.0626323c-.2781307-.2819075-.72906965-.2819075-1.00720035 0-.27813069.2819075-.27813069.7389699 0 1.0208774l4.02880138 4.0835098 7.5540026-8.76769192c.2781307-.28190752.2781307-.73896992 0-1.02087744s-.7290697-.28190752-1.0072004 0z" fill="#fff" fill-rule="evenodd"/><path d="m10.22156 14.5466773 6.364903-7.53033615c.3869046-.39215857 1.015773-.39215857 1.4026777 0 .3848495.39007549.3848495 1.02098093.0127046 1.39727911l-7.7506233 8.99590334-4.24036265-4.2979439c-.3848495-.3900755-.3848495-1.0209809 0-1.4110564.38690466-.3921586 1.01577303-.3921586 1.40267769 0z" stroke="#fff" stroke-width=".555556"/></g><circle cx="12" cy="68" fill="#346e78" r="12"/><g stroke-linejoin="round" transform="translate(0 56)"><path d="m10.2373994 14.9582451-3.02160103-3.0626323c-.2781307-.2819075-.72906965-.2819075-1.00720035 0-.27813069.2819075-.27813069.7389699 0 1.0208774l4.02880138 4.0835098 7.5540026-8.76769192c.2781307-.28190752.2781307-.73896992 0-1.02087744s-.7290697-.28190752-1.0072004 0z" fill="#fff" fill-rule="evenodd"/><path d="m10.22156 14.5466773 6.364903-7.53033615c.3869046-.39215857 1.015773-.39215857 1.4026777 0 .3848495.39007549.3848495 1.02098093.0127046 1.39727911l-7.7506233 8.99590334-4.24036265-4.2979439c-.3848495-.3900755-.3848495-1.0209809 0-1.4110564.38690466-.3921586 1.01577303-.3921586 1.40267769 0z" stroke="#fff" stroke-width=".555556"/></g><circle cx="12" cy="124" fill="#346e78" r="12"/><g stroke-linejoin="round" transform="translate(0 112)"><path d="m10.2373994 14.9582451-3.02160103-3.0626323c-.2781307-.2819075-.72906965-.2819075-1.00720035 0-.27813069.2819075-.27813069.7389699 0 1.0208774l4.02880138 4.0835098 7.5540026-8.76769192c.2781307-.28190752.2781307-.73896992 0-1.02087744s-.7290697-.28190752-1.0072004 0z" fill="#fff" fill-rule="evenodd"/><path d="m10.22156 14.5466773 6.364903-7.53033615c.3869046-.39215857 1.015773-.39215857 1.4026777 0 .3848495.39007549.3848495 1.02098093.0127046 1.39727911l-7.7506233 8.99590334-4.24036265-4.2979439c-.3848495-.3900755-.3848495-1.0209809 0-1.4110564.38690466-.3921586 1.01577303-.3921586 1.40267769 0z" stroke="#fff" stroke-width=".555556"/></g><circle cx="12" cy="180" fill="#346e78" r="12"/><g stroke-linejoin="round" transform="translate(0 168)"><path d="m10.2373994 14.9582451-3.02160103-3.0626323c-.2781307-.2819075-.72906965-.2819075-1.00720035 0-.27813069.2819075-.27813069.7389699 0 1.0208774l4.02880138 4.0835098 7.5540026-8.76769192c.2781307-.28190752.2781307-.73896992 0-1.02087744s-.7290697-.28190752-1.0072004 0z" fill="#fff" fill-rule="evenodd"/><path d="m10.22156 14.5466773 6.364903-7.53033615c.3869046-.39215857 1.015773-.39215857 1.4026777 0 .3848495.39007549.3848495 1.02098093.0127046 1.39727911l-7.7506233 8.99590334-4.24036265-4.2979439c-.3848495-.3900755-.3848495-1.0209809 0-1.4110564.38690466-.3921586 1.01577303-.3921586 1.40267769 0z" stroke="#fff" stroke-width=".555556"/></g></g></svg>