<svg width="24" height="252" viewBox="0 0 24 252" fill="none" xmlns="http://www.w3.org/2000/svg">
<rect x="10" y="57" width="4" height="172" fill="#3B3937" fill-opacity="0.2"/>
<path d="M10 23H14V92C14 93.1046 13.1046 94 12 94C10.8954 94 10 93.1046 10 92V23Z" fill="#346E78"/>
<g clip-path="url(#clip0_1396_601)">
<circle cx="12" cy="184" r="12" fill="white"/>
<circle cx="12" cy="184" r="10" stroke="#3B3937" stroke-opacity="0.2" stroke-width="4"/>
<path d="M15.1348 181.35C15.1348 181.744 15.0527 182.086 14.8887 182.375C14.7246 182.664 14.502 182.9 14.2207 183.084C13.9434 183.268 13.6309 183.402 13.2832 183.488V183.523C13.9707 183.609 14.4922 183.82 14.8477 184.156C15.207 184.492 15.3867 184.941 15.3867 185.504C15.3867 186.004 15.2637 186.451 15.0176 186.846C14.7754 187.24 14.4004 187.551 13.8926 187.777C13.3848 188.004 12.7305 188.117 11.9297 188.117C11.457 188.117 11.0156 188.078 10.6055 188C10.1992 187.926 9.81641 187.811 9.45703 187.654V186.113C9.82422 186.301 10.209 186.443 10.6113 186.541C11.0137 186.635 11.3887 186.682 11.7363 186.682C12.3848 186.682 12.8379 186.57 13.0957 186.348C13.3574 186.121 13.4883 185.805 13.4883 185.398C13.4883 185.16 13.4277 184.959 13.3066 184.795C13.1855 184.631 12.9746 184.506 12.6738 184.42C12.377 184.334 11.9609 184.291 11.4258 184.291H10.7754V182.902H11.4375C11.9648 182.902 12.3652 182.854 12.6387 182.756C12.916 182.654 13.1035 182.518 13.2012 182.346C13.3027 182.17 13.3535 181.971 13.3535 181.748C13.3535 181.443 13.2598 181.205 13.0723 181.033C12.8848 180.861 12.5723 180.775 12.1348 180.775C11.8613 180.775 11.6113 180.811 11.3848 180.881C11.1621 180.947 10.9609 181.029 10.7812 181.127C10.6016 181.221 10.4434 181.312 10.3066 181.402L9.46875 180.154C9.80469 179.912 10.1973 179.711 10.6465 179.551C11.0996 179.391 11.6387 179.311 12.2637 179.311C13.1465 179.311 13.8457 179.488 14.3613 179.844C14.877 180.199 15.1348 180.701 15.1348 181.35Z" fill="#3B3937" fill-opacity="0.2"/>
</g>
<g clip-path="url(#clip1_1396_601)">
<circle cx="12" cy="240" r="12" fill="white"/>
<circle cx="12" cy="240" r="10" stroke="#3B3937" stroke-opacity="0.2" stroke-width="4"/>
<path d="M14.6621 242.225H13.6309V244H11.8613V242.225H8.20508V240.965L11.9609 235.434H13.6309V240.818H14.6621V242.225ZM11.8613 240.818V239.365C11.8613 239.229 11.8633 239.066 11.8672 238.879C11.875 238.691 11.8828 238.504 11.8906 238.316C11.8984 238.129 11.9062 237.963 11.9141 237.818C11.9258 237.67 11.9336 237.566 11.9375 237.508H11.8906C11.8164 237.668 11.7383 237.824 11.6562 237.977C11.5742 238.125 11.4785 238.281 11.3691 238.445L9.79883 240.818H11.8613Z" fill="#3B3937" fill-opacity="0.2"/>
</g>
<g clip-path="url(#clip2_1396_601)">
<circle cx="12" cy="12" r="12" fill="#346E78"/>
<path d="M10.2215 14.5467L7.41354 11.7005C7.02663 11.3084 6.39776 11.3084 6.01086 11.7005C5.62601 12.0906 5.62601 12.7215 6.01086 13.1116L10.0397 17.1951C10.0941 17.2503 10.1692 17.2802 10.2468 17.2776C10.3243 17.275 10.3972 17.2401 10.4478 17.1813L17.9962 8.42015C18.374 8.02955 18.3716 7.40401 17.9891 7.01634C17.6022 6.62418 16.9734 6.62418 16.5865 7.01634C16.5815 7.02142 16.5766 7.02669 16.572 7.03213L10.2215 14.5467Z" fill="white" stroke="white" stroke-width="0.555556" stroke-linejoin="round"/>
</g>
<g clip-path="url(#clip3_1396_601)">
<g clip-path="url(#clip4_1396_601)">
<circle cx="12" cy="128" r="12" fill="white"/>
<circle cx="12" cy="128" r="10" stroke="#3B3937" stroke-opacity="0.2" stroke-width="4"/>
<path d="M15.4688 132H9.48047V130.74L11.6309 128.566C12.0645 128.121 12.4121 127.75 12.6738 127.453C12.9395 127.152 13.1309 126.879 13.248 126.633C13.3691 126.387 13.4297 126.123 13.4297 125.842C13.4297 125.502 13.334 125.248 13.1426 125.08C12.9551 124.908 12.7031 124.822 12.3867 124.822C12.0547 124.822 11.7324 124.898 11.4199 125.051C11.1074 125.203 10.7812 125.42 10.4414 125.701L9.45703 124.535C9.70312 124.324 9.96289 124.125 10.2363 123.938C10.5137 123.75 10.834 123.6 11.1973 123.486C11.5645 123.369 12.0039 123.311 12.5156 123.311C13.0781 123.311 13.5605 123.412 13.9629 123.615C14.3691 123.818 14.6816 124.096 14.9004 124.447C15.1191 124.795 15.2285 125.189 15.2285 125.631C15.2285 126.104 15.1348 126.535 14.9473 126.926C14.7598 127.316 14.4863 127.703 14.127 128.086C13.7715 128.469 13.3418 128.893 12.8379 129.357L11.7363 130.395V130.477H15.4688V132Z" fill="#3B3937" fill-opacity="0.2"/>
</g>
</g>
<defs>
<clipPath id="clip0_1396_601">
<rect width="24" height="24" fill="white" transform="translate(0 172)"/>
</clipPath>
<clipPath id="clip1_1396_601">
<rect width="24" height="24" fill="white" transform="translate(0 228)"/>
</clipPath>
<clipPath id="clip2_1396_601">
<rect width="24" height="24" fill="white"/>
</clipPath>
<clipPath id="clip3_1396_601">
<rect width="24" height="24" fill="white" transform="translate(0 116)"/>
</clipPath>
<clipPath id="clip4_1396_601">
<rect width="24" height="24" fill="white" transform="translate(0 116)"/>
</clipPath>
</defs>
</svg>
