<svg height="219" viewBox="0 0 24 219" width="24" xmlns="http://www.w3.org/2000/svg"><g fill="none" fill-rule="evenodd" transform=""><path d="m10 39h4v157h-4z" fill="#3b3937" fill-opacity=".2"/><path d="m10 23h4v96c0 1.104569-.8954305 2-2 2-1.1045695 0-2-.895431-2-2z" fill="#346e78"/><g transform="translate(0 139)"><circle cx="12" cy="12" fill="#fff" fill-rule="evenodd" r="12"/><circle cx="12" cy="12" r="10" stroke="#3b3937" stroke-opacity=".2" stroke-width="4"/><path d="m15.1347656 9.34960938c0 .53515892-.1621077.99023252-.4863281 1.36523442-.3242204.3750018-.7792939.6328117-1.3652344.7734374v.0351563c.6914097.0859379 1.214842.2958968 1.5703125.6298828.3554706.3339861.5332032.7841769.5332032 1.3505859 0 .8242229-.2988252 1.4658181-.8964844 1.9248047-.5976593.4589867-1.4511664.6884766-2.5605469.6884766-.9296921 0-1.7539027-.1542953-2.47265625-.4628906v-1.5410157c.33203291.1679696.69726365.304687 1.09570315.4101563s.7929668.1582031 1.1835937.1582031c.5976593 0 1.0390611-.1015615 1.3242188-.3046875s.4277343-.5292946.4277343-.9785156c0-.4023458-.1640608-.6874992-.4921874-.8554687-.3281267-.1679696-.851559-.2519532-1.5703126-.2519532h-.6503906v-1.3886718h.6621094c.6640658 0 1.1494125-.0869132 1.4560547-.2607422.3066421-.173829.4599609-.4716776.4599609-.89355472 0-.64844075-.4062459-.97265626-1.21875-.97265626-.2812514 0-.5673813.04687454-.8583984.140625-.2910171.09375047-.614256.25585823-.9697266.48632813l-.8378906-1.24804687c.7812539-.56250282 1.7128852-.84375 2.7949219-.84375.8867232 0 1.5869115.1796857 2.1005859.5390625.5136745.35937679.7705078.85937179.7705078 1.5z" fill="#3b3937" fill-opacity=".2"/></g><g transform="translate(0 195)"><circle cx="12" cy="12" fill="#fff" fill-rule="evenodd" r="12"/><circle cx="12" cy="12" r="10" stroke="#3b3937" stroke-opacity=".2" stroke-width="4"/><path d="m14.6621094 14.2246094h-1.03125v1.7753906h-1.7695313v-1.7753906h-3.65624998v-1.2597656l3.75585938-5.53125005h1.6699219v5.38476565h1.03125zm-2.8007813-1.40625v-1.453125c0-.2421887.0097656-.5937477.0292969-1.0546875.0195313-.46093983.0351562-.72851528.046875-.8027344h-.046875c-.144532.3203141-.3183584.632811-.5214844.9375l-1.57031248 2.3730469z" fill="#3b3937" fill-opacity=".2"/></g><circle cx="12" cy="12" fill="#346e78" r="12"/><g stroke-linejoin="round"><path d="m10.2373994 14.9582451-3.02160103-3.0626323c-.2781307-.2819075-.72906965-.2819075-1.00720035 0-.27813069.2819075-.27813069.7389699 0 1.0208774l4.02880138 4.0835098 7.5540026-8.76769192c.2781307-.28190752.2781307-.73896992 0-1.02087744s-.7290697-.28190752-1.0072004 0z" fill="#fff" fill-rule="evenodd"/><path d="m10.22156 14.5466773 6.364903-7.53033615c.3869046-.39215857 1.015773-.39215857 1.4026777 0 .3848495.39007549.3848495 1.02098093.0127046 1.39727911l-7.7506233 8.99590334-4.24036265-4.2979439c-.3848495-.3900755-.3848495-1.0209809 0-1.4110564.38690466-.3921586 1.01577303-.3921586 1.40267769 0z" stroke="#fff" stroke-width=".555556"/></g><circle cx="12" cy="68" fill="#346e78" r="12"/><g stroke-linejoin="round" transform="translate(0 56)"><path d="m10.2373994 14.9582451-3.02160103-3.0626323c-.2781307-.2819075-.72906965-.2819075-1.00720035 0-.27813069.2819075-.27813069.7389699 0 1.0208774l4.02880138 4.0835098 7.5540026-8.76769192c.2781307-.28190752.2781307-.73896992 0-1.02087744s-.7290697-.28190752-1.0072004 0z" fill="#fff" fill-rule="evenodd"/><path d="m10.22156 14.5466773 6.364903-7.53033615c.3869046-.39215857 1.015773-.39215857 1.4026777 0 .3848495.39007549.3848495 1.02098093.0127046 1.39727911l-7.7506233 8.99590334-4.24036265-4.2979439c-.3848495-.3900755-.3848495-1.0209809 0-1.4110564.38690466-.3921586 1.01577303-.3921586 1.40267769 0z" stroke="#fff" stroke-width=".555556"/></g></g></svg>