<svg height="179" viewBox="0 0 24 179" width="24" xmlns="http://www.w3.org/2000/svg"><g fill="none" fill-rule="evenodd" transform="translate(-476 -338)"><path d="m486 377h4v131h-4z" fill="#3b3937" fill-opacity=".2"/><path d="m486 361h4v48c0 1.104569-.895431 2-2 2-1.104569 0-2-.895431-2-2z" fill="#346e78"/><g transform="translate(476 493)"><circle cx="12" cy="12" fill="#fff" fill-rule="evenodd" r="12"/><circle cx="12" cy="12" r="10" stroke="#3b3937" stroke-opacity=".2" stroke-width="4"/><path d="m10.7285156 12.9765625v-.5039063c0-.3828144.0781242-.7060533.234375-.9697265s.4335918-.5205066.8320313-.7705078c.3164078-.1992198.5439446-.3789055.6826172-.5390625.1386725-.1601571.2080078-.34374899.2080078-.55078128 0-.16406332-.074218-.29394483-.2226563-.38964843-.1484382-.09570361-.3417957-.14355469-.5800781-.14355469-.5898467 0-1.2792929.20898229-2.06835938.62695312l-.81445312-1.59375c.97266111-.55469027 1.988276-.83203124 3.046875-.83203124.8710981 0 1.554685.19140433 2.0507812.57421874.4960963.38281442.7441407.90429358.7441407 1.56445313 0 .47265861-.1103505.88183425-.3310547 1.22753905-.2207042.3457049-.5732398.67285-1.0576172.9814453-.4101583.2656264-.6669917.4599603-.7705078.5830078-.1035162.1230475-.1552734.2685539-.1552734.4365235v.2988281zm-.2519531 2.0507813c0-.3593768.1044911-.6367178.3134766-.8320313.2089854-.1953135.5165995-.2929687.9228515-.2929687.390627 0 .6904287.0986318.8994141.2958984s.3134765.473631.3134765.8291016c0 .3554705-.1083973.6308583-.3251953.8261718-.2167979.1953135-.5126934.2929688-.8876953.2929688-.3867207 0-.689452-.0966787-.9082031-.2900391-.2187511-.1933603-.328125-.4697248-.328125-.8291015z" fill="#3b3937" fill-opacity=".2"/></g><circle cx="488" cy="350" fill="#346e78" r="12"/><g stroke-linejoin="round" transform="translate(476 338)"><path d="m10.2373994 14.9582451-3.02160103-3.0626323c-.2781307-.2819075-.72906965-.2819075-1.00720035 0-.27813069.2819075-.27813069.7389699 0 1.0208774l4.02880138 4.0835098 7.5540026-8.76769192c.2781307-.28190752.2781307-.73896992 0-1.02087744s-.7290697-.28190752-1.0072004 0z" fill="#fff" fill-rule="evenodd"/><path d="m10.22156 14.5466773 6.364903-7.53033615c.3869046-.39215857 1.015773-.39215857 1.4026777 0 .3848495.39007549.3848495 1.02098093.0127046 1.39727911l-7.7506233 8.99590334-4.24036265-4.2979439c-.3848495-.3900755-.3848495-1.0209809 0-1.4110564.38690466-.3921586 1.01577303-.3921586 1.40267769 0z" stroke="#fff" stroke-width=".555556"/></g><g transform="translate(476 394.6)"><path d="m13.5354889.93423712 10.2269786 18.66606088c.4892936.8930482.1984163 2.0346753-.6496927 2.5498955-.2693938.1636547-.574933.2498065-.8859446.2498065h-20.45395699c-.97913084 0-1.77287321-.8358009-1.77287321-1.8668134 0-.3274914.08181651-.6492204.23723599-.9328886l10.22697851-18.66606088c.4892937-.89304825 1.5734728-1.19933845 2.4215818-.6841183.2698944.16395891.4939843.39992286.6496926.6841183z" fill="#fcb831" fill-rule="evenodd"/><path d="m14.2370854.54983831 10.2269785 18.66606079c.6928519 1.2645784.2816819 2.8783266-.9359318 3.6180182-.3941488.2394426-.8432809.3660827-1.3013019.3660827h-20.45395699c-1.43046018 0-2.57287321-1.2029467-2.57287321-2.6668134 0-.4614208.11544748-.9153976.33563956-1.3172875l10.22697851-18.66606079c.70600353-1.28858237 2.29656663-1.73793054 3.53853553-.98344333.3907542.23738037.7131918.57690319.9359318.98344333z" stroke="#fff" stroke-width="1.6"/></g><g fill="#000"><rect height="7.542857" rx="1.219048" width="2.438095" x="486.8" y="401"/><circle cx="488" cy="412.2" r="1.6"/></g></g></svg>